<ttFont>
    <TTGlyph name=".notdef" xMin="80" yMin="0" xMax="468" yMax="689">
      <contour>
        <pt x="80" y="689" on="1"/>
        <pt x="468" y="689" on="1"/>
        <pt x="468" y="0" on="1"/>
        <pt x="80" y="0" on="1"/>
      </contour>
      <contour>
        <pt x="400" y="68" on="1"/>
        <pt x="400" y="621" on="1"/>
        <pt x="148" y="621" on="1"/>
        <pt x="148" y="68" on="1"/>
      </contour>
    </TTGlyph>
    <TTGlyph name="A" xMin="55" yMin="-14" xMax="595" yMax="626">
      <contour>
        <pt x="491" y="344" on="1"/>
        <pt x="491" y="378" on="1"/>
        <pt x="491" y="475" on="0"/>
        <pt x="415" y="560" on="0"/>
        <pt x="346" y="560" on="1"/>
        <pt x="314" y="560" on="0"/>
        <pt x="254" y="534" on="0"/>
        <pt x="205" y="480" on="0"/>
        <pt x="168" y="399" on="0"/>
        <pt x="159" y="344" on="1"/>
      </contour>
      <contour>
        <pt x="154" y="280" on="1"/>
        <pt x="154" y="214" on="0"/>
        <pt x="178" y="113" on="0"/>
        <pt x="199" y="78" on="1"/>
        <pt x="208" y="63" on="0"/>
        <pt x="215" y="41" on="0"/>
        <pt x="215" y="30" on="1"/>
        <pt x="215" y="13" on="0"/>
        <pt x="184" y="-14" on="0"/>
        <pt x="158" y="-14" on="1"/>
        <pt x="141" y="-14" on="0"/>
        <pt x="108" y="8" on="0"/>
        <pt x="96" y="31" on="1"/>
        <pt x="77" y="68" on="0"/>
        <pt x="55" y="175" on="0"/>
        <pt x="55" y="231" on="1"/>
        <pt x="55" y="317" on="0"/>
        <pt x="106" y="462" on="0"/>
        <pt x="195" y="567" on="0"/>
        <pt x="312" y="626" on="0"/>
        <pt x="378" y="626" on="1"/>
        <pt x="487" y="626" on="0"/>
        <pt x="595" y="517" on="0"/>
        <pt x="595" y="402" on="1"/>
        <pt x="595" y="28" on="1"/>
        <pt x="595" y="9" on="0"/>
        <pt x="569" y="-14" on="0"/>
        <pt x="543" y="-14" on="1"/>
        <pt x="517" y="-14" on="0"/>
        <pt x="491" y="9" on="0"/>
        <pt x="491" y="28" on="1"/>
        <pt x="491" y="280" on="1"/>
      </contour>
    </TTGlyph>
    <TTGlyph name="AE" xMin="55" yMin="-14" xMax="980" yMax="626">
      <contour>
        <pt x="932" y="106" on="1"/>
        <pt x="962" y="106" on="0"/>
        <pt x="962" y="77" on="1"/>
        <pt x="962" y="60" on="0"/>
        <pt x="918" y="27" on="0"/>
        <pt x="839" y="1" on="0"/>
        <pt x="729" y="-14" on="0"/>
        <pt x="662" y="-14" on="1"/>
        <pt x="603" y="-14" on="0"/>
        <pt x="534" y="-4" on="0"/>
        <pt x="500" y="19" on="0"/>
        <pt x="491" y="56" on="0"/>
        <pt x="491" y="84" on="1"/>
        <pt x="491" y="280" on="1"/>
        <pt x="154" y="280" on="1"/>
        <pt x="154" y="214" on="0"/>
        <pt x="178" y="113" on="0"/>
        <pt x="199" y="78" on="1"/>
        <pt x="208" y="63" on="0"/>
        <pt x="215" y="41" on="0"/>
        <pt x="215" y="30" on="1"/>
        <pt x="215" y="13" on="0"/>
        <pt x="184" y="-14" on="0"/>
        <pt x="158" y="-14" on="1"/>
        <pt x="133" y="-14" on="0"/>
        <pt x="94" y="29" on="0"/>
        <pt x="68" y="99" on="0"/>
        <pt x="55" y="187" on="0"/>
        <pt x="55" y="231" on="1"/>
        <pt x="55" y="317" on="0"/>
        <pt x="106" y="462" on="0"/>
        <pt x="195" y="567" on="0"/>
        <pt x="312" y="626" on="0"/>
        <pt x="378" y="626" on="1"/>
        <pt x="431" y="626" on="0"/>
        <pt x="509" y="587" on="0"/>
        <pt x="536" y="540" on="1"/>
        <pt x="554" y="570" on="0"/>
        <pt x="615" y="605" on="0"/>
        <pt x="684" y="621" on="0"/>
        <pt x="751" y="625" on="0"/>
        <pt x="774" y="625" on="1"/>
        <pt x="836" y="625" on="0"/>
        <pt x="916" y="614" on="0"/>
        <pt x="962" y="594" on="0"/>
        <pt x="980" y="566" on="0"/>
        <pt x="980" y="550" on="1"/>
        <pt x="980" y="527" on="0"/>
        <pt x="950" y="499" on="0"/>
        <pt x="930" y="499" on="1"/>
        <pt x="916" y="499" on="0"/>
        <pt x="887" y="510" on="0"/>
        <pt x="879" y="518" on="1"/>
        <pt x="868" y="528" on="0"/>
        <pt x="846" y="544" on="0"/>
        <pt x="815" y="555" on="0"/>
        <pt x="773" y="560" on="0"/>
        <pt x="744" y="560" on="1"/>
        <pt x="737" y="560" on="0"/>
        <pt x="716" y="558" on="0"/>
        <pt x="693" y="556" on="0"/>
        <pt x="673" y="552" on="0"/>
        <pt x="667" y="551" on="1"/>
        <pt x="643" y="545" on="0"/>
        <pt x="614" y="532" on="0"/>
        <pt x="599" y="508" on="0"/>
        <pt x="595" y="468" on="0"/>
        <pt x="595" y="435" on="1"/>
        <pt x="595" y="345" on="1"/>
        <pt x="810" y="345" on="1"/>
        <pt x="824" y="345" on="0"/>
        <pt x="840" y="327" on="0"/>
        <pt x="840" y="313" on="1"/>
        <pt x="840" y="299" on="0"/>
        <pt x="824" y="281" on="0"/>
        <pt x="810" y="281" on="1"/>
        <pt x="595" y="281" on="1"/>
        <pt x="595" y="101" on="1"/>
        <pt x="595" y="84" on="0"/>
        <pt x="600" y="65" on="0"/>
        <pt x="616" y="55" on="0"/>
        <pt x="649" y="52" on="0"/>
        <pt x="676" y="52" on="1"/>
        <pt x="719" y="52" on="0"/>
        <pt x="788" y="59" on="0"/>
        <pt x="843" y="72" on="0"/>
        <pt x="889" y="89" on="0"/>
        <pt x="909" y="99" on="1"/>
        <pt x="922" y="106" on="0"/>
      </contour>
      <contour>
        <pt x="491" y="344" on="1"/>
        <pt x="491" y="378" on="1"/>
        <pt x="491" y="475" on="0"/>
        <pt x="415" y="560" on="0"/>
        <pt x="346" y="560" on="1"/>
        <pt x="314" y="560" on="0"/>
        <pt x="254" y="534" on="0"/>
        <pt x="205" y="480" on="0"/>
        <pt x="168" y="399" on="0"/>
        <pt x="159" y="344" on="1"/>
      </contour>
    </TTGlyph>
    <TTGlyph name="Aacute" xMin="65" yMin="-14" xMax="605" yMax="821">
      <component glyphName="A" x="10" y="0" flags="0x204"/>
      <component glyphName="acute" x="287" y="200" flags="0x4"/>
    </TTGlyph>
    <TTGlyph name="Acircumflex" xMin="55" yMin="-14" xMax="595" yMax="821">
      <component glyphName="A" x="0" y="0" flags="0x204"/>
      <component glyphName="circumflex" x="204" y="200" flags="0x4"/>
    </TTGlyph>
    <TTGlyph name="Adieresis" xMin="55" yMin="-14" xMax="595" yMax="813">
      <component glyphName="A" x="0" y="0" flags="0x204"/>
      <component glyphName="dieresis" x="187" y="200" flags="0x4"/>
    </TTGlyph>
    <TTGlyph name="Agrave" xMin="55" yMin="-14" xMax="595" yMax="821">
      <component glyphName="A" x="0" y="0" flags="0x204"/>
      <component glyphName="grave" x="247" y="200" flags="0x4"/>
    </TTGlyph>
    <TTGlyph name="Aring" xMin="55" yMin="-14" xMax="595" yMax="856">
      <component glyphName="A" x="0" y="0" flags="0x204"/>
      <component glyphName="ring" x="221" y="200" flags="0x4"/>
    </TTGlyph>
    <TTGlyph name="Atilde" xMin="55" yMin="-14" xMax="595" yMax="812">
      <component glyphName="A" x="0" y="0" flags="0x204"/>
      <component glyphName="tilde" x="187" y="200" flags="0x4"/>
    </TTGlyph>
    <TTGlyph name="B" xMin="70" yMin="-14" xMax="646" yMax="625">
      <contour>
        <pt x="167" y="121" on="1"/>
        <pt x="167" y="99" on="0"/>
        <pt x="175" y="71" on="0"/>
        <pt x="204" y="56" on="0"/>
        <pt x="258" y="51" on="0"/>
        <pt x="305" y="51" on="1"/>
        <pt x="368" y="51" on="0"/>
        <pt x="457" y="69" on="0"/>
        <pt x="512" y="103" on="0"/>
        <pt x="537" y="155" on="0"/>
        <pt x="537" y="189" on="1"/>
        <pt x="537" y="214" on="0"/>
        <pt x="520" y="252" on="0"/>
        <pt x="479" y="278" on="0"/>
        <pt x="410" y="292" on="0"/>
        <pt x="358" y="292" on="1"/>
        <pt x="167" y="292" on="1"/>
      </contour>
      <contour>
        <pt x="70" y="468" on="1"/>
        <pt x="70" y="496" on="0"/>
        <pt x="78" y="537" on="0"/>
        <pt x="98" y="567" on="0"/>
        <pt x="134" y="588" on="0"/>
        <pt x="162" y="598" on="1"/>
        <pt x="197" y="611" on="0"/>
        <pt x="296" y="625" on="0"/>
        <pt x="354" y="625" on="1"/>
        <pt x="414" y="625" on="0"/>
        <pt x="498" y="604" on="0"/>
        <pt x="552" y="570" on="0"/>
        <pt x="576" y="526" on="0"/>
        <pt x="576" y="502" on="1"/>
        <pt x="576" y="479" on="0"/>
        <pt x="562" y="433" on="0"/>
        <pt x="532" y="389" on="0"/>
        <pt x="487" y="353" on="0"/>
        <pt x="457" y="341" on="1"/>
        <pt x="557" y="336" on="0"/>
        <pt x="646" y="275" on="0"/>
        <pt x="646" y="215" on="1"/>
        <pt x="646" y="165" on="0"/>
        <pt x="596" y="82" on="0"/>
        <pt x="498" y="20" on="0"/>
        <pt x="351" y="-14" on="0"/>
        <pt x="255" y="-14" on="1"/>
        <pt x="202" y="-14" on="0"/>
        <pt x="131" y="-3" on="0"/>
        <pt x="88" y="22" on="0"/>
        <pt x="70" y="63" on="0"/>
        <pt x="70" y="92" on="1"/>
      </contour>
      <contour>
        <pt x="243" y="561" on="1"/>
        <pt x="217" y="555" on="0"/>
        <pt x="187" y="543" on="0"/>
        <pt x="172" y="524" on="0"/>
        <pt x="167" y="493" on="0"/>
        <pt x="167" y="468" on="1"/>
        <pt x="167" y="349" on="1"/>
        <pt x="314" y="349" on="1"/>
        <pt x="384" y="349" on="0"/>
        <pt x="468" y="412" on="0"/>
        <pt x="468" y="466" on="1"/>
        <pt x="468" y="517" on="0"/>
        <pt x="400" y="568" on="0"/>
        <pt x="323" y="568" on="1"/>
        <pt x="305" y="568" on="0"/>
        <pt x="257" y="564" on="0"/>
      </contour>
    </TTGlyph>
    <TTGlyph name="C" xMin="40" yMin="-14" xMax="765" yMax="626">
      <contour>
        <pt x="364" y="55" on="1"/>
        <pt x="403" y="55" on="0"/>
        <pt x="472" y="72" on="0"/>
        <pt x="531" y="100" on="0"/>
        <pt x="580" y="137" on="0"/>
        <pt x="598" y="158" on="1"/>
        <pt x="610" y="172" on="0"/>
        <pt x="633" y="186" on="0"/>
        <pt x="650" y="186" on="1"/>
        <pt x="666" y="186" on="0"/>
        <pt x="684" y="170" on="0"/>
        <pt x="684" y="156" on="1"/>
        <pt x="684" y="140" on="0"/>
        <pt x="669" y="124" on="1"/>
        <pt x="643" y="96" on="0"/>
        <pt x="570" y="46" on="0"/>
        <pt x="484" y="8" on="0"/>
        <pt x="390" y="-14" on="0"/>
        <pt x="343" y="-14" on="1"/>
        <pt x="266" y="-14" on="0"/>
        <pt x="152" y="19" on="0"/>
        <pt x="77" y="78" on="0"/>
        <pt x="40" y="160" on="0"/>
        <pt x="40" y="210" on="1"/>
        <pt x="40" y="262" on="0"/>
        <pt x="74" y="364" on="0"/>
        <pt x="136" y="457" on="0"/>
        <pt x="223" y="535" on="0"/>
        <pt x="329" y="593" on="0"/>
        <pt x="452" y="626" on="0"/>
        <pt x="518" y="626" on="1"/>
        <pt x="609" y="626" on="0"/>
        <pt x="725" y="578" on="0"/>
        <pt x="752" y="543" on="1"/>
        <pt x="765" y="527" on="0"/>
        <pt x="765" y="505" on="1"/>
        <pt x="765" y="484" on="0"/>
        <pt x="731" y="454" on="0"/>
        <pt x="704" y="454" on="1"/>
        <pt x="690" y="454" on="0"/>
        <pt x="662" y="469" on="0"/>
        <pt x="651" y="482" on="1"/>
        <pt x="618" y="522" on="0"/>
        <pt x="531" y="557" on="0"/>
        <pt x="473" y="557" on="1"/>
        <pt x="407" y="557" on="0"/>
        <pt x="292" y="506" on="0"/>
        <pt x="207" y="419" on="0"/>
        <pt x="157" y="306" on="0"/>
        <pt x="157" y="244" on="1"/>
        <pt x="157" y="204" on="0"/>
        <pt x="186" y="135" on="0"/>
        <pt x="239" y="84" on="0"/>
        <pt x="316" y="55" on="0"/>
      </contour>
    </TTGlyph>
    <TTGlyph name="Ccedilla" xMin="40" yMin="-309" xMax="765" yMax="626">
      <contour>
        <pt x="364" y="55" on="1"/>
        <pt x="403" y="55" on="0"/>
        <pt x="472" y="72" on="0"/>
        <pt x="531" y="100" on="0"/>
        <pt x="580" y="137" on="0"/>
        <pt x="598" y="158" on="1"/>
        <pt x="610" y="172" on="0"/>
        <pt x="633" y="186" on="0"/>
        <pt x="650" y="186" on="1"/>
        <pt x="666" y="186" on="0"/>
        <pt x="684" y="170" on="0"/>
        <pt x="684" y="156" on="1"/>
        <pt x="684" y="140" on="0"/>
        <pt x="669" y="124" on="1"/>
        <pt x="645" y="98" on="0"/>
        <pt x="580" y="52" on="0"/>
        <pt x="504" y="16" on="0"/>
        <pt x="421" y="-8" on="0"/>
        <pt x="378" y="-12" on="1"/>
        <pt x="307" y="-89" on="1"/>
        <pt x="316" y="-85" on="0"/>
        <pt x="343" y="-82" on="0"/>
        <pt x="351" y="-82" on="1"/>
        <pt x="454" y="-82" on="0"/>
        <pt x="454" y="-164" on="1"/>
        <pt x="454" y="-192" on="0"/>
        <pt x="425" y="-244" on="0"/>
        <pt x="374" y="-285" on="0"/>
        <pt x="305" y="-309" on="0"/>
        <pt x="265" y="-309" on="1"/>
        <pt x="218" y="-309" on="0"/>
        <pt x="168" y="-278" on="0"/>
        <pt x="168" y="-255" on="1"/>
        <pt x="168" y="-241" on="0"/>
        <pt x="182" y="-223" on="0"/>
        <pt x="196" y="-223" on="1"/>
        <pt x="212" y="-223" on="0"/>
        <pt x="224" y="-234" on="0"/>
        <pt x="235" y="-247" on="0"/>
        <pt x="255" y="-258" on="0"/>
        <pt x="279" y="-258" on="1"/>
        <pt x="323" y="-258" on="0"/>
        <pt x="378" y="-213" on="0"/>
        <pt x="378" y="-181" on="1"/>
        <pt x="378" y="-158" on="0"/>
        <pt x="351" y="-130" on="0"/>
        <pt x="331" y="-130" on="1"/>
        <pt x="311" y="-130" on="0"/>
        <pt x="277" y="-139" on="0"/>
        <pt x="263" y="-147" on="1"/>
        <pt x="249" y="-155" on="0"/>
        <pt x="239" y="-155" on="1"/>
        <pt x="229" y="-155" on="0"/>
        <pt x="212" y="-139" on="0"/>
        <pt x="212" y="-128" on="1"/>
        <pt x="212" y="-116" on="0"/>
        <pt x="226" y="-100" on="1"/>
        <pt x="311" y="-13" on="1"/>
        <pt x="174" y="-6" on="0"/>
        <pt x="40" y="115" on="0"/>
        <pt x="40" y="210" on="1"/>
        <pt x="40" y="262" on="0"/>
        <pt x="74" y="364" on="0"/>
        <pt x="136" y="457" on="0"/>
        <pt x="223" y="535" on="0"/>
        <pt x="329" y="593" on="0"/>
        <pt x="452" y="626" on="0"/>
        <pt x="518" y="626" on="1"/>
        <pt x="609" y="626" on="0"/>
        <pt x="725" y="578" on="0"/>
        <pt x="752" y="543" on="1"/>
        <pt x="765" y="527" on="0"/>
        <pt x="765" y="505" on="1"/>
        <pt x="765" y="484" on="0"/>
        <pt x="731" y="454" on="0"/>
        <pt x="704" y="454" on="1"/>
        <pt x="690" y="454" on="0"/>
        <pt x="662" y="469" on="0"/>
        <pt x="651" y="482" on="1"/>
        <pt x="618" y="522" on="0"/>
        <pt x="531" y="557" on="0"/>
        <pt x="473" y="557" on="1"/>
        <pt x="407" y="557" on="0"/>
        <pt x="292" y="506" on="0"/>
        <pt x="207" y="419" on="0"/>
        <pt x="157" y="306" on="0"/>
        <pt x="157" y="244" on="1"/>
        <pt x="157" y="204" on="0"/>
        <pt x="186" y="135" on="0"/>
        <pt x="239" y="84" on="0"/>
        <pt x="316" y="55" on="0"/>
      </contour>
    </TTGlyph>
    <TTGlyph name="D" xMin="70" yMin="-14" xMax="676" yMax="625">
      <contour>
        <pt x="245" y="-14" on="1"/>
        <pt x="186" y="-14" on="0"/>
        <pt x="116" y="-7" on="0"/>
        <pt x="80" y="14" on="0"/>
        <pt x="70" y="53" on="0"/>
        <pt x="70" y="84" on="1"/>
        <pt x="70" y="466" on="1"/>
        <pt x="70" y="502" on="0"/>
        <pt x="84" y="551" on="0"/>
        <pt x="126" y="584" on="0"/>
        <pt x="201" y="606" on="0"/>
        <pt x="262" y="615" on="1"/>
        <pt x="290" y="619" on="0"/>
        <pt x="369" y="625" on="0"/>
        <pt x="402" y="625" on="1"/>
        <pt x="465" y="625" on="0"/>
        <pt x="566" y="593" on="0"/>
        <pt x="638" y="534" on="0"/>
        <pt x="676" y="450" on="0"/>
        <pt x="676" y="399" on="1"/>
        <pt x="676" y="306" on="0"/>
        <pt x="614" y="154" on="0"/>
        <pt x="501" y="45" on="0"/>
        <pt x="342" y="-14" on="0"/>
      </contour>
      <contour>
        <pt x="565" y="363" on="1"/>
        <pt x="565" y="467" on="0"/>
        <pt x="460" y="560" on="0"/>
        <pt x="352" y="560" on="1"/>
        <pt x="336" y="560" on="0"/>
        <pt x="308" y="558" on="0"/>
        <pt x="296" y="556" on="1"/>
        <pt x="258" y="551" on="0"/>
        <pt x="211" y="539" on="0"/>
        <pt x="184" y="518" on="0"/>
        <pt x="174" y="487" on="0"/>
        <pt x="174" y="463" on="1"/>
        <pt x="174" y="99" on="1"/>
        <pt x="174" y="84" on="0"/>
        <pt x="180" y="66" on="0"/>
        <pt x="201" y="56" on="0"/>
        <pt x="241" y="52" on="0"/>
        <pt x="276" y="52" on="1"/>
        <pt x="340" y="52" on="0"/>
        <pt x="446" y="88" on="0"/>
        <pt x="522" y="163" on="0"/>
        <pt x="565" y="281" on="0"/>
      </contour>
    </TTGlyph>
    <TTGlyph name="E" xMin="70" yMin="-14" xMax="559" yMax="625">
      <contour>
        <pt x="511" y="106" on="1"/>
        <pt x="541" y="106" on="0"/>
        <pt x="541" y="77" on="1"/>
        <pt x="541" y="63" on="0"/>
        <pt x="527" y="45" on="0"/>
        <pt x="509" y="35" on="1"/>
        <pt x="492" y="26" on="0"/>
        <pt x="438" y="8" on="0"/>
        <pt x="367" y="-5" on="0"/>
        <pt x="285" y="-14" on="0"/>
        <pt x="241" y="-14" on="1"/>
        <pt x="182" y="-14" on="0"/>
        <pt x="113" y="-4" on="0"/>
        <pt x="79" y="19" on="0"/>
        <pt x="70" y="56" on="0"/>
        <pt x="70" y="84" on="1"/>
        <pt x="70" y="421" on="1"/>
        <pt x="70" y="467" on="0"/>
        <pt x="83" y="531" on="0"/>
        <pt x="116" y="574" on="0"/>
        <pt x="171" y="599" on="0"/>
        <pt x="214" y="608" on="1"/>
        <pt x="232" y="612" on="0"/>
        <pt x="272" y="618" on="0"/>
        <pt x="310" y="622" on="0"/>
        <pt x="343" y="625" on="0"/>
        <pt x="353" y="625" on="1"/>
        <pt x="415" y="625" on="0"/>
        <pt x="495" y="614" on="0"/>
        <pt x="541" y="594" on="0"/>
        <pt x="559" y="566" on="0"/>
        <pt x="559" y="550" on="1"/>
        <pt x="559" y="527" on="0"/>
        <pt x="529" y="499" on="0"/>
        <pt x="509" y="499" on="1"/>
        <pt x="495" y="499" on="0"/>
        <pt x="466" y="510" on="0"/>
        <pt x="458" y="518" on="1"/>
        <pt x="447" y="528" on="0"/>
        <pt x="425" y="544" on="0"/>
        <pt x="394" y="555" on="0"/>
        <pt x="352" y="560" on="0"/>
        <pt x="323" y="560" on="1"/>
        <pt x="316" y="560" on="0"/>
        <pt x="295" y="558" on="0"/>
        <pt x="272" y="556" on="0"/>
        <pt x="252" y="552" on="0"/>
        <pt x="246" y="551" on="1"/>
        <pt x="222" y="545" on="0"/>
        <pt x="193" y="532" on="0"/>
        <pt x="178" y="508" on="0"/>
        <pt x="174" y="468" on="0"/>
        <pt x="174" y="435" on="1"/>
        <pt x="174" y="345" on="1"/>
        <pt x="389" y="345" on="1"/>
        <pt x="403" y="345" on="0"/>
        <pt x="419" y="327" on="0"/>
        <pt x="419" y="313" on="1"/>
        <pt x="419" y="299" on="0"/>
        <pt x="403" y="281" on="0"/>
        <pt x="389" y="281" on="1"/>
        <pt x="174" y="281" on="1"/>
        <pt x="174" y="101" on="1"/>
        <pt x="174" y="84" on="0"/>
        <pt x="179" y="65" on="0"/>
        <pt x="195" y="55" on="0"/>
        <pt x="228" y="52" on="0"/>
        <pt x="255" y="52" on="1"/>
        <pt x="298" y="52" on="0"/>
        <pt x="367" y="59" on="0"/>
        <pt x="422" y="72" on="0"/>
        <pt x="468" y="89" on="0"/>
        <pt x="488" y="99" on="1"/>
        <pt x="501" y="106" on="0"/>
      </contour>
    </TTGlyph>
    <TTGlyph name="Eacute" xMin="70" yMin="-14" xMax="559" yMax="821">
      <component glyphName="E" x="0" y="0" flags="0x204"/>
      <component glyphName="acute" x="228" y="200" flags="0x4"/>
    </TTGlyph>
    <TTGlyph name="Ecircumflex" xMin="70" yMin="-14" xMax="559" yMax="821">
      <component glyphName="E" x="0" y="0" flags="0x204"/>
      <component glyphName="circumflex" x="163" y="200" flags="0x4"/>
    </TTGlyph>
    <TTGlyph name="Edieresis" xMin="70" yMin="-14" xMax="559" yMax="813">
      <component glyphName="E" x="0" y="0" flags="0x204"/>
      <component glyphName="dieresis" x="152" y="200" flags="0x4"/>
    </TTGlyph>
    <TTGlyph name="Egrave" xMin="70" yMin="-14" xMax="559" yMax="821">
      <component glyphName="E" x="0" y="0" flags="0x204"/>
      <component glyphName="grave" x="223" y="200" flags="0x4"/>
    </TTGlyph>
    <TTGlyph name="Eth" xMin="-13" yMin="-14" xMax="676" yMax="625">
      <contour>
        <pt x="245" y="-14" on="1"/>
        <pt x="186" y="-14" on="0"/>
        <pt x="116" y="-7" on="0"/>
        <pt x="80" y="14" on="0"/>
        <pt x="70" y="53" on="0"/>
        <pt x="70" y="84" on="1"/>
        <pt x="70" y="280" on="1"/>
        <pt x="13" y="280" on="1"/>
        <pt x="3" y="280" on="0"/>
        <pt x="-13" y="296" on="0"/>
        <pt x="-13" y="313" on="1"/>
        <pt x="-13" y="330" on="0"/>
        <pt x="3" y="347" on="0"/>
        <pt x="13" y="347" on="1"/>
        <pt x="70" y="347" on="1"/>
        <pt x="70" y="466" on="1"/>
        <pt x="70" y="502" on="0"/>
        <pt x="84" y="551" on="0"/>
        <pt x="126" y="584" on="0"/>
        <pt x="201" y="606" on="0"/>
        <pt x="262" y="615" on="1"/>
        <pt x="290" y="619" on="0"/>
        <pt x="369" y="625" on="0"/>
        <pt x="402" y="625" on="1"/>
        <pt x="465" y="625" on="0"/>
        <pt x="566" y="593" on="0"/>
        <pt x="638" y="534" on="0"/>
        <pt x="676" y="450" on="0"/>
        <pt x="676" y="399" on="1"/>
        <pt x="676" y="306" on="0"/>
        <pt x="614" y="154" on="0"/>
        <pt x="501" y="45" on="0"/>
        <pt x="342" y="-14" on="0"/>
      </contour>
      <contour>
        <pt x="565" y="363" on="1"/>
        <pt x="565" y="467" on="0"/>
        <pt x="460" y="560" on="0"/>
        <pt x="352" y="560" on="1"/>
        <pt x="336" y="560" on="0"/>
        <pt x="308" y="558" on="0"/>
        <pt x="296" y="556" on="1"/>
        <pt x="258" y="551" on="0"/>
        <pt x="211" y="539" on="0"/>
        <pt x="184" y="518" on="0"/>
        <pt x="174" y="487" on="0"/>
        <pt x="174" y="463" on="1"/>
        <pt x="174" y="347" on="1"/>
        <pt x="348" y="347" on="1"/>
        <pt x="358" y="347" on="0"/>
        <pt x="374" y="330" on="0"/>
        <pt x="374" y="313" on="1"/>
        <pt x="374" y="296" on="0"/>
        <pt x="358" y="280" on="0"/>
        <pt x="348" y="280" on="1"/>
        <pt x="174" y="280" on="1"/>
        <pt x="174" y="99" on="1"/>
        <pt x="174" y="84" on="0"/>
        <pt x="180" y="66" on="0"/>
        <pt x="201" y="56" on="0"/>
        <pt x="241" y="52" on="0"/>
        <pt x="276" y="52" on="1"/>
        <pt x="340" y="52" on="0"/>
        <pt x="446" y="88" on="0"/>
        <pt x="522" y="163" on="0"/>
        <pt x="565" y="281" on="0"/>
      </contour>
    </TTGlyph>
    <TTGlyph name="Euro" xMin="30" yMin="-14" xMax="760" yMax="626">
      <contour>
        <pt x="248" y="348" on="1"/>
        <pt x="237" y="310" on="0"/>
        <pt x="234" y="274" on="1"/>
        <pt x="411" y="274" on="1"/>
        <pt x="423" y="274" on="0"/>
        <pt x="437" y="257" on="0"/>
        <pt x="437" y="244" on="1"/>
        <pt x="437" y="230" on="0"/>
        <pt x="423" y="214" on="0"/>
        <pt x="411" y="214" on="1"/>
        <pt x="233" y="214" on="1"/>
        <pt x="238" y="136" on="0"/>
        <pt x="313" y="55" on="0"/>
        <pt x="384" y="55" on="1"/>
        <pt x="419" y="55" on="0"/>
        <pt x="479" y="72" on="0"/>
        <pt x="531" y="100" on="0"/>
        <pt x="575" y="137" on="0"/>
        <pt x="593" y="158" on="1"/>
        <pt x="605" y="172" on="0"/>
        <pt x="628" y="186" on="0"/>
        <pt x="645" y="186" on="1"/>
        <pt x="661" y="186" on="0"/>
        <pt x="679" y="170" on="0"/>
        <pt x="679" y="156" on="1"/>
        <pt x="679" y="140" on="0"/>
        <pt x="664" y="124" on="1"/>
        <pt x="638" y="96" on="0"/>
        <pt x="568" y="46" on="0"/>
        <pt x="488" y="8" on="0"/>
        <pt x="401" y="-14" on="0"/>
        <pt x="358" y="-14" on="1"/>
        <pt x="292" y="-14" on="0"/>
        <pt x="200" y="17" on="0"/>
        <pt x="142" y="74" on="0"/>
        <pt x="115" y="154" on="0"/>
        <pt x="115" y="204" on="1"/>
        <pt x="115" y="214" on="1"/>
        <pt x="56" y="214" on="1"/>
        <pt x="44" y="214" on="0"/>
        <pt x="30" y="230" on="0"/>
        <pt x="30" y="244" on="1"/>
        <pt x="30" y="257" on="0"/>
        <pt x="44" y="274" on="0"/>
        <pt x="56" y="274" on="1"/>
        <pt x="121" y="274" on="1"/>
        <pt x="129" y="313" on="0"/>
        <pt x="142" y="348" on="1"/>
        <pt x="86" y="348" on="1"/>
        <pt x="74" y="348" on="0"/>
        <pt x="60" y="365" on="0"/>
        <pt x="60" y="378" on="1"/>
        <pt x="60" y="391" on="0"/>
        <pt x="74" y="408" on="0"/>
        <pt x="86" y="408" on="1"/>
        <pt x="170" y="408" on="1"/>
        <pt x="196" y="454" on="0"/>
        <pt x="270" y="534" on="0"/>
        <pt x="363" y="593" on="0"/>
        <pt x="472" y="626" on="0"/>
        <pt x="533" y="626" on="1"/>
        <pt x="616" y="626" on="0"/>
        <pt x="720" y="578" on="0"/>
        <pt x="747" y="543" on="1"/>
        <pt x="760" y="527" on="0"/>
        <pt x="760" y="505" on="1"/>
        <pt x="760" y="484" on="0"/>
        <pt x="726" y="454" on="0"/>
        <pt x="699" y="454" on="1"/>
        <pt x="685" y="454" on="0"/>
        <pt x="657" y="469" on="0"/>
        <pt x="646" y="482" on="1"/>
        <pt x="613" y="522" on="0"/>
        <pt x="539" y="557" on="0"/>
        <pt x="488" y="557" on="1"/>
        <pt x="419" y="557" on="0"/>
        <pt x="307" y="473" on="0"/>
        <pt x="273" y="408" on="1"/>
        <pt x="441" y="408" on="1"/>
        <pt x="453" y="408" on="0"/>
        <pt x="467" y="391" on="0"/>
        <pt x="467" y="378" on="1"/>
        <pt x="467" y="365" on="0"/>
        <pt x="453" y="348" on="0"/>
        <pt x="441" y="348" on="1"/>
      </contour>
    </TTGlyph>
    <TTGlyph name="F" xMin="70" yMin="-14" xMax="559" yMax="625">
      <contour>
        <pt x="70" y="421" on="1"/>
        <pt x="70" y="467" on="0"/>
        <pt x="83" y="531" on="0"/>
        <pt x="116" y="574" on="0"/>
        <pt x="171" y="599" on="0"/>
        <pt x="214" y="608" on="1"/>
        <pt x="232" y="612" on="0"/>
        <pt x="272" y="618" on="0"/>
        <pt x="310" y="622" on="0"/>
        <pt x="343" y="625" on="0"/>
        <pt x="353" y="625" on="1"/>
        <pt x="415" y="625" on="0"/>
        <pt x="495" y="614" on="0"/>
        <pt x="541" y="594" on="0"/>
        <pt x="559" y="566" on="0"/>
        <pt x="559" y="550" on="1"/>
        <pt x="559" y="527" on="0"/>
        <pt x="529" y="499" on="0"/>
        <pt x="509" y="499" on="1"/>
        <pt x="495" y="499" on="0"/>
        <pt x="466" y="510" on="0"/>
        <pt x="458" y="518" on="1"/>
        <pt x="447" y="528" on="0"/>
        <pt x="425" y="544" on="0"/>
        <pt x="394" y="555" on="0"/>
        <pt x="352" y="560" on="0"/>
        <pt x="323" y="560" on="1"/>
        <pt x="316" y="560" on="0"/>
        <pt x="295" y="558" on="0"/>
        <pt x="272" y="556" on="0"/>
        <pt x="252" y="552" on="0"/>
        <pt x="246" y="551" on="1"/>
        <pt x="222" y="545" on="0"/>
        <pt x="193" y="532" on="0"/>
        <pt x="178" y="508" on="0"/>
        <pt x="174" y="468" on="0"/>
        <pt x="174" y="435" on="1"/>
        <pt x="174" y="345" on="1"/>
        <pt x="389" y="345" on="1"/>
        <pt x="403" y="345" on="0"/>
        <pt x="419" y="327" on="0"/>
        <pt x="419" y="313" on="1"/>
        <pt x="419" y="299" on="0"/>
        <pt x="403" y="281" on="0"/>
        <pt x="389" y="281" on="1"/>
        <pt x="174" y="281" on="1"/>
        <pt x="174" y="28" on="1"/>
        <pt x="174" y="9" on="0"/>
        <pt x="148" y="-14" on="0"/>
        <pt x="122" y="-14" on="1"/>
        <pt x="96" y="-14" on="0"/>
        <pt x="70" y="9" on="0"/>
        <pt x="70" y="28" on="1"/>
      </contour>
    </TTGlyph>
    <TTGlyph name="G" xMin="40" yMin="-14" xMax="770" yMax="626">
      <contour>
        <pt x="40" y="210" on="1"/>
        <pt x="40" y="262" on="0"/>
        <pt x="74" y="364" on="0"/>
        <pt x="136" y="457" on="0"/>
        <pt x="224" y="535" on="0"/>
        <pt x="331" y="593" on="0"/>
        <pt x="456" y="626" on="0"/>
        <pt x="523" y="626" on="1"/>
        <pt x="614" y="626" on="0"/>
        <pt x="730" y="578" on="0"/>
        <pt x="757" y="543" on="1"/>
        <pt x="770" y="527" on="0"/>
        <pt x="770" y="505" on="1"/>
        <pt x="770" y="484" on="0"/>
        <pt x="736" y="454" on="0"/>
        <pt x="709" y="454" on="1"/>
        <pt x="695" y="454" on="0"/>
        <pt x="667" y="469" on="0"/>
        <pt x="656" y="482" on="1"/>
        <pt x="623" y="522" on="0"/>
        <pt x="536" y="557" on="0"/>
        <pt x="478" y="557" on="1"/>
        <pt x="410" y="557" on="0"/>
        <pt x="293" y="506" on="0"/>
        <pt x="207" y="419" on="0"/>
        <pt x="157" y="306" on="0"/>
        <pt x="157" y="244" on="1"/>
        <pt x="157" y="204" on="0"/>
        <pt x="188" y="136" on="0"/>
        <pt x="243" y="85" on="0"/>
        <pt x="320" y="56" on="0"/>
        <pt x="366" y="56" on="1"/>
        <pt x="426" y="56" on="0"/>
        <pt x="524" y="98" on="0"/>
        <pt x="593" y="153" on="0"/>
        <pt x="630" y="205" on="0"/>
        <pt x="630" y="215" on="1"/>
        <pt x="630" y="224" on="0"/>
        <pt x="617" y="224" on="1"/>
        <pt x="414" y="224" on="1"/>
        <pt x="388" y="224" on="0"/>
        <pt x="388" y="260" on="1"/>
        <pt x="388" y="294" on="0"/>
        <pt x="414" y="294" on="1"/>
        <pt x="671" y="294" on="1"/>
        <pt x="700" y="294" on="0"/>
        <pt x="725" y="270" on="0"/>
        <pt x="725" y="250" on="1"/>
        <pt x="725" y="229" on="0"/>
        <pt x="697" y="174" on="0"/>
        <pt x="648" y="115" on="0"/>
        <pt x="579" y="58" on="0"/>
        <pt x="497" y="13" on="0"/>
        <pt x="404" y="-14" on="0"/>
        <pt x="355" y="-14" on="1"/>
        <pt x="276" y="-14" on="0"/>
        <pt x="158" y="19" on="0"/>
        <pt x="79" y="79" on="0"/>
        <pt x="40" y="161" on="0"/>
      </contour>
    </TTGlyph>
    <TTGlyph name="H" xMin="70" yMin="-14" xMax="603" yMax="621">
      <contour>
        <pt x="603" y="28" on="1"/>
        <pt x="603" y="9" on="0"/>
        <pt x="577" y="-14" on="0"/>
        <pt x="551" y="-14" on="1"/>
        <pt x="525" y="-14" on="0"/>
        <pt x="499" y="9" on="0"/>
        <pt x="499" y="28" on="1"/>
        <pt x="499" y="298" on="1"/>
        <pt x="174" y="298" on="1"/>
        <pt x="174" y="28" on="1"/>
        <pt x="174" y="9" on="0"/>
        <pt x="148" y="-14" on="0"/>
        <pt x="122" y="-14" on="1"/>
        <pt x="96" y="-14" on="0"/>
        <pt x="70" y="9" on="0"/>
        <pt x="70" y="28" on="1"/>
        <pt x="70" y="579" on="1"/>
        <pt x="70" y="598" on="0"/>
        <pt x="96" y="621" on="0"/>
        <pt x="122" y="621" on="1"/>
        <pt x="148" y="621" on="0"/>
        <pt x="174" y="598" on="0"/>
        <pt x="174" y="579" on="1"/>
        <pt x="174" y="362" on="1"/>
        <pt x="499" y="362" on="1"/>
        <pt x="499" y="579" on="1"/>
        <pt x="499" y="598" on="0"/>
        <pt x="525" y="621" on="0"/>
        <pt x="551" y="621" on="1"/>
        <pt x="577" y="621" on="0"/>
        <pt x="603" y="598" on="0"/>
        <pt x="603" y="579" on="1"/>
      </contour>
    </TTGlyph>
    <TTGlyph name="I" xMin="65" yMin="-14" xMax="169" yMax="621">
      <contour>
        <pt x="169" y="28" on="1"/>
        <pt x="169" y="9" on="0"/>
        <pt x="143" y="-14" on="0"/>
        <pt x="117" y="-14" on="1"/>
        <pt x="91" y="-14" on="0"/>
        <pt x="65" y="9" on="0"/>
        <pt x="65" y="28" on="1"/>
        <pt x="65" y="579" on="1"/>
        <pt x="65" y="598" on="0"/>
        <pt x="91" y="621" on="0"/>
        <pt x="117" y="621" on="1"/>
        <pt x="143" y="621" on="0"/>
        <pt x="169" y="598" on="0"/>
        <pt x="169" y="579" on="1"/>
      </contour>
    </TTGlyph>
    <TTGlyph name="IJ" xMin="65" yMin="-14" xMax="738" yMax="621">
      <component glyphName="I" x="0" y="0" flags="0x4"/>
      <component glyphName="J" x="234" y="0" flags="0x4"/>
    </TTGlyph>
    <TTGlyph name="Iacute" xMin="50" yMin="-14" xMax="185" yMax="821">
      <component glyphName="I" x="0" y="0" flags="0x204"/>
      <component glyphName="acute" x="30" y="200" flags="0x4"/>
    </TTGlyph>
    <TTGlyph name="Icircumflex" xMin="-7" yMin="-14" xMax="246" yMax="821">
      <component glyphName="I" x="0" y="0" flags="0x204"/>
      <component glyphName="circumflex" x="-27" y="200" flags="0x4"/>
    </TTGlyph>
    <TTGlyph name="Idieresis" xMin="-19" yMin="-14" xMax="257" yMax="813">
      <component glyphName="I" x="0" y="0" flags="0x204"/>
      <component glyphName="dieresis" x="-39" y="200" flags="0x4"/>
    </TTGlyph>
    <TTGlyph name="Igrave" xMin="50" yMin="-14" xMax="185" yMax="821">
      <component glyphName="I" x="0" y="0" flags="0x204"/>
      <component glyphName="grave" x="30" y="200" flags="0x4"/>
    </TTGlyph>
    <TTGlyph name="Itilde" xMin="-24" yMin="-14" xMax="261" yMax="812">
      <component glyphName="I" x="0" y="0" flags="0x204"/>
      <component glyphName="tilde" x="-44" y="200" flags="0x4"/>
    </TTGlyph>
    <TTGlyph name="J" xMin="10" yMin="-14" xMax="504" yMax="621">
      <contour>
        <pt x="400" y="579" on="1"/>
        <pt x="400" y="598" on="0"/>
        <pt x="426" y="621" on="0"/>
        <pt x="452" y="621" on="1"/>
        <pt x="478" y="621" on="0"/>
        <pt x="504" y="598" on="0"/>
        <pt x="504" y="579" on="1"/>
        <pt x="504" y="284" on="1"/>
        <pt x="504" y="229" on="0"/>
        <pt x="460" y="122" on="0"/>
        <pt x="376" y="38" on="0"/>
        <pt x="255" y="-14" on="0"/>
        <pt x="179" y="-14" on="1"/>
        <pt x="141" y="-14" on="0"/>
        <pt x="79" y="6" on="0"/>
        <pt x="34" y="40" on="0"/>
        <pt x="10" y="86" on="0"/>
        <pt x="10" y="113" on="1"/>
        <pt x="10" y="144" on="0"/>
        <pt x="44" y="183" on="0"/>
        <pt x="70" y="183" on="1"/>
        <pt x="116" y="183" on="0"/>
        <pt x="116" y="143" on="1"/>
        <pt x="117" y="94" on="0"/>
        <pt x="168" y="48" on="0"/>
        <pt x="215" y="48" on="1"/>
        <pt x="260" y="48" on="0"/>
        <pt x="329" y="82" on="0"/>
        <pt x="376" y="139" on="0"/>
        <pt x="400" y="216" on="0"/>
        <pt x="400" y="259" on="1"/>
      </contour>
    </TTGlyph>
    <TTGlyph name="Jcircumflex" xMin="10" yMin="-14" xMax="567" yMax="821">
      <component glyphName="J" x="0" y="0" flags="0x204"/>
      <component glyphName="circumflex" x="294" y="200" flags="0x4"/>
    </TTGlyph>
    <TTGlyph name="K" xMin="70" yMin="-14" xMax="559" yMax="621">
      <contour>
        <pt x="174" y="331" on="1"/>
        <pt x="194" y="397" on="0"/>
        <pt x="259" y="505" on="0"/>
        <pt x="338" y="580" on="0"/>
        <pt x="426" y="621" on="0"/>
        <pt x="469" y="621" on="1"/>
        <pt x="516" y="621" on="0"/>
        <pt x="559" y="594" on="0"/>
        <pt x="559" y="570" on="1"/>
        <pt x="559" y="546" on="0"/>
        <pt x="538" y="520" on="0"/>
        <pt x="524" y="520" on="1"/>
        <pt x="515" y="520" on="0"/>
        <pt x="504" y="523" on="0"/>
        <pt x="497" y="526" on="1"/>
        <pt x="477" y="535" on="0"/>
        <pt x="447" y="542" on="0"/>
        <pt x="427" y="542" on="1"/>
        <pt x="394" y="542" on="0"/>
        <pt x="326" y="498" on="0"/>
        <pt x="271" y="432" on="0"/>
        <pt x="236" y="353" on="0"/>
        <pt x="236" y="318" on="1"/>
        <pt x="236" y="280" on="0"/>
        <pt x="280" y="202" on="0"/>
        <pt x="355" y="134" on="0"/>
        <pt x="455" y="84" on="0"/>
        <pt x="511" y="74" on="1"/>
        <pt x="537" y="69" on="0"/>
        <pt x="556" y="50" on="0"/>
        <pt x="556" y="30" on="1"/>
        <pt x="556" y="12" on="0"/>
        <pt x="528" y="-12" on="0"/>
        <pt x="502" y="-12" on="1"/>
        <pt x="445" y="-12" on="0"/>
        <pt x="337" y="39" on="0"/>
        <pt x="249" y="129" on="0"/>
        <pt x="186" y="251" on="0"/>
        <pt x="174" y="322" on="1"/>
        <pt x="174" y="28" on="1"/>
        <pt x="174" y="9" on="0"/>
        <pt x="148" y="-14" on="0"/>
        <pt x="122" y="-14" on="1"/>
        <pt x="96" y="-14" on="0"/>
        <pt x="70" y="9" on="0"/>
        <pt x="70" y="28" on="1"/>
        <pt x="70" y="579" on="1"/>
        <pt x="70" y="598" on="0"/>
        <pt x="96" y="621" on="0"/>
        <pt x="122" y="621" on="1"/>
        <pt x="148" y="621" on="0"/>
        <pt x="174" y="598" on="0"/>
        <pt x="174" y="579" on="1"/>
      </contour>
    </TTGlyph>
    <TTGlyph name="L" xMin="60" yMin="0" xMax="459" yMax="621">
      <contour>
        <pt x="433" y="64" on="1"/>
        <pt x="445" y="64" on="0"/>
        <pt x="459" y="46" on="0"/>
        <pt x="459" y="32" on="1"/>
        <pt x="459" y="18" on="0"/>
        <pt x="445" y="0" on="0"/>
        <pt x="433" y="0" on="1"/>
        <pt x="211" y="0" on="1"/>
        <pt x="130" y="0" on="0"/>
        <pt x="60" y="77" on="0"/>
        <pt x="60" y="140" on="1"/>
        <pt x="60" y="166" on="0"/>
        <pt x="69" y="221" on="0"/>
        <pt x="69" y="247" on="1"/>
        <pt x="69" y="583" on="1"/>
        <pt x="69" y="600" on="0"/>
        <pt x="96" y="621" on="0"/>
        <pt x="121" y="621" on="1"/>
        <pt x="147" y="621" on="0"/>
        <pt x="173" y="600" on="0"/>
        <pt x="173" y="583" on="1"/>
        <pt x="173" y="207" on="1"/>
        <pt x="173" y="164" on="0"/>
        <pt x="178" y="108" on="0"/>
        <pt x="197" y="76" on="0"/>
        <pt x="235" y="64" on="0"/>
        <pt x="267" y="64" on="1"/>
      </contour>
    </TTGlyph>
    <TTGlyph name="Ldotaccent" xMin="60" yMin="0" xMax="459" yMax="621">
      <component glyphName="L" x="0" y="0" flags="0x204"/>
      <component glyphName="dotaccentcmb" x="235" y="-107" flags="0x4"/>
    </TTGlyph>
    <TTGlyph name="Lslash" xMin="6" yMin="0" xMax="459" yMax="621">
      <contour>
        <pt x="433" y="64" on="1"/>
        <pt x="445" y="64" on="0"/>
        <pt x="459" y="46" on="0"/>
        <pt x="459" y="32" on="1"/>
        <pt x="459" y="18" on="0"/>
        <pt x="445" y="0" on="0"/>
        <pt x="433" y="0" on="1"/>
        <pt x="211" y="0" on="1"/>
        <pt x="130" y="0" on="0"/>
        <pt x="60" y="77" on="0"/>
        <pt x="60" y="140" on="1"/>
        <pt x="60" y="166" on="0"/>
        <pt x="69" y="221" on="0"/>
        <pt x="69" y="247" on="1"/>
        <pt x="69" y="285" on="1"/>
        <pt x="42" y="279" on="1"/>
        <pt x="39" y="278" on="0"/>
        <pt x="34" y="278" on="1"/>
        <pt x="12" y="278" on="0"/>
        <pt x="7" y="304" on="1"/>
        <pt x="6" y="307" on="0"/>
        <pt x="6" y="313" on="1"/>
        <pt x="6" y="335" on="0"/>
        <pt x="28" y="340" on="1"/>
        <pt x="69" y="349" on="1"/>
        <pt x="69" y="583" on="1"/>
        <pt x="69" y="600" on="0"/>
        <pt x="96" y="621" on="0"/>
        <pt x="121" y="621" on="1"/>
        <pt x="147" y="621" on="0"/>
        <pt x="173" y="600" on="0"/>
        <pt x="173" y="583" on="1"/>
        <pt x="173" y="371" on="1"/>
        <pt x="293" y="398" on="1"/>
        <pt x="296" y="399" on="0"/>
        <pt x="301" y="399" on="1"/>
        <pt x="322" y="399" on="0"/>
        <pt x="327" y="375" on="1"/>
        <pt x="328" y="371" on="0"/>
        <pt x="328" y="365" on="1"/>
        <pt x="328" y="354" on="0"/>
        <pt x="317" y="339" on="0"/>
        <pt x="306" y="337" on="1"/>
        <pt x="173" y="308" on="1"/>
        <pt x="173" y="207" on="1"/>
        <pt x="173" y="164" on="0"/>
        <pt x="178" y="108" on="0"/>
        <pt x="197" y="76" on="0"/>
        <pt x="235" y="64" on="0"/>
        <pt x="267" y="64" on="1"/>
      </contour>
    </TTGlyph>
    <TTGlyph name="M" xMin="70" yMin="-14" xMax="614" yMax="621">
      <contour>
        <pt x="174" y="496" on="1"/>
        <pt x="179" y="459" on="0"/>
        <pt x="212" y="377" on="0"/>
        <pt x="259" y="308" on="0"/>
        <pt x="315" y="262" on="0"/>
        <pt x="342" y="262" on="1"/>
        <pt x="375" y="262" on="0"/>
        <pt x="436" y="316" on="0"/>
        <pt x="483" y="396" on="0"/>
        <pt x="510" y="489" on="0"/>
        <pt x="510" y="528" on="1"/>
        <pt x="510" y="579" on="1"/>
        <pt x="510" y="598" on="0"/>
        <pt x="536" y="621" on="0"/>
        <pt x="562" y="621" on="1"/>
        <pt x="588" y="621" on="0"/>
        <pt x="614" y="598" on="0"/>
        <pt x="614" y="579" on="1"/>
        <pt x="614" y="28" on="1"/>
        <pt x="614" y="9" on="0"/>
        <pt x="588" y="-14" on="0"/>
        <pt x="562" y="-14" on="1"/>
        <pt x="536" y="-14" on="0"/>
        <pt x="510" y="9" on="0"/>
        <pt x="510" y="28" on="1"/>
        <pt x="510" y="353" on="1"/>
        <pt x="497" y="319" on="0"/>
        <pt x="464" y="260" on="0"/>
        <pt x="422" y="216" on="0"/>
        <pt x="371" y="191" on="0"/>
        <pt x="340" y="191" on="1"/>
        <pt x="299" y="191" on="0"/>
        <pt x="242" y="219" on="0"/>
        <pt x="203" y="259" on="0"/>
        <pt x="180" y="304" on="0"/>
        <pt x="174" y="321" on="1"/>
        <pt x="174" y="28" on="1"/>
        <pt x="174" y="9" on="0"/>
        <pt x="148" y="-14" on="0"/>
        <pt x="122" y="-14" on="1"/>
        <pt x="96" y="-14" on="0"/>
        <pt x="70" y="9" on="0"/>
        <pt x="70" y="28" on="1"/>
        <pt x="70" y="579" on="1"/>
        <pt x="70" y="598" on="0"/>
        <pt x="96" y="621" on="0"/>
        <pt x="122" y="621" on="1"/>
        <pt x="148" y="621" on="0"/>
        <pt x="174" y="598" on="0"/>
        <pt x="174" y="579" on="1"/>
      </contour>
    </TTGlyph>
    <TTGlyph name="N" xMin="70" yMin="-14" xMax="684" yMax="625">
      <contour>
        <pt x="175" y="524" on="1"/>
        <pt x="176" y="418" on="0"/>
        <pt x="216" y="245" on="0"/>
        <pt x="282" y="121" on="0"/>
        <pt x="370" y="53" on="0"/>
        <pt x="419" y="53" on="1"/>
        <pt x="455" y="53" on="0"/>
        <pt x="514" y="78" on="0"/>
        <pt x="557" y="130" on="0"/>
        <pt x="580" y="212" on="0"/>
        <pt x="580" y="268" on="1"/>
        <pt x="580" y="331" on="0"/>
        <pt x="538" y="464" on="0"/>
        <pt x="496" y="528" on="1"/>
        <pt x="482" y="550" on="0"/>
        <pt x="472" y="575" on="0"/>
        <pt x="472" y="584" on="1"/>
        <pt x="472" y="601" on="0"/>
        <pt x="506" y="625" on="0"/>
        <pt x="527" y="625" on="1"/>
        <pt x="546" y="625" on="0"/>
        <pt x="576" y="605" on="0"/>
        <pt x="602" y="573" on="1"/>
        <pt x="640" y="522" on="0"/>
        <pt x="684" y="378" on="0"/>
        <pt x="684" y="293" on="1"/>
        <pt x="684" y="230" on="0"/>
        <pt x="642" y="118" on="0"/>
        <pt x="569" y="35" on="0"/>
        <pt x="469" y="-14" on="0"/>
        <pt x="411" y="-14" on="1"/>
        <pt x="317" y="-14" on="0"/>
        <pt x="190" y="113" on="0"/>
        <pt x="170" y="229" on="1"/>
        <pt x="170" y="28" on="1"/>
        <pt x="170" y="9" on="0"/>
        <pt x="144" y="-14" on="0"/>
        <pt x="120" y="-14" on="1"/>
        <pt x="96" y="-14" on="0"/>
        <pt x="70" y="9" on="0"/>
        <pt x="70" y="28" on="1"/>
        <pt x="70" y="579" on="1"/>
        <pt x="70" y="598" on="0"/>
        <pt x="96" y="621" on="0"/>
        <pt x="122" y="621" on="1"/>
        <pt x="148" y="621" on="0"/>
        <pt x="174" y="598" on="0"/>
        <pt x="174" y="579" on="1"/>
      </contour>
    </TTGlyph>
    <TTGlyph name="Nacute" xMin="70" yMin="-14" xMax="684" yMax="821">
      <component glyphName="N" x="0" y="0" flags="0x204"/>
      <component glyphName="acute" x="275" y="200" flags="0x4"/>
    </TTGlyph>
    <TTGlyph name="Ntilde" xMin="70" yMin="-14" xMax="684" yMax="812">
      <component glyphName="N" x="0" y="0" flags="0x204"/>
      <component glyphName="tilde" x="182" y="200" flags="0x4"/>
    </TTGlyph>
    <TTGlyph name="O" xMin="40" yMin="-14" xMax="811" yMax="626">
      <contour>
        <pt x="513" y="626" on="1"/>
        <pt x="580" y="626" on="0"/>
        <pt x="690" y="593" on="0"/>
        <pt x="768" y="533" on="0"/>
        <pt x="811" y="449" on="0"/>
        <pt x="811" y="399" on="1"/>
        <pt x="811" y="351" on="0"/>
        <pt x="778" y="253" on="0"/>
        <pt x="718" y="161" on="0"/>
        <pt x="632" y="81" on="0"/>
        <pt x="526" y="21" on="0"/>
        <pt x="403" y="-14" on="0"/>
        <pt x="336" y="-14" on="1"/>
        <pt x="266" y="-14" on="0"/>
        <pt x="156" y="18" on="0"/>
        <pt x="80" y="78" on="0"/>
        <pt x="40" y="163" on="0"/>
        <pt x="40" y="215" on="1"/>
        <pt x="40" y="297" on="0"/>
        <pt x="118" y="446" on="0"/>
        <pt x="249" y="559" on="0"/>
        <pt x="420" y="626" on="0"/>
      </contour>
      <contour>
        <pt x="473" y="557" on="1"/>
        <pt x="408" y="557" on="0"/>
        <pt x="293" y="509" on="0"/>
        <pt x="207" y="426" on="0"/>
        <pt x="158" y="313" on="0"/>
        <pt x="158" y="249" on="1"/>
        <pt x="158" y="202" on="0"/>
        <pt x="188" y="130" on="0"/>
        <pt x="243" y="81" on="0"/>
        <pt x="321" y="55" on="0"/>
        <pt x="368" y="55" on="1"/>
        <pt x="440" y="55" on="0"/>
        <pt x="560" y="107" on="0"/>
        <pt x="647" y="193" on="0"/>
        <pt x="695" y="301" on="0"/>
        <pt x="695" y="358" on="1"/>
        <pt x="695" y="403" on="0"/>
        <pt x="662" y="477" on="0"/>
        <pt x="603" y="529" on="0"/>
        <pt x="522" y="557" on="0"/>
      </contour>
    </TTGlyph>
    <TTGlyph name="OE" xMin="40" yMin="-14" xMax="1000" yMax="625">
      <contour>
        <pt x="952" y="106" on="1"/>
        <pt x="982" y="106" on="0"/>
        <pt x="982" y="77" on="1"/>
        <pt x="982" y="63" on="0"/>
        <pt x="968" y="45" on="0"/>
        <pt x="950" y="35" on="1"/>
        <pt x="933" y="26" on="0"/>
        <pt x="879" y="8" on="0"/>
        <pt x="808" y="-5" on="0"/>
        <pt x="726" y="-14" on="0"/>
        <pt x="682" y="-14" on="1"/>
        <pt x="644" y="-14" on="0"/>
        <pt x="589" y="-10" on="0"/>
        <pt x="551" y="-1" on="0"/>
        <pt x="528" y="12" on="0"/>
        <pt x="522" y="22" on="1"/>
        <pt x="479" y="5" on="0"/>
        <pt x="386" y="-14" on="0"/>
        <pt x="336" y="-14" on="1"/>
        <pt x="266" y="-14" on="0"/>
        <pt x="156" y="18" on="0"/>
        <pt x="80" y="78" on="0"/>
        <pt x="40" y="163" on="0"/>
        <pt x="40" y="215" on="1"/>
        <pt x="40" y="297" on="0"/>
        <pt x="118" y="445" on="0"/>
        <pt x="249" y="557" on="0"/>
        <pt x="420" y="623" on="0"/>
        <pt x="513" y="623" on="1"/>
        <pt x="549" y="623" on="0"/>
        <pt x="616" y="615" on="0"/>
        <pt x="645" y="606" on="1"/>
        <pt x="655" y="608" on="1"/>
        <pt x="673" y="612" on="0"/>
        <pt x="713" y="618" on="0"/>
        <pt x="751" y="622" on="0"/>
        <pt x="784" y="625" on="0"/>
        <pt x="794" y="625" on="1"/>
        <pt x="856" y="625" on="0"/>
        <pt x="936" y="614" on="0"/>
        <pt x="982" y="594" on="0"/>
        <pt x="1000" y="566" on="0"/>
        <pt x="1000" y="550" on="1"/>
        <pt x="1000" y="527" on="0"/>
        <pt x="970" y="499" on="0"/>
        <pt x="950" y="499" on="1"/>
        <pt x="936" y="499" on="0"/>
        <pt x="907" y="510" on="0"/>
        <pt x="899" y="518" on="1"/>
        <pt x="888" y="528" on="0"/>
        <pt x="866" y="544" on="0"/>
        <pt x="835" y="555" on="0"/>
        <pt x="793" y="560" on="0"/>
        <pt x="764" y="560" on="1"/>
        <pt x="757" y="560" on="0"/>
        <pt x="736" y="558" on="0"/>
        <pt x="713" y="556" on="0"/>
        <pt x="693" y="552" on="0"/>
        <pt x="687" y="551" on="1"/>
        <pt x="663" y="545" on="0"/>
        <pt x="634" y="532" on="0"/>
        <pt x="619" y="508" on="0"/>
        <pt x="615" y="468" on="0"/>
        <pt x="615" y="435" on="1"/>
        <pt x="615" y="345" on="1"/>
        <pt x="830" y="345" on="1"/>
        <pt x="844" y="345" on="0"/>
        <pt x="860" y="327" on="0"/>
        <pt x="860" y="313" on="1"/>
        <pt x="860" y="299" on="0"/>
        <pt x="844" y="281" on="0"/>
        <pt x="830" y="281" on="1"/>
        <pt x="615" y="281" on="1"/>
        <pt x="615" y="101" on="1"/>
        <pt x="615" y="84" on="0"/>
        <pt x="620" y="65" on="0"/>
        <pt x="636" y="55" on="0"/>
        <pt x="669" y="52" on="0"/>
        <pt x="696" y="52" on="1"/>
        <pt x="739" y="52" on="0"/>
        <pt x="808" y="59" on="0"/>
        <pt x="863" y="72" on="0"/>
        <pt x="909" y="89" on="0"/>
        <pt x="929" y="99" on="1"/>
        <pt x="942" y="106" on="0"/>
      </contour>
      <contour>
        <pt x="368" y="55" on="1"/>
        <pt x="407" y="55" on="0"/>
        <pt x="479" y="70" on="0"/>
        <pt x="511" y="81" on="1"/>
        <pt x="511" y="401" on="1"/>
        <pt x="511" y="450" on="0"/>
        <pt x="525" y="521" on="0"/>
        <pt x="543" y="547" on="1"/>
        <pt x="512" y="554" on="0"/>
        <pt x="473" y="554" on="1"/>
        <pt x="408" y="554" on="0"/>
        <pt x="293" y="507" on="0"/>
        <pt x="207" y="425" on="0"/>
        <pt x="158" y="313" on="0"/>
        <pt x="158" y="249" on="1"/>
        <pt x="158" y="202" on="0"/>
        <pt x="188" y="130" on="0"/>
        <pt x="243" y="81" on="0"/>
        <pt x="321" y="55" on="0"/>
      </contour>
    </TTGlyph>
    <TTGlyph name="Oacute" xMin="40" yMin="-14" xMax="811" yMax="821">
      <component glyphName="O" x="0" y="0" flags="0x204"/>
      <component glyphName="acute" x="353" y="200" flags="0x4"/>
    </TTGlyph>
    <TTGlyph name="Ocircumflex" xMin="40" yMin="-14" xMax="811" yMax="821">
      <component glyphName="O" x="0" y="0" flags="0x204"/>
      <component glyphName="circumflex" x="281" y="200" flags="0x4"/>
    </TTGlyph>
    <TTGlyph name="Odieresis" xMin="40" yMin="-14" xMax="811" yMax="813">
      <component glyphName="O" x="0" y="0" flags="0x204"/>
      <component glyphName="dieresis" x="271" y="200" flags="0x4"/>
    </TTGlyph>
    <TTGlyph name="Ograve" xMin="40" yMin="-14" xMax="811" yMax="821">
      <component glyphName="O" x="0" y="0" flags="0x204"/>
      <component glyphName="grave" x="336" y="200" flags="0x4"/>
    </TTGlyph>
    <TTGlyph name="Oslash" xMin="40" yMin="-51" xMax="811" yMax="663">
      <contour>
        <pt x="513" y="626" on="1"/>
        <pt x="548" y="626" on="0"/>
        <pt x="613" y="616" on="0"/>
        <pt x="642" y="607" on="1"/>
        <pt x="683" y="650" on="1"/>
        <pt x="696" y="663" on="0"/>
        <pt x="712" y="663" on="1"/>
        <pt x="732" y="663" on="0"/>
        <pt x="750" y="644" on="1"/>
        <pt x="770" y="625" on="0"/>
        <pt x="770" y="605" on="1"/>
        <pt x="770" y="591" on="0"/>
        <pt x="759" y="578" on="1"/>
        <pt x="737" y="555" on="1"/>
        <pt x="772" y="526" on="0"/>
        <pt x="811" y="447" on="0"/>
        <pt x="811" y="399" on="1"/>
        <pt x="811" y="351" on="0"/>
        <pt x="778" y="253" on="0"/>
        <pt x="718" y="161" on="0"/>
        <pt x="632" y="81" on="0"/>
        <pt x="526" y="21" on="0"/>
        <pt x="403" y="-14" on="0"/>
        <pt x="336" y="-14" on="1"/>
        <pt x="266" y="-14" on="0"/>
        <pt x="207" y="3" on="1"/>
        <pt x="168" y="-38" on="1"/>
        <pt x="155" y="-51" on="0"/>
        <pt x="140" y="-51" on="1"/>
        <pt x="121" y="-51" on="0"/>
        <pt x="101" y="-32" on="1"/>
        <pt x="81" y="-13" on="0"/>
        <pt x="81" y="7" on="1"/>
        <pt x="81" y="22" on="0"/>
        <pt x="93" y="34" on="1"/>
        <pt x="112" y="53" on="1"/>
        <pt x="40" y="114" on="0"/>
        <pt x="40" y="215" on="1"/>
        <pt x="40" y="297" on="0"/>
        <pt x="118" y="446" on="0"/>
        <pt x="249" y="559" on="0"/>
        <pt x="420" y="626" on="0"/>
      </contour>
      <contour>
        <pt x="473" y="557" on="1"/>
        <pt x="408" y="557" on="0"/>
        <pt x="293" y="509" on="0"/>
        <pt x="207" y="426" on="0"/>
        <pt x="158" y="313" on="0"/>
        <pt x="158" y="249" on="1"/>
        <pt x="158" y="175" on="0"/>
        <pt x="196" y="126" on="1"/>
        <pt x="587" y="533" on="1"/>
        <pt x="562" y="544" on="0"/>
        <pt x="505" y="557" on="0"/>
      </contour>
      <contour>
        <pt x="695" y="358" on="1"/>
        <pt x="695" y="395" on="0"/>
        <pt x="672" y="458" on="0"/>
        <pt x="652" y="483" on="1"/>
        <pt x="261" y="76" on="1"/>
        <pt x="307" y="55" on="0"/>
        <pt x="368" y="55" on="1"/>
        <pt x="440" y="55" on="0"/>
        <pt x="560" y="107" on="0"/>
        <pt x="647" y="193" on="0"/>
        <pt x="695" y="301" on="0"/>
      </contour>
    </TTGlyph>
    <TTGlyph name="Otilde" xMin="40" yMin="-14" xMax="811" yMax="812">
      <component glyphName="O" x="0" y="0" flags="0x204"/>
      <component glyphName="tilde" x="266" y="200" flags="0x4"/>
    </TTGlyph>
    <TTGlyph name="P" xMin="70" yMin="-10" xMax="583" yMax="626">
      <contour>
        <pt x="174" y="28" on="1"/>
        <pt x="174" y="11" on="0"/>
        <pt x="148" y="-10" on="0"/>
        <pt x="123" y="-10" on="1"/>
        <pt x="98" y="-10" on="0"/>
        <pt x="70" y="11" on="0"/>
        <pt x="70" y="28" on="1"/>
        <pt x="70" y="461" on="1"/>
        <pt x="70" y="491" on="0"/>
        <pt x="78" y="535" on="0"/>
        <pt x="103" y="567" on="0"/>
        <pt x="150" y="591" on="0"/>
        <pt x="188" y="602" on="1"/>
        <pt x="203" y="606" on="0"/>
        <pt x="246" y="615" on="0"/>
        <pt x="292" y="622" on="0"/>
        <pt x="335" y="626" on="0"/>
        <pt x="352" y="626" on="1"/>
        <pt x="471" y="626" on="0"/>
        <pt x="583" y="542" on="0"/>
        <pt x="583" y="476" on="1"/>
        <pt x="583" y="429" on="0"/>
        <pt x="540" y="341" on="0"/>
        <pt x="458" y="273" on="0"/>
        <pt x="338" y="231" on="0"/>
        <pt x="262" y="231" on="1"/>
        <pt x="243" y="231" on="0"/>
        <pt x="196" y="235" on="0"/>
        <pt x="174" y="239" on="1"/>
      </contour>
      <contour>
        <pt x="174" y="293" on="1"/>
        <pt x="191" y="290" on="0"/>
        <pt x="238" y="287" on="0"/>
        <pt x="261" y="287" on="1"/>
        <pt x="375" y="287" on="0"/>
        <pt x="478" y="379" on="0"/>
        <pt x="478" y="458" on="1"/>
        <pt x="478" y="512" on="0"/>
        <pt x="402" y="569" on="0"/>
        <pt x="331" y="569" on="1"/>
        <pt x="311" y="569" on="0"/>
        <pt x="266" y="564" on="0"/>
        <pt x="250" y="560" on="1"/>
        <pt x="224" y="554" on="0"/>
        <pt x="193" y="541" on="0"/>
        <pt x="178" y="520" on="0"/>
        <pt x="174" y="487" on="0"/>
        <pt x="174" y="459" on="1"/>
      </contour>
    </TTGlyph>
    <TTGlyph name="Q" xMin="40" yMin="-45" xMax="811" yMax="626">
      <contour>
        <pt x="564" y="42" on="1"/>
        <pt x="513" y="16" on="0"/>
        <pt x="399" y="-14" on="0"/>
        <pt x="336" y="-14" on="1"/>
        <pt x="266" y="-14" on="0"/>
        <pt x="156" y="18" on="0"/>
        <pt x="80" y="78" on="0"/>
        <pt x="40" y="163" on="0"/>
        <pt x="40" y="215" on="1"/>
        <pt x="40" y="297" on="0"/>
        <pt x="118" y="446" on="0"/>
        <pt x="249" y="559" on="0"/>
        <pt x="420" y="626" on="0"/>
        <pt x="513" y="626" on="1"/>
        <pt x="580" y="626" on="0"/>
        <pt x="690" y="593" on="0"/>
        <pt x="768" y="533" on="0"/>
        <pt x="811" y="449" on="0"/>
        <pt x="811" y="399" on="1"/>
        <pt x="811" y="320" on="0"/>
        <pt x="725" y="161" on="0"/>
        <pt x="650" y="99" on="1"/>
        <pt x="750" y="47" on="1"/>
        <pt x="763" y="40" on="0"/>
        <pt x="774" y="21" on="0"/>
        <pt x="774" y="10" on="1"/>
        <pt x="774" y="-10" on="0"/>
        <pt x="742" y="-45" on="0"/>
        <pt x="720" y="-45" on="1"/>
        <pt x="708" y="-45" on="0"/>
        <pt x="694" y="-37" on="1"/>
      </contour>
      <contour>
        <pt x="473" y="557" on="1"/>
        <pt x="408" y="557" on="0"/>
        <pt x="293" y="509" on="0"/>
        <pt x="207" y="426" on="0"/>
        <pt x="158" y="313" on="0"/>
        <pt x="158" y="249" on="1"/>
        <pt x="158" y="202" on="0"/>
        <pt x="188" y="130" on="0"/>
        <pt x="243" y="81" on="0"/>
        <pt x="321" y="55" on="0"/>
        <pt x="368" y="55" on="1"/>
        <pt x="439" y="55" on="0"/>
        <pt x="500" y="81" on="1"/>
        <pt x="412" y="136" on="1"/>
        <pt x="399" y="145" on="0"/>
        <pt x="399" y="160" on="1"/>
        <pt x="399" y="176" on="0"/>
        <pt x="424" y="206" on="0"/>
        <pt x="441" y="206" on="1"/>
        <pt x="450" y="206" on="0"/>
        <pt x="457" y="202" on="1"/>
        <pt x="585" y="134" on="1"/>
        <pt x="637" y="178" on="0"/>
        <pt x="695" y="295" on="0"/>
        <pt x="695" y="358" on="1"/>
        <pt x="695" y="403" on="0"/>
        <pt x="662" y="477" on="0"/>
        <pt x="603" y="529" on="0"/>
        <pt x="522" y="557" on="0"/>
      </contour>
    </TTGlyph>
    <TTGlyph name="R" xMin="70" yMin="-12" xMax="599" yMax="626">
      <contour>
        <pt x="174" y="28" on="1"/>
        <pt x="174" y="11" on="0"/>
        <pt x="148" y="-10" on="0"/>
        <pt x="123" y="-10" on="1"/>
        <pt x="98" y="-10" on="0"/>
        <pt x="70" y="11" on="0"/>
        <pt x="70" y="28" on="1"/>
        <pt x="70" y="461" on="1"/>
        <pt x="70" y="491" on="0"/>
        <pt x="78" y="535" on="0"/>
        <pt x="103" y="567" on="0"/>
        <pt x="150" y="591" on="0"/>
        <pt x="188" y="602" on="1"/>
        <pt x="203" y="606" on="0"/>
        <pt x="246" y="615" on="0"/>
        <pt x="292" y="622" on="0"/>
        <pt x="335" y="626" on="0"/>
        <pt x="352" y="626" on="1"/>
        <pt x="471" y="626" on="0"/>
        <pt x="583" y="542" on="0"/>
        <pt x="583" y="476" on="1"/>
        <pt x="583" y="441" on="0"/>
        <pt x="556" y="377" on="0"/>
        <pt x="505" y="324" on="0"/>
        <pt x="431" y="286" on="0"/>
        <pt x="383" y="277" on="1"/>
        <pt x="426" y="270" on="0"/>
        <pt x="504" y="221" on="0"/>
        <pt x="564" y="152" on="0"/>
        <pt x="599" y="70" on="0"/>
        <pt x="599" y="30" on="1"/>
        <pt x="599" y="10" on="0"/>
        <pt x="572" y="-12" on="0"/>
        <pt x="546" y="-12" on="1"/>
        <pt x="520" y="-12" on="0"/>
        <pt x="496" y="10" on="0"/>
        <pt x="494" y="29" on="1"/>
        <pt x="490" y="78" on="0"/>
        <pt x="449" y="159" on="0"/>
        <pt x="389" y="218" on="0"/>
        <pt x="314" y="251" on="0"/>
        <pt x="277" y="251" on="1"/>
        <pt x="257" y="251" on="1"/>
        <pt x="238" y="251" on="0"/>
        <pt x="194" y="254" on="0"/>
        <pt x="174" y="257" on="1"/>
      </contour>
      <contour>
        <pt x="174" y="311" on="1"/>
        <pt x="191" y="308" on="0"/>
        <pt x="238" y="307" on="0"/>
        <pt x="261" y="307" on="1"/>
        <pt x="375" y="307" on="0"/>
        <pt x="478" y="387" on="0"/>
        <pt x="478" y="458" on="1"/>
        <pt x="478" y="509" on="0"/>
        <pt x="405" y="569" on="0"/>
        <pt x="331" y="569" on="1"/>
        <pt x="311" y="569" on="0"/>
        <pt x="266" y="564" on="0"/>
        <pt x="250" y="560" on="1"/>
        <pt x="224" y="554" on="0"/>
        <pt x="193" y="541" on="0"/>
        <pt x="178" y="520" on="0"/>
        <pt x="174" y="487" on="0"/>
        <pt x="174" y="459" on="1"/>
      </contour>
    </TTGlyph>
    <TTGlyph name="Racute" xMin="70" yMin="-12" xMax="599" yMax="821">
      <component glyphName="R" x="0" y="0" flags="0x204"/>
      <component glyphName="acute" x="240" y="200" flags="0x4"/>
    </TTGlyph>
    <TTGlyph name="Rcaron" xMin="70" yMin="-12" xMax="599" yMax="821">
      <component glyphName="R" x="0" y="0" flags="0x204"/>
      <component glyphName="caron" x="173" y="200" flags="0x4"/>
    </TTGlyph>
    <TTGlyph name="Rcommaaccent" xMin="70" yMin="-307" xMax="599" yMax="626">
      <component glyphName="R" x="0" y="0" flags="0x204"/>
      <component glyphName="commaaccent" x="254" y="-210" flags="0x4"/>
    </TTGlyph>
    <TTGlyph name="S" xMin="31" yMin="-14" xMax="666" yMax="626">
      <contour>
        <pt x="338" y="53" on="1"/>
        <pt x="387" y="53" on="0"/>
        <pt x="462" y="72" on="0"/>
        <pt x="513" y="104" on="0"/>
        <pt x="539" y="145" on="0"/>
        <pt x="539" y="167" on="1"/>
        <pt x="539" y="181" on="0"/>
        <pt x="532" y="202" on="0"/>
        <pt x="511" y="219" on="0"/>
        <pt x="472" y="235" on="0"/>
        <pt x="440" y="244" on="1"/>
        <pt x="244" y="302" on="1"/>
        <pt x="170" y="324" on="0"/>
        <pt x="110" y="394" on="0"/>
        <pt x="110" y="449" on="1"/>
        <pt x="110" y="486" on="0"/>
        <pt x="148" y="551" on="0"/>
        <pt x="221" y="599" on="0"/>
        <pt x="329" y="626" on="0"/>
        <pt x="400" y="626" on="1"/>
        <pt x="445" y="626" on="0"/>
        <pt x="539" y="609" on="0"/>
        <pt x="617" y="577" on="0"/>
        <pt x="666" y="534" on="0"/>
        <pt x="666" y="508" on="1"/>
        <pt x="666" y="488" on="0"/>
        <pt x="633" y="456" on="0"/>
        <pt x="602" y="456" on="1"/>
        <pt x="582" y="456" on="0"/>
        <pt x="552" y="470" on="0"/>
        <pt x="544" y="480" on="1"/>
        <pt x="509" y="522" on="0"/>
        <pt x="423" y="560" on="0"/>
        <pt x="366" y="560" on="1"/>
        <pt x="297" y="560" on="0"/>
        <pt x="222" y="501" on="0"/>
        <pt x="222" y="460" on="1"/>
        <pt x="222" y="431" on="0"/>
        <pt x="260" y="394" on="0"/>
        <pt x="313" y="379" on="1"/>
        <pt x="526" y="318" on="1"/>
        <pt x="562" y="307" on="0"/>
        <pt x="611" y="282" on="0"/>
        <pt x="641" y="251" on="0"/>
        <pt x="653" y="212" on="0"/>
        <pt x="653" y="188" on="1"/>
        <pt x="653" y="155" on="0"/>
        <pt x="606" y="84" on="0"/>
        <pt x="522" y="25" on="0"/>
        <pt x="404" y="-14" on="0"/>
        <pt x="333" y="-14" on="1"/>
        <pt x="264" y="-14" on="0"/>
        <pt x="152" y="14" on="0"/>
        <pt x="74" y="63" on="0"/>
        <pt x="31" y="131" on="0"/>
        <pt x="31" y="170" on="1"/>
        <pt x="31" y="199" on="0"/>
        <pt x="62" y="233" on="0"/>
        <pt x="87" y="233" on="1"/>
        <pt x="112" y="233" on="0"/>
        <pt x="140" y="207" on="0"/>
        <pt x="152" y="169" on="1"/>
        <pt x="159" y="145" on="0"/>
        <pt x="194" y="103" on="0"/>
        <pt x="243" y="72" on="0"/>
        <pt x="304" y="53" on="0"/>
      </contour>
    </TTGlyph>
    <TTGlyph name="T" xMin="20" yMin="-14" xMax="548" yMax="619">
      <contour>
        <pt x="517" y="619" on="1"/>
        <pt x="548" y="619" on="0"/>
        <pt x="548" y="582" on="1"/>
        <pt x="548" y="545" on="0"/>
        <pt x="517" y="545" on="1"/>
        <pt x="336" y="545" on="1"/>
        <pt x="336" y="28" on="1"/>
        <pt x="336" y="9" on="0"/>
        <pt x="310" y="-14" on="0"/>
        <pt x="284" y="-14" on="1"/>
        <pt x="258" y="-14" on="0"/>
        <pt x="232" y="9" on="0"/>
        <pt x="232" y="28" on="1"/>
        <pt x="232" y="545" on="1"/>
        <pt x="51" y="545" on="1"/>
        <pt x="20" y="545" on="0"/>
        <pt x="20" y="582" on="1"/>
        <pt x="20" y="619" on="0"/>
        <pt x="51" y="619" on="1"/>
      </contour>
    </TTGlyph>
    <TTGlyph name="Thorn" xMin="68" yMin="-10" xMax="581" yMax="623">
      <contour>
        <pt x="172" y="28" on="1"/>
        <pt x="172" y="11" on="0"/>
        <pt x="146" y="-10" on="0"/>
        <pt x="121" y="-10" on="1"/>
        <pt x="96" y="-10" on="0"/>
        <pt x="68" y="11" on="0"/>
        <pt x="68" y="28" on="1"/>
        <pt x="68" y="585" on="1"/>
        <pt x="68" y="602" on="0"/>
        <pt x="96" y="623" on="0"/>
        <pt x="121" y="623" on="1"/>
        <pt x="146" y="623" on="0"/>
        <pt x="172" y="602" on="0"/>
        <pt x="172" y="585" on="1"/>
        <pt x="172" y="486" on="1"/>
        <pt x="186" y="489" on="0"/>
        <pt x="231" y="499" on="0"/>
        <pt x="281" y="508" on="0"/>
        <pt x="330" y="514" on="0"/>
        <pt x="350" y="514" on="1"/>
        <pt x="469" y="514" on="0"/>
        <pt x="581" y="430" on="0"/>
        <pt x="581" y="364" on="1"/>
        <pt x="581" y="317" on="0"/>
        <pt x="539" y="229" on="0"/>
        <pt x="457" y="161" on="0"/>
        <pt x="337" y="119" on="0"/>
        <pt x="260" y="119" on="1"/>
        <pt x="241" y="119" on="0"/>
        <pt x="194" y="123" on="0"/>
        <pt x="172" y="127" on="1"/>
      </contour>
      <contour>
        <pt x="172" y="181" on="1"/>
        <pt x="189" y="178" on="0"/>
        <pt x="236" y="175" on="0"/>
        <pt x="259" y="175" on="1"/>
        <pt x="373" y="175" on="0"/>
        <pt x="476" y="267" on="0"/>
        <pt x="476" y="346" on="1"/>
        <pt x="476" y="400" on="0"/>
        <pt x="400" y="457" on="0"/>
        <pt x="329" y="457" on="1"/>
        <pt x="309" y="457" on="0"/>
        <pt x="264" y="452" on="0"/>
        <pt x="248" y="448" on="1"/>
        <pt x="222" y="442" on="0"/>
        <pt x="191" y="429" on="0"/>
        <pt x="176" y="408" on="0"/>
        <pt x="172" y="375" on="0"/>
        <pt x="172" y="347" on="1"/>
      </contour>
    </TTGlyph>
    <TTGlyph name="U" xMin="60" yMin="-14" xMax="594" yMax="625">
      <contour>
        <pt x="306" y="55" on="1"/>
        <pt x="350" y="55" on="0"/>
        <pt x="420" y="97" on="0"/>
        <pt x="469" y="172" on="0"/>
        <pt x="495" y="272" on="0"/>
        <pt x="495" y="331" on="1"/>
        <pt x="495" y="435" on="0"/>
        <pt x="441" y="536" on="1"/>
        <pt x="436" y="546" on="0"/>
        <pt x="429" y="567" on="0"/>
        <pt x="429" y="579" on="1"/>
        <pt x="429" y="599" on="0"/>
        <pt x="462" y="625" on="0"/>
        <pt x="485" y="625" on="1"/>
        <pt x="532" y="625" on="0"/>
        <pt x="557" y="579" on="1"/>
        <pt x="575" y="545" on="0"/>
        <pt x="594" y="436" on="0"/>
        <pt x="594" y="379" on="1"/>
        <pt x="594" y="294" on="0"/>
        <pt x="546" y="150" on="0"/>
        <pt x="460" y="45" on="0"/>
        <pt x="344" y="-14" on="0"/>
        <pt x="276" y="-14" on="1"/>
        <pt x="160" y="-14" on="0"/>
        <pt x="60" y="103" on="0"/>
        <pt x="60" y="210" on="1"/>
        <pt x="60" y="258" on="0"/>
        <pt x="65" y="342" on="0"/>
        <pt x="74" y="426" on="0"/>
        <pt x="88" y="514" on="0"/>
        <pt x="98" y="567" on="1"/>
        <pt x="105" y="605" on="0"/>
        <pt x="149" y="605" on="1"/>
        <pt x="173" y="605" on="0"/>
        <pt x="197" y="584" on="0"/>
        <pt x="197" y="566" on="1"/>
        <pt x="197" y="558" on="0"/>
        <pt x="187" y="482" on="0"/>
        <pt x="174" y="382" on="0"/>
        <pt x="164" y="277" on="0"/>
        <pt x="164" y="240" on="1"/>
        <pt x="164" y="187" on="0"/>
        <pt x="181" y="117" on="0"/>
        <pt x="217" y="73" on="0"/>
        <pt x="270" y="55" on="0"/>
      </contour>
    </TTGlyph>
    <TTGlyph name="Uacute" xMin="60" yMin="-14" xMax="594" yMax="821">
      <component glyphName="U" x="0" y="0" flags="0x204"/>
      <component glyphName="acute" x="238" y="200" flags="0x4"/>
    </TTGlyph>
    <TTGlyph name="Ucircumflex" xMin="60" yMin="-14" xMax="594" yMax="821">
      <component glyphName="U" x="0" y="0" flags="0x204"/>
      <component glyphName="circumflex" x="168" y="200" flags="0x4"/>
    </TTGlyph>
    <TTGlyph name="Udieresis" xMin="60" yMin="-14" xMax="594" yMax="813">
      <component glyphName="U" x="0" y="0" flags="0x204"/>
      <component glyphName="dieresis" x="151" y="200" flags="0x4"/>
    </TTGlyph>
    <TTGlyph name="Ugrave" xMin="60" yMin="-14" xMax="594" yMax="821">
      <component glyphName="U" x="0" y="0" flags="0x204"/>
      <component glyphName="grave" x="208" y="200" flags="0x4"/>
    </TTGlyph>
    <TTGlyph name="V" xMin="19" yMin="-11" xMax="590" yMax="624">
      <contour>
        <pt x="531" y="623" on="1"/>
        <pt x="542" y="623" on="0"/>
        <pt x="564" y="616" on="0"/>
        <pt x="581" y="603" on="0"/>
        <pt x="590" y="582" on="0"/>
        <pt x="587" y="569" on="1"/>
        <pt x="559" y="447" on="0"/>
        <pt x="509" y="266" on="0"/>
        <pt x="461" y="137" on="0"/>
        <pt x="414" y="54" on="0"/>
        <pt x="363" y="7" on="0"/>
        <pt x="307" y="-11" on="0"/>
        <pt x="275" y="-11" on="1"/>
        <pt x="191" y="-11" on="0"/>
        <pt x="71" y="272" on="0"/>
        <pt x="21" y="567" on="1"/>
        <pt x="19" y="581" on="0"/>
        <pt x="28" y="602" on="0"/>
        <pt x="45" y="617" on="0"/>
        <pt x="67" y="624" on="0"/>
        <pt x="79" y="624" on="1"/>
        <pt x="96" y="624" on="0"/>
        <pt x="125" y="608" on="0"/>
        <pt x="129" y="591" on="1"/>
        <pt x="159" y="467" on="0"/>
        <pt x="204" y="291" on="0"/>
        <pt x="237" y="172" on="0"/>
        <pt x="261" y="103" on="0"/>
        <pt x="280" y="67" on="0"/>
        <pt x="294" y="57" on="0"/>
        <pt x="302" y="57" on="1"/>
        <pt x="322" y="57" on="0"/>
        <pt x="352" y="107" on="0"/>
        <pt x="391" y="230" on="0"/>
        <pt x="447" y="438" on="0"/>
        <pt x="494" y="596" on="1"/>
        <pt x="499" y="611" on="0"/>
        <pt x="518" y="623" on="0"/>
      </contour>
    </TTGlyph>
    <TTGlyph name="W" xMin="60" yMin="-14" xMax="822" yMax="618">
      <contour>
        <pt x="395" y="600" on="1"/>
        <pt x="415" y="600" on="0"/>
        <pt x="450" y="574" on="0"/>
        <pt x="476" y="528" on="0"/>
        <pt x="491" y="462" on="0"/>
        <pt x="491" y="422" on="1"/>
        <pt x="491" y="395" on="0"/>
        <pt x="485" y="350" on="0"/>
        <pt x="477" y="305" on="0"/>
        <pt x="471" y="258" on="0"/>
        <pt x="471" y="230" on="1"/>
        <pt x="471" y="181" on="0"/>
        <pt x="486" y="116" on="0"/>
        <pt x="511" y="77" on="0"/>
        <pt x="546" y="61" on="0"/>
        <pt x="566" y="61" on="1"/>
        <pt x="593" y="61" on="0"/>
        <pt x="646" y="102" on="0"/>
        <pt x="688" y="176" on="0"/>
        <pt x="714" y="279" on="0"/>
        <pt x="714" y="340" on="1"/>
        <pt x="714" y="431" on="0"/>
        <pt x="668" y="524" on="1"/>
        <pt x="662" y="536" on="0"/>
        <pt x="658" y="557" on="0"/>
        <pt x="658" y="570" on="1"/>
        <pt x="658" y="589" on="0"/>
        <pt x="694" y="618" on="0"/>
        <pt x="720" y="618" on="1"/>
        <pt x="738" y="618" on="0"/>
        <pt x="774" y="590" on="0"/>
        <pt x="803" y="535" on="0"/>
        <pt x="822" y="454" on="0"/>
        <pt x="822" y="402" on="1"/>
        <pt x="822" y="312" on="0"/>
        <pt x="778" y="160" on="0"/>
        <pt x="700" y="49" on="0"/>
        <pt x="595" y="-14" on="0"/>
        <pt x="534" y="-14" on="1"/>
        <pt x="507" y="-14" on="0"/>
        <pt x="462" y="11" on="0"/>
        <pt x="429" y="56" on="0"/>
        <pt x="410" y="120" on="0"/>
        <pt x="410" y="159" on="1"/>
        <pt x="378" y="77" on="0"/>
        <pt x="271" y="-14" on="0"/>
        <pt x="211" y="-14" on="1"/>
        <pt x="180" y="-14" on="0"/>
        <pt x="125" y="15" on="0"/>
        <pt x="84" y="77" on="0"/>
        <pt x="60" y="172" on="0"/>
        <pt x="60" y="238" on="1"/>
        <pt x="60" y="292" on="0"/>
        <pt x="63" y="377" on="0"/>
        <pt x="69" y="454" on="0"/>
        <pt x="78" y="526" on="0"/>
        <pt x="84" y="566" on="1"/>
        <pt x="89" y="594" on="0"/>
        <pt x="112" y="617" on="0"/>
        <pt x="133" y="617" on="1"/>
        <pt x="160" y="617" on="0"/>
        <pt x="185" y="589" on="0"/>
        <pt x="183" y="569" on="1"/>
        <pt x="178" y="509" on="0"/>
        <pt x="172" y="414" on="0"/>
        <pt x="168" y="339" on="0"/>
        <pt x="166" y="281" on="0"/>
        <pt x="166" y="258" on="1"/>
        <pt x="166" y="199" on="0"/>
        <pt x="178" y="122" on="0"/>
        <pt x="199" y="77" on="0"/>
        <pt x="230" y="60" on="0"/>
        <pt x="248" y="60" on="1"/>
        <pt x="272" y="60" on="0"/>
        <pt x="321" y="106" on="0"/>
        <pt x="360" y="186" on="0"/>
        <pt x="385" y="293" on="0"/>
        <pt x="385" y="355" on="1"/>
        <pt x="385" y="433" on="0"/>
        <pt x="352" y="508" on="1"/>
        <pt x="346" y="522" on="0"/>
        <pt x="344" y="541" on="0"/>
        <pt x="344" y="552" on="1"/>
        <pt x="344" y="571" on="0"/>
        <pt x="375" y="600" on="0"/>
      </contour>
    </TTGlyph>
    <TTGlyph name="X" xMin="10" yMin="-10" xMax="610" yMax="622">
      <contour>
        <pt x="308" y="355" on="1"/>
        <pt x="318" y="412" on="0"/>
        <pt x="356" y="510" on="0"/>
        <pt x="413" y="581" on="0"/>
        <pt x="491" y="621" on="0"/>
        <pt x="542" y="621" on="1"/>
        <pt x="579" y="621" on="0"/>
        <pt x="610" y="595" on="0"/>
        <pt x="610" y="568" on="1"/>
        <pt x="610" y="542" on="0"/>
        <pt x="590" y="512" on="0"/>
        <pt x="574" y="512" on="1"/>
        <pt x="563" y="512" on="0"/>
        <pt x="546" y="517" on="0"/>
        <pt x="531" y="524" on="0"/>
        <pt x="515" y="529" on="0"/>
        <pt x="504" y="529" on="1"/>
        <pt x="481" y="529" on="0"/>
        <pt x="431" y="496" on="0"/>
        <pt x="390" y="442" on="0"/>
        <pt x="363" y="372" on="0"/>
        <pt x="363" y="335" on="1"/>
        <pt x="363" y="290" on="0"/>
        <pt x="393" y="205" on="0"/>
        <pt x="447" y="136" on="0"/>
        <pt x="523" y="88" on="0"/>
        <pt x="569" y="81" on="1"/>
        <pt x="608" y="75" on="0"/>
        <pt x="608" y="33" on="1"/>
        <pt x="608" y="15" on="0"/>
        <pt x="586" y="-10" on="0"/>
        <pt x="567" y="-10" on="1"/>
        <pt x="508" y="-10" on="0"/>
        <pt x="417" y="46" on="0"/>
        <pt x="352" y="139" on="0"/>
        <pt x="314" y="261" on="0"/>
        <pt x="308" y="327" on="1"/>
        <pt x="303" y="262" on="0"/>
        <pt x="267" y="141" on="0"/>
        <pt x="204" y="47" on="0"/>
        <pt x="114" y="-10" on="0"/>
        <pt x="56" y="-10" on="1"/>
        <pt x="33" y="-10" on="0"/>
        <pt x="11" y="14" on="0"/>
        <pt x="11" y="34" on="1"/>
        <pt x="11" y="54" on="0"/>
        <pt x="28" y="77" on="0"/>
        <pt x="50" y="81" on="1"/>
        <pt x="97" y="89" on="0"/>
        <pt x="173" y="137" on="0"/>
        <pt x="227" y="206" on="0"/>
        <pt x="256" y="290" on="0"/>
        <pt x="256" y="335" on="1"/>
        <pt x="256" y="370" on="0"/>
        <pt x="230" y="440" on="0"/>
        <pt x="189" y="495" on="0"/>
        <pt x="138" y="530" on="0"/>
        <pt x="114" y="530" on="1"/>
        <pt x="103" y="530" on="0"/>
        <pt x="87" y="524" on="0"/>
        <pt x="72" y="518" on="0"/>
        <pt x="55" y="512" on="0"/>
        <pt x="44" y="512" on="1"/>
        <pt x="10" y="512" on="0"/>
        <pt x="10" y="565" on="1"/>
        <pt x="10" y="594" on="0"/>
        <pt x="39" y="622" on="0"/>
        <pt x="79" y="622" on="1"/>
        <pt x="130" y="622" on="0"/>
        <pt x="206" y="582" on="0"/>
        <pt x="262" y="511" on="0"/>
        <pt x="297" y="413" on="0"/>
      </contour>
    </TTGlyph>
    <TTGlyph name="Y" xMin="10" yMin="-14" xMax="614" yMax="614">
      <contour>
        <pt x="362" y="28" on="1"/>
        <pt x="362" y="9" on="0"/>
        <pt x="336" y="-14" on="0"/>
        <pt x="310" y="-14" on="1"/>
        <pt x="284" y="-14" on="0"/>
        <pt x="258" y="9" on="0"/>
        <pt x="258" y="28" on="1"/>
        <pt x="258" y="133" on="1"/>
        <pt x="258" y="168" on="0"/>
        <pt x="245" y="255" on="0"/>
        <pt x="222" y="344" on="0"/>
        <pt x="192" y="428" on="0"/>
        <pt x="158" y="494" on="0"/>
        <pt x="124" y="534" on="0"/>
        <pt x="108" y="534" on="1"/>
        <pt x="99" y="534" on="0"/>
        <pt x="82" y="527" on="0"/>
        <pt x="66" y="519" on="0"/>
        <pt x="48" y="512" on="0"/>
        <pt x="39" y="512" on="1"/>
        <pt x="25" y="512" on="0"/>
        <pt x="10" y="543" on="0"/>
        <pt x="10" y="565" on="1"/>
        <pt x="10" y="582" on="0"/>
        <pt x="25" y="601" on="0"/>
        <pt x="47" y="611" on="0"/>
        <pt x="71" y="614" on="0"/>
        <pt x="79" y="614" on="1"/>
        <pt x="130" y="614" on="0"/>
        <pt x="213" y="562" on="0"/>
        <pt x="274" y="465" on="0"/>
        <pt x="310" y="326" on="0"/>
        <pt x="315" y="239" on="1"/>
        <pt x="321" y="326" on="0"/>
        <pt x="353" y="465" on="0"/>
        <pt x="410" y="562" on="0"/>
        <pt x="491" y="614" on="0"/>
        <pt x="545" y="614" on="1"/>
        <pt x="578" y="614" on="0"/>
        <pt x="614" y="587" on="0"/>
        <pt x="614" y="566" on="1"/>
        <pt x="614" y="538" on="0"/>
        <pt x="595" y="512" on="0"/>
        <pt x="580" y="512" on="1"/>
        <pt x="571" y="512" on="0"/>
        <pt x="555" y="519" on="0"/>
        <pt x="540" y="527" on="0"/>
        <pt x="523" y="534" on="0"/>
        <pt x="513" y="534" on="1"/>
        <pt x="496" y="534" on="0"/>
        <pt x="460" y="494" on="0"/>
        <pt x="427" y="429" on="0"/>
        <pt x="397" y="344" on="0"/>
        <pt x="375" y="255" on="0"/>
        <pt x="362" y="168" on="0"/>
        <pt x="362" y="133" on="1"/>
      </contour>
    </TTGlyph>
    <TTGlyph name="Yacute" xMin="10" yMin="-14" xMax="614" yMax="821">
      <component glyphName="Y" x="0" y="0" flags="0x204"/>
      <component glyphName="acute" x="220" y="200" flags="0x4"/>
    </TTGlyph>
    <TTGlyph name="Z" xMin="30" yMin="0" xMax="538" yMax="619">
      <contour>
        <pt x="456" y="619" on="1"/>
        <pt x="491" y="619" on="0"/>
        <pt x="520" y="596" on="0"/>
        <pt x="520" y="570" on="1"/>
        <pt x="520" y="547" on="0"/>
        <pt x="494" y="507" on="0"/>
        <pt x="475" y="484" on="1"/>
        <pt x="139" y="72" on="1"/>
        <pt x="292" y="72" on="1"/>
        <pt x="335" y="72" on="0"/>
        <pt x="383" y="89" on="0"/>
        <pt x="409" y="113" on="0"/>
        <pt x="421" y="143" on="0"/>
        <pt x="433" y="167" on="0"/>
        <pt x="454" y="184" on="0"/>
        <pt x="476" y="184" on="1"/>
        <pt x="509" y="184" on="0"/>
        <pt x="538" y="151" on="0"/>
        <pt x="538" y="120" on="1"/>
        <pt x="538" y="99" on="0"/>
        <pt x="506" y="56" on="0"/>
        <pt x="446" y="21" on="0"/>
        <pt x="360" y="0" on="0"/>
        <pt x="307" y="0" on="1"/>
        <pt x="89" y="0" on="1"/>
        <pt x="57" y="0" on="0"/>
        <pt x="30" y="22" on="0"/>
        <pt x="30" y="45" on="1"/>
        <pt x="30" y="66" on="0"/>
        <pt x="94" y="154" on="0"/>
        <pt x="145" y="215" on="1"/>
        <pt x="418" y="545" on="1"/>
        <pt x="271" y="545" on="1"/>
        <pt x="225" y="545" on="0"/>
        <pt x="174" y="530" on="0"/>
        <pt x="149" y="507" on="0"/>
        <pt x="140" y="480" on="0"/>
        <pt x="130" y="457" on="0"/>
        <pt x="112" y="442" on="0"/>
        <pt x="90" y="442" on="1"/>
        <pt x="64" y="442" on="0"/>
        <pt x="44" y="470" on="0"/>
        <pt x="44" y="502" on="1"/>
        <pt x="44" y="526" on="0"/>
        <pt x="64" y="569" on="0"/>
        <pt x="108" y="600" on="0"/>
        <pt x="179" y="619" on="0"/>
        <pt x="230" y="619" on="1"/>
      </contour>
    </TTGlyph>
    <TTGlyph name="a" xMin="40" yMin="-14" xMax="558" yMax="407">
      <contour>
        <pt x="386" y="407" on="1"/>
        <pt x="476" y="407" on="0"/>
        <pt x="558" y="339" on="0"/>
        <pt x="558" y="284" on="1"/>
        <pt x="558" y="267" on="0"/>
        <pt x="547" y="233" on="0"/>
        <pt x="547" y="219" on="1"/>
        <pt x="547" y="30" on="1"/>
        <pt x="547" y="13" on="0"/>
        <pt x="524" y="-10" on="0"/>
        <pt x="498" y="-10" on="1"/>
        <pt x="471" y="-10" on="0"/>
        <pt x="448" y="13" on="0"/>
        <pt x="448" y="30" on="1"/>
        <pt x="448" y="97" on="1"/>
        <pt x="403" y="46" on="0"/>
        <pt x="281" y="-14" on="0"/>
        <pt x="212" y="-14" on="1"/>
        <pt x="121" y="-14" on="0"/>
        <pt x="40" y="57" on="0"/>
        <pt x="40" y="118" on="1"/>
        <pt x="40" y="170" on="0"/>
        <pt x="96" y="273" on="0"/>
        <pt x="192" y="356" on="0"/>
        <pt x="317" y="407" on="0"/>
      </contour>
      <contour>
        <pt x="351" y="348" on="1"/>
        <pt x="307" y="348" on="0"/>
        <pt x="233" y="315" on="0"/>
        <pt x="178" y="261" on="0"/>
        <pt x="147" y="191" on="0"/>
        <pt x="147" y="154" on="1"/>
        <pt x="147" y="107" on="0"/>
        <pt x="200" y="56" on="0"/>
        <pt x="249" y="56" on="1"/>
        <pt x="291" y="56" on="0"/>
        <pt x="365" y="89" on="0"/>
        <pt x="420" y="143" on="0"/>
        <pt x="453" y="213" on="0"/>
        <pt x="453" y="251" on="1"/>
        <pt x="453" y="295" on="0"/>
        <pt x="398" y="348" on="0"/>
      </contour>
    </TTGlyph>
    <TTGlyph name="aacute" xMin="40" yMin="-14" xMax="558" yMax="621">
      <component glyphName="a" x="0" y="0" flags="0x204"/>
      <component glyphName="acute" x="238" y="0" flags="0x4"/>
    </TTGlyph>
    <TTGlyph name="acircumflex" xMin="40" yMin="-14" xMax="558" yMax="621">
      <component glyphName="a" x="0" y="0" flags="0x204"/>
      <component glyphName="circumflex" x="185" y="0" flags="0x4"/>
    </TTGlyph>
    <TTGlyph name="acute" xMin="20" yMin="468" xMax="155" yMax="621">
      <contour>
        <pt x="96" y="492" on="1"/>
        <pt x="79" y="468" on="0"/>
        <pt x="58" y="468" on="1"/>
        <pt x="42" y="468" on="0"/>
        <pt x="20" y="485" on="0"/>
        <pt x="20" y="497" on="1"/>
        <pt x="20" y="500" on="0"/>
        <pt x="22" y="508" on="0"/>
        <pt x="27" y="517" on="1"/>
        <pt x="72" y="598" on="1"/>
        <pt x="79" y="611" on="0"/>
        <pt x="96" y="621" on="0"/>
        <pt x="111" y="621" on="1"/>
        <pt x="129" y="621" on="0"/>
        <pt x="155" y="599" on="0"/>
        <pt x="155" y="585" on="1"/>
        <pt x="155" y="575" on="0"/>
        <pt x="149" y="568" on="1"/>
      </contour>
    </TTGlyph>
    <TTGlyph name="acute.cap" xMin="20" yMin="696" xMax="155" yMax="849">
      <contour>
        <pt x="96" y="720" on="1"/>
        <pt x="79" y="696" on="0"/>
        <pt x="58" y="696" on="1"/>
        <pt x="42" y="696" on="0"/>
        <pt x="20" y="713" on="0"/>
        <pt x="20" y="725" on="1"/>
        <pt x="20" y="728" on="0"/>
        <pt x="22" y="736" on="0"/>
        <pt x="27" y="745" on="1"/>
        <pt x="72" y="826" on="1"/>
        <pt x="79" y="839" on="0"/>
        <pt x="96" y="849" on="0"/>
        <pt x="111" y="849" on="1"/>
        <pt x="129" y="849" on="0"/>
        <pt x="155" y="827" on="0"/>
        <pt x="155" y="813" on="1"/>
        <pt x="155" y="803" on="0"/>
        <pt x="149" y="796" on="1"/>
      </contour>
    </TTGlyph>
    <TTGlyph name="adieresis" xMin="40" yMin="-14" xMax="558" yMax="613">
      <component glyphName="a" x="0" y="0" flags="0x204"/>
      <component glyphName="dieresis" x="158" y="0" flags="0x4"/>
    </TTGlyph>
    <TTGlyph name="ae" xMin="20" yMin="-14" xMax="860" yMax="407">
      <contour>
        <pt x="696" y="407" on="1"/>
        <pt x="781" y="407" on="0"/>
        <pt x="860" y="349" on="0"/>
        <pt x="860" y="307" on="1"/>
        <pt x="860" y="260" on="0"/>
        <pt x="791" y="194" on="0"/>
        <pt x="708" y="180" on="1"/>
        <pt x="459" y="138" on="1"/>
        <pt x="459" y="99" on="0"/>
        <pt x="500" y="53" on="0"/>
        <pt x="555" y="53" on="1"/>
        <pt x="605" y="53" on="0"/>
        <pt x="690" y="77" on="0"/>
        <pt x="729" y="96" on="1"/>
        <pt x="747" y="105" on="0"/>
        <pt x="757" y="105" on="1"/>
        <pt x="779" y="105" on="0"/>
        <pt x="779" y="77" on="1"/>
        <pt x="779" y="60" on="0"/>
        <pt x="759" y="49" on="1"/>
        <pt x="643" y="-14" on="0"/>
        <pt x="526" y="-14" on="1"/>
        <pt x="491" y="-14" on="0"/>
        <pt x="442" y="3" on="0"/>
        <pt x="408" y="31" on="0"/>
        <pt x="387" y="69" on="0"/>
        <pt x="380" y="89" on="1"/>
        <pt x="368" y="69" on="0"/>
        <pt x="326" y="31" on="0"/>
        <pt x="271" y="3" on="0"/>
        <pt x="208" y="-14" on="0"/>
        <pt x="177" y="-14" on="1"/>
        <pt x="96" y="-14" on="0"/>
        <pt x="20" y="36" on="0"/>
        <pt x="20" y="82" on="1"/>
        <pt x="20" y="111" on="0"/>
        <pt x="51" y="169" on="0"/>
        <pt x="111" y="215" on="0"/>
        <pt x="197" y="244" on="0"/>
        <pt x="252" y="244" on="1"/>
        <pt x="267" y="244" on="0"/>
        <pt x="303" y="239" on="0"/>
        <pt x="338" y="230" on="0"/>
        <pt x="368" y="219" on="0"/>
        <pt x="377" y="214" on="1"/>
        <pt x="384" y="237" on="0"/>
        <pt x="390" y="277" on="0"/>
        <pt x="390" y="292" on="1"/>
        <pt x="390" y="327" on="0"/>
        <pt x="338" y="360" on="0"/>
        <pt x="290" y="360" on="1"/>
        <pt x="248" y="360" on="0"/>
        <pt x="197" y="329" on="0"/>
        <pt x="197" y="309" on="1"/>
        <pt x="197" y="283" on="0"/>
        <pt x="157" y="283" on="1"/>
        <pt x="108" y="283" on="0"/>
        <pt x="108" y="325" on="1"/>
        <pt x="108" y="360" on="0"/>
        <pt x="200" y="407" on="0"/>
        <pt x="299" y="407" on="1"/>
        <pt x="370" y="407" on="0"/>
        <pt x="451" y="361" on="0"/>
        <pt x="451" y="326" on="1"/>
        <pt x="451" y="318" on="0"/>
        <pt x="449" y="300" on="0"/>
        <pt x="445" y="287" on="1"/>
        <pt x="459" y="312" on="0"/>
        <pt x="483" y="333" on="1"/>
        <pt x="509" y="356" on="0"/>
        <pt x="575" y="389" on="0"/>
        <pt x="654" y="407" on="0"/>
      </contour>
      <contour>
        <pt x="663" y="350" on="1"/>
        <pt x="628" y="350" on="0"/>
        <pt x="560" y="324" on="0"/>
        <pt x="505" y="280" on="0"/>
        <pt x="466" y="223" on="0"/>
        <pt x="460" y="193" on="1"/>
        <pt x="678" y="228" on="1"/>
        <pt x="728" y="236" on="0"/>
        <pt x="759" y="266" on="0"/>
        <pt x="759" y="289" on="1"/>
        <pt x="759" y="313" on="0"/>
        <pt x="711" y="350" on="0"/>
      </contour>
      <contour>
        <pt x="259" y="196" on="1"/>
        <pt x="229" y="196" on="0"/>
        <pt x="178" y="179" on="0"/>
        <pt x="141" y="152" on="0"/>
        <pt x="120" y="117" on="0"/>
        <pt x="120" y="98" on="1"/>
        <pt x="120" y="77" on="0"/>
        <pt x="162" y="49" on="0"/>
        <pt x="204" y="49" on="1"/>
        <pt x="238" y="49" on="0"/>
        <pt x="293" y="68" on="0"/>
        <pt x="334" y="99" on="0"/>
        <pt x="359" y="140" on="0"/>
        <pt x="364" y="161" on="1"/>
        <pt x="365" y="167" on="1"/>
        <pt x="348" y="179" on="0"/>
        <pt x="296" y="196" on="0"/>
      </contour>
    </TTGlyph>
    <TTGlyph name="agrave" xMin="40" yMin="-14" xMax="558" yMax="621">
      <component glyphName="a" x="0" y="0" flags="0x204"/>
      <component glyphName="grave" x="228" y="0" flags="0x4"/>
    </TTGlyph>
    <TTGlyph name="ampersand" xMin="40" yMin="-14" xMax="587" yMax="626">
      <contour>
        <pt x="516" y="261" on="1"/>
        <pt x="516" y="177" on="1"/>
        <pt x="516" y="85" on="0"/>
        <pt x="398" y="-14" on="0"/>
        <pt x="262" y="-14" on="1"/>
        <pt x="203" y="-14" on="0"/>
        <pt x="119" y="6" on="0"/>
        <pt x="65" y="40" on="0"/>
        <pt x="40" y="85" on="0"/>
        <pt x="40" y="109" on="1"/>
        <pt x="40" y="136" on="0"/>
        <pt x="62" y="191" on="0"/>
        <pt x="104" y="241" on="0"/>
        <pt x="162" y="281" on="0"/>
        <pt x="198" y="293" on="1"/>
        <pt x="131" y="308" on="0"/>
        <pt x="73" y="376" on="0"/>
        <pt x="73" y="412" on="1"/>
        <pt x="73" y="451" on="0"/>
        <pt x="119" y="528" on="0"/>
        <pt x="195" y="589" on="0"/>
        <pt x="293" y="626" on="0"/>
        <pt x="345" y="626" on="1"/>
        <pt x="405" y="626" on="0"/>
        <pt x="453" y="593" on="0"/>
        <pt x="453" y="564" on="1"/>
        <pt x="453" y="529" on="0"/>
        <pt x="423" y="490" on="0"/>
        <pt x="400" y="490" on="1"/>
        <pt x="379" y="490" on="0"/>
        <pt x="355" y="509" on="0"/>
        <pt x="355" y="525" on="1"/>
        <pt x="355" y="559" on="0"/>
        <pt x="305" y="559" on="1"/>
        <pt x="278" y="559" on="0"/>
        <pt x="229" y="537" on="0"/>
        <pt x="192" y="500" on="0"/>
        <pt x="169" y="450" on="0"/>
        <pt x="169" y="422" on="1"/>
        <pt x="169" y="373" on="0"/>
        <pt x="253" y="319" on="0"/>
        <pt x="358" y="319" on="1"/>
        <pt x="419" y="319" on="1"/>
        <pt x="419" y="358" on="1"/>
        <pt x="419" y="375" on="0"/>
        <pt x="441" y="398" on="0"/>
        <pt x="467" y="398" on="1"/>
        <pt x="494" y="398" on="0"/>
        <pt x="516" y="375" on="0"/>
        <pt x="516" y="358" on="1"/>
        <pt x="516" y="318" on="1"/>
        <pt x="558" y="318" on="1"/>
        <pt x="587" y="318" on="0"/>
        <pt x="587" y="290" on="1"/>
        <pt x="587" y="261" on="0"/>
        <pt x="558" y="261" on="1"/>
      </contour>
      <contour>
        <pt x="302" y="262" on="1"/>
        <pt x="229" y="262" on="0"/>
        <pt x="148" y="197" on="0"/>
        <pt x="148" y="145" on="1"/>
        <pt x="148" y="94" on="0"/>
        <pt x="216" y="43" on="0"/>
        <pt x="293" y="43" on="1"/>
        <pt x="330" y="43" on="0"/>
        <pt x="379" y="55" on="0"/>
        <pt x="407" y="87" on="0"/>
        <pt x="419" y="141" on="0"/>
        <pt x="419" y="183" on="1"/>
        <pt x="419" y="262" on="1"/>
      </contour>
    </TTGlyph>
    <TTGlyph name="aring" xMin="40" yMin="-14" xMax="558" yMax="656">
      <component glyphName="a" x="0" y="0" flags="0x204"/>
      <component glyphName="ring" x="184" y="0" flags="0x4"/>
    </TTGlyph>
    <TTGlyph name="asciicircum" xMin="42" yMin="359" xMax="490" yMax="702">
      <contour>
        <pt x="266" y="702" on="1"/>
        <pt x="282" y="702" on="0"/>
        <pt x="293" y="688" on="1"/>
        <pt x="485" y="412" on="1"/>
        <pt x="490" y="404" on="0"/>
        <pt x="490" y="396" on="1"/>
        <pt x="490" y="379" on="0"/>
        <pt x="473" y="367" on="1"/>
        <pt x="460" y="359" on="0"/>
        <pt x="449" y="359" on="1"/>
        <pt x="434" y="359" on="0"/>
        <pt x="427" y="371" on="1"/>
        <pt x="266" y="610" on="1"/>
        <pt x="105" y="371" on="1"/>
        <pt x="97" y="359" on="0"/>
        <pt x="83" y="359" on="1"/>
        <pt x="72" y="359" on="0"/>
        <pt x="59" y="367" on="1"/>
        <pt x="42" y="379" on="0"/>
        <pt x="42" y="396" on="1"/>
        <pt x="42" y="404" on="0"/>
        <pt x="47" y="412" on="1"/>
        <pt x="239" y="688" on="1"/>
        <pt x="251" y="702" on="0"/>
      </contour>
    </TTGlyph>
    <TTGlyph name="asciitilde" xMin="20" yMin="223" xMax="339" yMax="312">
      <contour>
        <pt x="231" y="261" on="1"/>
        <pt x="218" y="261" on="0"/>
        <pt x="190" y="249" on="0"/>
        <pt x="159" y="236" on="0"/>
        <pt x="125" y="224" on="0"/>
        <pt x="106" y="224" on="1"/>
        <pt x="66" y="224" on="0"/>
        <pt x="20" y="257" on="0"/>
        <pt x="20" y="279" on="1"/>
        <pt x="20" y="293" on="0"/>
        <pt x="39" y="312" on="0"/>
        <pt x="55" y="312" on="1"/>
        <pt x="80" y="312" on="0"/>
        <pt x="90" y="291" on="1"/>
        <pt x="94" y="283" on="0"/>
        <pt x="110" y="274" on="0"/>
        <pt x="125" y="274" on="1"/>
        <pt x="140" y="274" on="0"/>
        <pt x="166" y="286" on="0"/>
        <pt x="195" y="299" on="0"/>
        <pt x="230" y="311" on="0"/>
        <pt x="253" y="311" on="1"/>
        <pt x="292" y="311" on="0"/>
        <pt x="339" y="278" on="0"/>
        <pt x="339" y="258" on="1"/>
        <pt x="339" y="245" on="0"/>
        <pt x="318" y="223" on="0"/>
        <pt x="303" y="223" on="1"/>
        <pt x="293" y="223" on="0"/>
        <pt x="275" y="232" on="0"/>
        <pt x="270" y="242" on="1"/>
        <pt x="265" y="253" on="0"/>
        <pt x="248" y="261" on="0"/>
      </contour>
    </TTGlyph>
    <TTGlyph name="asterisk" xMin="60" yMin="419" xMax="353" yMax="702">
      <contour>
        <pt x="307" y="468" on="1"/>
        <pt x="312" y="461" on="0"/>
        <pt x="312" y="454" on="1"/>
        <pt x="312" y="441" on="0"/>
        <pt x="288" y="419" on="0"/>
        <pt x="274" y="419" on="1"/>
        <pt x="262" y="419" on="0"/>
        <pt x="255" y="429" on="1"/>
        <pt x="206" y="508" on="1"/>
        <pt x="157" y="429" on="1"/>
        <pt x="150" y="419" on="0"/>
        <pt x="138" y="419" on="1"/>
        <pt x="124" y="419" on="0"/>
        <pt x="100" y="442" on="0"/>
        <pt x="100" y="455" on="1"/>
        <pt x="100" y="461" on="0"/>
        <pt x="105" y="468" on="1"/>
        <pt x="167" y="538" on="1"/>
        <pt x="77" y="560" on="1"/>
        <pt x="68" y="562" on="0"/>
        <pt x="60" y="576" on="0"/>
        <pt x="60" y="584" on="1"/>
        <pt x="60" y="598" on="0"/>
        <pt x="78" y="623" on="0"/>
        <pt x="90" y="623" on="1"/>
        <pt x="92" y="623" on="0"/>
        <pt x="98" y="621" on="1"/>
        <pt x="182" y="585" on="1"/>
        <pt x="174" y="676" on="1"/>
        <pt x="172" y="689" on="0"/>
        <pt x="194" y="702" on="0"/>
        <pt x="207" y="702" on="1"/>
        <pt x="220" y="702" on="0"/>
        <pt x="240" y="689" on="0"/>
        <pt x="239" y="676" on="1"/>
        <pt x="231" y="584" on="1"/>
        <pt x="315" y="620" on="1"/>
        <pt x="321" y="622" on="0"/>
        <pt x="324" y="622" on="1"/>
        <pt x="336" y="622" on="0"/>
        <pt x="353" y="598" on="0"/>
        <pt x="353" y="584" on="1"/>
        <pt x="353" y="576" on="0"/>
        <pt x="345" y="561" on="0"/>
        <pt x="336" y="559" on="1"/>
        <pt x="246" y="537" on="1"/>
      </contour>
    </TTGlyph>
    <TTGlyph name="at" xMin="40" yMin="-166" xMax="839" yMax="478">
      <contour>
        <pt x="483" y="280" on="1"/>
        <pt x="451" y="280" on="0"/>
        <pt x="388" y="256" on="0"/>
        <pt x="338" y="214" on="0"/>
        <pt x="308" y="155" on="0"/>
        <pt x="308" y="119" on="1"/>
        <pt x="308" y="77" on="0"/>
        <pt x="353" y="41" on="0"/>
        <pt x="393" y="41" on="1"/>
        <pt x="425" y="41" on="0"/>
        <pt x="490" y="67" on="0"/>
        <pt x="542" y="110" on="0"/>
        <pt x="575" y="168" on="0"/>
        <pt x="575" y="201" on="1"/>
        <pt x="575" y="240" on="0"/>
        <pt x="525" y="280" on="0"/>
      </contour>
      <contour>
        <pt x="583" y="478" on="1"/>
        <pt x="634" y="478" on="0"/>
        <pt x="727" y="452" on="0"/>
        <pt x="798" y="401" on="0"/>
        <pt x="839" y="328" on="0"/>
        <pt x="839" y="282" on="1"/>
        <pt x="839" y="232" on="0"/>
        <pt x="805" y="124" on="0"/>
        <pt x="747" y="36" on="0"/>
        <pt x="671" y="-21" on="0"/>
        <pt x="629" y="-21" on="1"/>
        <pt x="602" y="-21" on="0"/>
        <pt x="578" y="5" on="0"/>
        <pt x="578" y="29" on="1"/>
        <pt x="578" y="90" on="1"/>
        <pt x="485" y="-21" on="0"/>
        <pt x="364" y="-21" on="1"/>
        <pt x="288" y="-21" on="0"/>
        <pt x="224" y="38" on="0"/>
        <pt x="224" y="95" on="1"/>
        <pt x="224" y="142" on="0"/>
        <pt x="278" y="228" on="0"/>
        <pt x="362" y="294" on="0"/>
        <pt x="463" y="333" on="0"/>
        <pt x="510" y="333" on="1"/>
        <pt x="570" y="333" on="0"/>
        <pt x="649" y="282" on="0"/>
        <pt x="649" y="226" on="1"/>
        <pt x="649" y="213" on="0"/>
        <pt x="642" y="182" on="0"/>
        <pt x="642" y="180" on="1"/>
        <pt x="642" y="72" on="1"/>
        <pt x="642" y="52" on="0"/>
        <pt x="649" y="38" on="0"/>
        <pt x="658" y="38" on="1"/>
        <pt x="674" y="38" on="0"/>
        <pt x="707" y="71" on="0"/>
        <pt x="734" y="127" on="0"/>
        <pt x="750" y="201" on="0"/>
        <pt x="750" y="241" on="1"/>
        <pt x="750" y="326" on="0"/>
        <pt x="642" y="413" on="0"/>
        <pt x="549" y="413" on="1"/>
        <pt x="471" y="413" on="0"/>
        <pt x="321" y="359" on="0"/>
        <pt x="203" y="267" on="0"/>
        <pt x="130" y="143" on="0"/>
        <pt x="130" y="74" on="1"/>
        <pt x="130" y="30" on="0"/>
        <pt x="163" y="-36" on="0"/>
        <pt x="219" y="-82" on="0"/>
        <pt x="294" y="-105" on="0"/>
        <pt x="337" y="-105" on="1"/>
        <pt x="364" y="-105" on="1"/>
        <pt x="381" y="-105" on="0"/>
        <pt x="399" y="-111" on="0"/>
        <pt x="399" y="-124" on="1"/>
        <pt x="399" y="-146" on="0"/>
        <pt x="351" y="-166" on="0"/>
        <pt x="291" y="-166" on="1"/>
        <pt x="240" y="-166" on="0"/>
        <pt x="149" y="-137" on="0"/>
        <pt x="80" y="-84" on="0"/>
        <pt x="40" y="-8" on="0"/>
        <pt x="40" y="40" on="1"/>
        <pt x="40" y="134" on="0"/>
        <pt x="130" y="295" on="0"/>
        <pt x="281" y="412" on="0"/>
        <pt x="477" y="478" on="0"/>
      </contour>
    </TTGlyph>
    <TTGlyph name="atilde" xMin="40" yMin="-14" xMax="558" yMax="612">
      <component glyphName="a" x="0" y="0" flags="0x204"/>
      <component glyphName="tilde" x="154" y="0" flags="0x4"/>
    </TTGlyph>
    <TTGlyph name="b" xMin="60" yMin="-14" xMax="578" yMax="702">
      <contour>
        <pt x="234" y="-14" on="1"/>
        <pt x="189" y="-14" on="0"/>
        <pt x="123" y="7" on="0"/>
        <pt x="81" y="43" on="0"/>
        <pt x="60" y="91" on="0"/>
        <pt x="60" y="118" on="1"/>
        <pt x="60" y="141" on="0"/>
        <pt x="71" y="168" on="0"/>
        <pt x="71" y="187" on="1"/>
        <pt x="71" y="662" on="1"/>
        <pt x="71" y="679" on="0"/>
        <pt x="94" y="702" on="0"/>
        <pt x="120" y="702" on="1"/>
        <pt x="147" y="702" on="0"/>
        <pt x="170" y="679" on="0"/>
        <pt x="170" y="662" on="1"/>
        <pt x="170" y="294" on="1"/>
        <pt x="211" y="348" on="0"/>
        <pt x="339" y="407" on="0"/>
        <pt x="410" y="407" on="1"/>
        <pt x="500" y="407" on="0"/>
        <pt x="578" y="334" on="0"/>
        <pt x="578" y="273" on="1"/>
        <pt x="578" y="222" on="0"/>
        <pt x="522" y="119" on="0"/>
        <pt x="427" y="37" on="0"/>
        <pt x="302" y="-14" on="0"/>
      </contour>
      <contour>
        <pt x="267" y="55" on="1"/>
        <pt x="310" y="55" on="0"/>
        <pt x="385" y="87" on="0"/>
        <pt x="440" y="140" on="0"/>
        <pt x="471" y="209" on="0"/>
        <pt x="471" y="247" on="1"/>
        <pt x="471" y="295" on="0"/>
        <pt x="420" y="347" on="0"/>
        <pt x="372" y="347" on="1"/>
        <pt x="330" y="347" on="0"/>
        <pt x="255" y="314" on="0"/>
        <pt x="198" y="260" on="0"/>
        <pt x="165" y="189" on="0"/>
        <pt x="165" y="152" on="1"/>
        <pt x="165" y="108" on="0"/>
        <pt x="220" y="55" on="0"/>
      </contour>
    </TTGlyph>
    <TTGlyph name="backslash" xMin="1" yMin="-40" xMax="381" yMax="724">
      <contour>
        <pt x="5" y="662" on="1"/>
        <pt x="3" y="667" on="0"/>
        <pt x="1" y="675" on="0"/>
        <pt x="1" y="679" on="1"/>
        <pt x="1" y="704" on="0"/>
        <pt x="37" y="718" on="1"/>
        <pt x="52" y="724" on="0"/>
        <pt x="65" y="724" on="1"/>
        <pt x="89" y="724" on="0"/>
        <pt x="98" y="701" on="1"/>
        <pt x="377" y="23" on="1"/>
        <pt x="379" y="18" on="0"/>
        <pt x="381" y="10" on="0"/>
        <pt x="381" y="6" on="1"/>
        <pt x="381" y="-18" on="0"/>
        <pt x="346" y="-33" on="1"/>
        <pt x="331" y="-40" on="0"/>
        <pt x="318" y="-40" on="1"/>
        <pt x="294" y="-40" on="0"/>
        <pt x="284" y="-16" on="1"/>
      </contour>
    </TTGlyph>
    <TTGlyph name="bar" xMin="70" yMin="-280" xMax="171" yMax="812">
      <contour>
        <pt x="171" y="-240" on="1"/>
        <pt x="171" y="-257" on="0"/>
        <pt x="147" y="-280" on="0"/>
        <pt x="120" y="-280" on="1"/>
        <pt x="94" y="-280" on="0"/>
        <pt x="70" y="-257" on="0"/>
        <pt x="70" y="-240" on="1"/>
        <pt x="70" y="772" on="1"/>
        <pt x="70" y="789" on="0"/>
        <pt x="94" y="812" on="0"/>
        <pt x="120" y="812" on="1"/>
        <pt x="147" y="812" on="0"/>
        <pt x="171" y="789" on="0"/>
        <pt x="171" y="772" on="1"/>
      </contour>
    </TTGlyph>
    <TTGlyph name="braceleft" xMin="10" yMin="-280" xMax="291" yMax="812">
      <contour>
        <pt x="96" y="264" on="1"/>
        <pt x="109" y="263" on="0"/>
        <pt x="141" y="243" on="0"/>
        <pt x="168" y="207" on="0"/>
        <pt x="186" y="156" on="0"/>
        <pt x="186" y="124" on="1"/>
        <pt x="186" y="64" on="1"/>
        <pt x="186" y="-21" on="0"/>
        <pt x="231" y="-174" on="0"/>
        <pt x="279" y="-227" on="1"/>
        <pt x="287" y="-235" on="0"/>
        <pt x="291" y="-246" on="0"/>
        <pt x="291" y="-251" on="1"/>
        <pt x="291" y="-261" on="0"/>
        <pt x="272" y="-280" on="0"/>
        <pt x="259" y="-280" on="1"/>
        <pt x="249" y="-280" on="0"/>
        <pt x="232" y="-274" on="0"/>
        <pt x="221" y="-263" on="1"/>
        <pt x="188" y="-233" on="0"/>
        <pt x="136" y="-157" on="0"/>
        <pt x="100" y="-71" on="0"/>
        <pt x="82" y="22" on="0"/>
        <pt x="82" y="69" on="1"/>
        <pt x="82" y="170" on="1"/>
        <pt x="82" y="201" on="0"/>
        <pt x="63" y="229" on="0"/>
        <pt x="49" y="229" on="1"/>
        <pt x="39" y="229" on="1"/>
        <pt x="25" y="229" on="0"/>
        <pt x="10" y="249" on="0"/>
        <pt x="10" y="266" on="1"/>
        <pt x="10" y="283" on="0"/>
        <pt x="25" y="303" on="0"/>
        <pt x="39" y="303" on="1"/>
        <pt x="49" y="303" on="1"/>
        <pt x="63" y="303" on="0"/>
        <pt x="82" y="331" on="0"/>
        <pt x="82" y="362" on="1"/>
        <pt x="82" y="463" on="1"/>
        <pt x="82" y="510" on="0"/>
        <pt x="100" y="603" on="0"/>
        <pt x="136" y="689" on="0"/>
        <pt x="188" y="765" on="0"/>
        <pt x="221" y="795" on="1"/>
        <pt x="232" y="806" on="0"/>
        <pt x="249" y="812" on="0"/>
        <pt x="259" y="812" on="1"/>
        <pt x="272" y="812" on="0"/>
        <pt x="291" y="793" on="0"/>
        <pt x="291" y="783" on="1"/>
        <pt x="291" y="778" on="0"/>
        <pt x="287" y="767" on="0"/>
        <pt x="279" y="759" on="1"/>
        <pt x="231" y="706" on="0"/>
        <pt x="186" y="553" on="0"/>
        <pt x="186" y="468" on="1"/>
        <pt x="186" y="408" on="1"/>
        <pt x="186" y="376" on="0"/>
        <pt x="168" y="324" on="0"/>
        <pt x="141" y="288" on="0"/>
        <pt x="109" y="269" on="0"/>
        <pt x="96" y="268" on="1"/>
      </contour>
    </TTGlyph>
    <TTGlyph name="braceright" xMin="10" yMin="-280" xMax="291" yMax="812">
      <contour>
        <pt x="205" y="268" on="1"/>
        <pt x="191" y="269" on="0"/>
        <pt x="160" y="288" on="0"/>
        <pt x="133" y="324" on="0"/>
        <pt x="115" y="376" on="0"/>
        <pt x="115" y="408" on="1"/>
        <pt x="115" y="468" on="1"/>
        <pt x="115" y="553" on="0"/>
        <pt x="70" y="706" on="0"/>
        <pt x="22" y="759" on="1"/>
        <pt x="14" y="767" on="0"/>
        <pt x="10" y="778" on="0"/>
        <pt x="10" y="783" on="1"/>
        <pt x="10" y="793" on="0"/>
        <pt x="29" y="812" on="0"/>
        <pt x="42" y="812" on="1"/>
        <pt x="52" y="812" on="0"/>
        <pt x="69" y="806" on="0"/>
        <pt x="80" y="795" on="1"/>
        <pt x="113" y="765" on="0"/>
        <pt x="165" y="689" on="0"/>
        <pt x="201" y="603" on="0"/>
        <pt x="219" y="510" on="0"/>
        <pt x="219" y="463" on="1"/>
        <pt x="219" y="362" on="1"/>
        <pt x="219" y="331" on="0"/>
        <pt x="238" y="303" on="0"/>
        <pt x="252" y="303" on="1"/>
        <pt x="262" y="303" on="1"/>
        <pt x="276" y="303" on="0"/>
        <pt x="291" y="283" on="0"/>
        <pt x="291" y="266" on="1"/>
        <pt x="291" y="249" on="0"/>
        <pt x="276" y="229" on="0"/>
        <pt x="262" y="229" on="1"/>
        <pt x="252" y="229" on="1"/>
        <pt x="238" y="229" on="0"/>
        <pt x="219" y="201" on="0"/>
        <pt x="219" y="170" on="1"/>
        <pt x="219" y="69" on="1"/>
        <pt x="219" y="22" on="0"/>
        <pt x="201" y="-71" on="0"/>
        <pt x="165" y="-157" on="0"/>
        <pt x="113" y="-233" on="0"/>
        <pt x="80" y="-263" on="1"/>
        <pt x="69" y="-274" on="0"/>
        <pt x="52" y="-280" on="0"/>
        <pt x="42" y="-280" on="1"/>
        <pt x="29" y="-280" on="0"/>
        <pt x="10" y="-261" on="0"/>
        <pt x="10" y="-251" on="1"/>
        <pt x="10" y="-246" on="0"/>
        <pt x="14" y="-235" on="0"/>
        <pt x="22" y="-227" on="1"/>
        <pt x="70" y="-174" on="0"/>
        <pt x="115" y="-21" on="0"/>
        <pt x="115" y="64" on="1"/>
        <pt x="115" y="124" on="1"/>
        <pt x="115" y="156" on="0"/>
        <pt x="133" y="207" on="0"/>
        <pt x="160" y="243" on="0"/>
        <pt x="191" y="263" on="0"/>
        <pt x="205" y="264" on="1"/>
      </contour>
    </TTGlyph>
    <TTGlyph name="bracketleft" xMin="70" yMin="-280" xMax="296" yMax="812">
      <contour>
        <pt x="70" y="772" on="1"/>
        <pt x="70" y="789" on="0"/>
        <pt x="94" y="812" on="0"/>
        <pt x="120" y="812" on="1"/>
        <pt x="267" y="812" on="1"/>
        <pt x="296" y="812" on="0"/>
        <pt x="296" y="779" on="1"/>
        <pt x="296" y="745" on="0"/>
        <pt x="267" y="745" on="1"/>
        <pt x="171" y="745" on="1"/>
        <pt x="171" y="-213" on="1"/>
        <pt x="267" y="-213" on="1"/>
        <pt x="296" y="-213" on="0"/>
        <pt x="296" y="-246" on="1"/>
        <pt x="296" y="-280" on="0"/>
        <pt x="267" y="-280" on="1"/>
        <pt x="120" y="-280" on="1"/>
        <pt x="94" y="-280" on="0"/>
        <pt x="70" y="-257" on="0"/>
        <pt x="70" y="-240" on="1"/>
      </contour>
    </TTGlyph>
    <TTGlyph name="bracketright" xMin="70" yMin="-280" xMax="296" yMax="812">
      <contour>
        <pt x="296" y="-240" on="1"/>
        <pt x="296" y="-257" on="0"/>
        <pt x="272" y="-280" on="0"/>
        <pt x="246" y="-280" on="1"/>
        <pt x="99" y="-280" on="1"/>
        <pt x="70" y="-280" on="0"/>
        <pt x="70" y="-246" on="1"/>
        <pt x="70" y="-213" on="0"/>
        <pt x="99" y="-213" on="1"/>
        <pt x="195" y="-213" on="1"/>
        <pt x="195" y="745" on="1"/>
        <pt x="99" y="745" on="1"/>
        <pt x="70" y="745" on="0"/>
        <pt x="70" y="779" on="1"/>
        <pt x="70" y="812" on="0"/>
        <pt x="99" y="812" on="1"/>
        <pt x="246" y="812" on="1"/>
        <pt x="272" y="812" on="0"/>
        <pt x="296" y="789" on="0"/>
        <pt x="296" y="772" on="1"/>
      </contour>
    </TTGlyph>
    <TTGlyph name="brokenbar" xMin="70" yMin="-280" xMax="171" yMax="812">
      <contour>
        <pt x="171" y="390" on="1"/>
        <pt x="171" y="373" on="0"/>
        <pt x="147" y="350" on="0"/>
        <pt x="120" y="350" on="1"/>
        <pt x="94" y="350" on="0"/>
        <pt x="70" y="373" on="0"/>
        <pt x="70" y="390" on="1"/>
        <pt x="70" y="772" on="1"/>
        <pt x="70" y="789" on="0"/>
        <pt x="94" y="812" on="0"/>
        <pt x="120" y="812" on="1"/>
        <pt x="147" y="812" on="0"/>
        <pt x="171" y="789" on="0"/>
        <pt x="171" y="772" on="1"/>
      </contour>
      <contour>
        <pt x="171" y="-240" on="1"/>
        <pt x="171" y="-257" on="0"/>
        <pt x="147" y="-280" on="0"/>
        <pt x="120" y="-280" on="1"/>
        <pt x="94" y="-280" on="0"/>
        <pt x="70" y="-257" on="0"/>
        <pt x="70" y="-240" on="1"/>
        <pt x="70" y="132" on="1"/>
        <pt x="70" y="149" on="0"/>
        <pt x="94" y="172" on="0"/>
        <pt x="120" y="172" on="1"/>
        <pt x="147" y="172" on="0"/>
        <pt x="171" y="149" on="0"/>
        <pt x="171" y="132" on="1"/>
      </contour>
    </TTGlyph>
    <TTGlyph name="bullet" xMin="60" yMin="136" xMax="181" yMax="262">
      <contour>
        <pt x="121" y="136" on="1"/>
        <pt x="89" y="136" on="0"/>
        <pt x="60" y="161" on="0"/>
        <pt x="60" y="180" on="1"/>
        <pt x="60" y="218" on="1"/>
        <pt x="60" y="237" on="0"/>
        <pt x="89" y="262" on="0"/>
        <pt x="121" y="262" on="1"/>
        <pt x="152" y="262" on="0"/>
        <pt x="181" y="237" on="0"/>
        <pt x="181" y="218" on="1"/>
        <pt x="181" y="180" on="1"/>
        <pt x="181" y="161" on="0"/>
        <pt x="152" y="136" on="0"/>
      </contour>
    </TTGlyph>
    <TTGlyph name="c" xMin="40" yMin="-14" xMax="545" yMax="407">
      <contour>
        <pt x="147" y="154" on="1"/>
        <pt x="147" y="109" on="0"/>
        <pt x="199" y="56" on="0"/>
        <pt x="244" y="56" on="1"/>
        <pt x="291" y="56" on="0"/>
        <pt x="372" y="88" on="0"/>
        <pt x="404" y="117" on="1"/>
        <pt x="419" y="131" on="0"/>
        <pt x="432" y="131" on="1"/>
        <pt x="444" y="131" on="0"/>
        <pt x="461" y="114" on="0"/>
        <pt x="461" y="103" on="1"/>
        <pt x="461" y="98" on="0"/>
        <pt x="457" y="87" on="0"/>
        <pt x="450" y="81" on="1"/>
        <pt x="412" y="43" on="0"/>
        <pt x="286" y="-14" on="0"/>
        <pt x="205" y="-14" on="1"/>
        <pt x="124" y="-14" on="0"/>
        <pt x="40" y="59" on="0"/>
        <pt x="40" y="121" on="1"/>
        <pt x="40" y="173" on="0"/>
        <pt x="97" y="276" on="0"/>
        <pt x="190" y="357" on="0"/>
        <pt x="310" y="407" on="0"/>
        <pt x="373" y="407" on="1"/>
        <pt x="459" y="407" on="0"/>
        <pt x="545" y="352" on="0"/>
        <pt x="545" y="313" on="1"/>
        <pt x="545" y="294" on="0"/>
        <pt x="523" y="267" on="0"/>
        <pt x="499" y="267" on="1"/>
        <pt x="479" y="267" on="0"/>
        <pt x="457" y="279" on="0"/>
        <pt x="442" y="296" on="0"/>
        <pt x="429" y="317" on="0"/>
        <pt x="408" y="334" on="0"/>
        <pt x="373" y="346" on="0"/>
        <pt x="344" y="346" on="1"/>
        <pt x="302" y="346" on="0"/>
        <pt x="230" y="314" on="0"/>
        <pt x="177" y="260" on="0"/>
        <pt x="147" y="191" on="0"/>
      </contour>
    </TTGlyph>
    <TTGlyph name="caron" xMin="20" yMin="475" xMax="273" yMax="621">
      <contour>
        <pt x="82" y="620" on="1"/>
        <pt x="102" y="620" on="0"/>
        <pt x="102" y="605" on="1"/>
        <pt x="102" y="599" on="0"/>
        <pt x="101" y="596" on="1"/>
        <pt x="93" y="569" on="0"/>
        <pt x="87" y="546" on="0"/>
        <pt x="87" y="539" on="1"/>
        <pt x="87" y="531" on="0"/>
        <pt x="100" y="518" on="0"/>
        <pt x="121" y="518" on="1"/>
        <pt x="159" y="518" on="0"/>
        <pt x="197" y="546" on="0"/>
        <pt x="197" y="565" on="1"/>
        <pt x="197" y="579" on="0"/>
        <pt x="189" y="593" on="1"/>
        <pt x="186" y="597" on="0"/>
        <pt x="186" y="603" on="1"/>
        <pt x="186" y="611" on="0"/>
        <pt x="207" y="621" on="0"/>
        <pt x="221" y="621" on="1"/>
        <pt x="234" y="621" on="0"/>
        <pt x="257" y="614" on="0"/>
        <pt x="263" y="608" on="1"/>
        <pt x="273" y="598" on="0"/>
        <pt x="273" y="581" on="1"/>
        <pt x="273" y="564" on="0"/>
        <pt x="251" y="527" on="0"/>
        <pt x="209" y="495" on="0"/>
        <pt x="148" y="475" on="0"/>
        <pt x="108" y="475" on="1"/>
        <pt x="60" y="475" on="0"/>
        <pt x="20" y="502" on="0"/>
        <pt x="20" y="521" on="1"/>
        <pt x="20" y="535" on="0"/>
        <pt x="34" y="583" on="0"/>
        <pt x="44" y="601" on="1"/>
        <pt x="50" y="612" on="0"/>
        <pt x="65" y="620" on="0"/>
      </contour>
    </TTGlyph>
    <TTGlyph name="caron.cap" xMin="20" yMin="696" xMax="273" yMax="842">
      <contour>
        <pt x="82" y="841" on="1"/>
        <pt x="102" y="841" on="0"/>
        <pt x="102" y="826" on="1"/>
        <pt x="102" y="820" on="0"/>
        <pt x="101" y="817" on="1"/>
        <pt x="93" y="790" on="0"/>
        <pt x="87" y="767" on="0"/>
        <pt x="87" y="760" on="1"/>
        <pt x="87" y="752" on="0"/>
        <pt x="100" y="739" on="0"/>
        <pt x="121" y="739" on="1"/>
        <pt x="159" y="739" on="0"/>
        <pt x="197" y="767" on="0"/>
        <pt x="197" y="786" on="1"/>
        <pt x="197" y="800" on="0"/>
        <pt x="189" y="814" on="1"/>
        <pt x="186" y="818" on="0"/>
        <pt x="186" y="824" on="1"/>
        <pt x="186" y="832" on="0"/>
        <pt x="207" y="842" on="0"/>
        <pt x="221" y="842" on="1"/>
        <pt x="234" y="842" on="0"/>
        <pt x="257" y="835" on="0"/>
        <pt x="263" y="829" on="1"/>
        <pt x="273" y="819" on="0"/>
        <pt x="273" y="802" on="1"/>
        <pt x="273" y="785" on="0"/>
        <pt x="251" y="748" on="0"/>
        <pt x="209" y="716" on="0"/>
        <pt x="148" y="696" on="0"/>
        <pt x="108" y="696" on="1"/>
        <pt x="60" y="696" on="0"/>
        <pt x="20" y="723" on="0"/>
        <pt x="20" y="742" on="1"/>
        <pt x="20" y="756" on="0"/>
        <pt x="34" y="804" on="0"/>
        <pt x="44" y="822" on="1"/>
        <pt x="50" y="833" on="0"/>
        <pt x="65" y="841" on="0"/>
      </contour>
    </TTGlyph>
    <TTGlyph name="ccedilla" xMin="40" yMin="-309" xMax="545" yMax="407">
      <contour>
        <pt x="147" y="154" on="1"/>
        <pt x="147" y="109" on="0"/>
        <pt x="199" y="56" on="0"/>
        <pt x="244" y="56" on="1"/>
        <pt x="291" y="56" on="0"/>
        <pt x="372" y="88" on="0"/>
        <pt x="404" y="117" on="1"/>
        <pt x="419" y="131" on="0"/>
        <pt x="432" y="131" on="1"/>
        <pt x="444" y="131" on="0"/>
        <pt x="461" y="114" on="0"/>
        <pt x="461" y="103" on="1"/>
        <pt x="461" y="98" on="0"/>
        <pt x="457" y="87" on="0"/>
        <pt x="450" y="81" on="1"/>
        <pt x="423" y="54" on="0"/>
        <pt x="344" y="8" on="0"/>
        <pt x="293" y="-3" on="1"/>
        <pt x="214" y="-89" on="1"/>
        <pt x="223" y="-85" on="0"/>
        <pt x="250" y="-82" on="0"/>
        <pt x="258" y="-82" on="1"/>
        <pt x="361" y="-82" on="0"/>
        <pt x="361" y="-164" on="1"/>
        <pt x="361" y="-192" on="0"/>
        <pt x="332" y="-244" on="0"/>
        <pt x="281" y="-285" on="0"/>
        <pt x="212" y="-309" on="0"/>
        <pt x="172" y="-309" on="1"/>
        <pt x="125" y="-309" on="0"/>
        <pt x="75" y="-278" on="0"/>
        <pt x="75" y="-255" on="1"/>
        <pt x="75" y="-241" on="0"/>
        <pt x="89" y="-223" on="0"/>
        <pt x="103" y="-223" on="1"/>
        <pt x="119" y="-223" on="0"/>
        <pt x="131" y="-234" on="0"/>
        <pt x="142" y="-247" on="0"/>
        <pt x="162" y="-258" on="0"/>
        <pt x="186" y="-258" on="1"/>
        <pt x="230" y="-258" on="0"/>
        <pt x="285" y="-213" on="0"/>
        <pt x="285" y="-181" on="1"/>
        <pt x="285" y="-158" on="0"/>
        <pt x="258" y="-130" on="0"/>
        <pt x="238" y="-130" on="1"/>
        <pt x="218" y="-130" on="0"/>
        <pt x="184" y="-139" on="0"/>
        <pt x="170" y="-147" on="1"/>
        <pt x="156" y="-155" on="0"/>
        <pt x="146" y="-155" on="1"/>
        <pt x="136" y="-155" on="0"/>
        <pt x="128" y="-147" on="1"/>
        <pt x="119" y="-140" on="0"/>
        <pt x="119" y="-128" on="1"/>
        <pt x="119" y="-116" on="0"/>
        <pt x="133" y="-100" on="1"/>
        <pt x="217" y="-14" on="1"/>
        <pt x="205" y="-14" on="1"/>
        <pt x="124" y="-14" on="0"/>
        <pt x="40" y="59" on="0"/>
        <pt x="40" y="121" on="1"/>
        <pt x="40" y="173" on="0"/>
        <pt x="97" y="276" on="0"/>
        <pt x="190" y="357" on="0"/>
        <pt x="310" y="407" on="0"/>
        <pt x="373" y="407" on="1"/>
        <pt x="459" y="407" on="0"/>
        <pt x="545" y="352" on="0"/>
        <pt x="545" y="313" on="1"/>
        <pt x="545" y="294" on="0"/>
        <pt x="523" y="267" on="0"/>
        <pt x="499" y="267" on="1"/>
        <pt x="479" y="267" on="0"/>
        <pt x="457" y="279" on="0"/>
        <pt x="442" y="296" on="0"/>
        <pt x="429" y="317" on="0"/>
        <pt x="408" y="334" on="0"/>
        <pt x="373" y="346" on="0"/>
        <pt x="344" y="346" on="1"/>
        <pt x="302" y="346" on="0"/>
        <pt x="230" y="314" on="0"/>
        <pt x="177" y="260" on="0"/>
        <pt x="147" y="191" on="0"/>
      </contour>
    </TTGlyph>
    <TTGlyph name="cedilla" xMin="168" yMin="-309" xMax="454" yMax="51">
      <contour>
        <pt x="307" y="-89" on="1"/>
        <pt x="316" y="-85" on="0"/>
        <pt x="343" y="-82" on="0"/>
        <pt x="351" y="-82" on="1"/>
        <pt x="454" y="-82" on="0"/>
        <pt x="454" y="-164" on="1"/>
        <pt x="454" y="-192" on="0"/>
        <pt x="425" y="-244" on="0"/>
        <pt x="374" y="-285" on="0"/>
        <pt x="305" y="-309" on="0"/>
        <pt x="265" y="-309" on="1"/>
        <pt x="218" y="-309" on="0"/>
        <pt x="168" y="-278" on="0"/>
        <pt x="168" y="-255" on="1"/>
        <pt x="168" y="-241" on="0"/>
        <pt x="182" y="-223" on="0"/>
        <pt x="196" y="-223" on="1"/>
        <pt x="212" y="-223" on="0"/>
        <pt x="224" y="-234" on="0"/>
        <pt x="235" y="-247" on="0"/>
        <pt x="255" y="-258" on="0"/>
        <pt x="279" y="-258" on="1"/>
        <pt x="323" y="-258" on="0"/>
        <pt x="378" y="-213" on="0"/>
        <pt x="378" y="-181" on="1"/>
        <pt x="378" y="-158" on="0"/>
        <pt x="351" y="-130" on="0"/>
        <pt x="331" y="-130" on="1"/>
        <pt x="311" y="-130" on="0"/>
        <pt x="277" y="-139" on="0"/>
        <pt x="263" y="-147" on="1"/>
        <pt x="249" y="-155" on="0"/>
        <pt x="239" y="-155" on="1"/>
        <pt x="229" y="-155" on="0"/>
        <pt x="221" y="-147" on="1"/>
        <pt x="212" y="-140" on="0"/>
        <pt x="212" y="-128" on="1"/>
        <pt x="212" y="-116" on="0"/>
        <pt x="226" y="-100" on="1"/>
        <pt x="363" y="40" on="1"/>
        <pt x="372" y="51" on="0"/>
        <pt x="379" y="51" on="1"/>
        <pt x="386" y="51" on="0"/>
        <pt x="395" y="42" on="1"/>
        <pt x="406" y="31" on="0"/>
        <pt x="406" y="25" on="1"/>
        <pt x="406" y="21" on="0"/>
        <pt x="401" y="13" on="0"/>
        <pt x="397" y="8" on="1"/>
      </contour>
    </TTGlyph>
    <TTGlyph name="cent" xMin="40" yMin="-109" xMax="545" yMax="501">
      <contour>
        <pt x="326" y="403" on="1"/>
        <pt x="337" y="405" on="0"/>
        <pt x="361" y="407" on="0"/>
        <pt x="373" y="407" on="1"/>
        <pt x="459" y="407" on="0"/>
        <pt x="545" y="352" on="0"/>
        <pt x="545" y="313" on="1"/>
        <pt x="545" y="294" on="0"/>
        <pt x="523" y="267" on="0"/>
        <pt x="499" y="267" on="1"/>
        <pt x="479" y="267" on="0"/>
        <pt x="457" y="279" on="0"/>
        <pt x="442" y="296" on="0"/>
        <pt x="429" y="317" on="0"/>
        <pt x="408" y="334" on="0"/>
        <pt x="373" y="346" on="0"/>
        <pt x="344" y="346" on="1"/>
        <pt x="302" y="346" on="0"/>
        <pt x="230" y="314" on="0"/>
        <pt x="177" y="260" on="0"/>
        <pt x="147" y="191" on="0"/>
        <pt x="147" y="154" on="1"/>
        <pt x="147" y="109" on="0"/>
        <pt x="199" y="56" on="0"/>
        <pt x="242" y="56" on="1"/>
        <pt x="280" y="56" on="0"/>
        <pt x="360" y="87" on="0"/>
        <pt x="394" y="117" on="1"/>
        <pt x="411" y="131" on="0"/>
        <pt x="422" y="131" on="1"/>
        <pt x="434" y="131" on="0"/>
        <pt x="451" y="114" on="0"/>
        <pt x="451" y="103" on="1"/>
        <pt x="451" y="98" on="0"/>
        <pt x="447" y="87" on="0"/>
        <pt x="440" y="81" on="1"/>
        <pt x="418" y="59" on="0"/>
        <pt x="356" y="21" on="0"/>
        <pt x="319" y="7" on="1"/>
        <pt x="319" y="-73" on="1"/>
        <pt x="319" y="-89" on="0"/>
        <pt x="298" y="-109" on="0"/>
        <pt x="274" y="-109" on="1"/>
        <pt x="251" y="-109" on="0"/>
        <pt x="229" y="-89" on="0"/>
        <pt x="229" y="-73" on="1"/>
        <pt x="229" y="-13" on="1"/>
        <pt x="223" y="-13" on="0"/>
        <pt x="211" y="-14" on="0"/>
        <pt x="205" y="-14" on="1"/>
        <pt x="124" y="-14" on="0"/>
        <pt x="40" y="59" on="0"/>
        <pt x="40" y="121" on="1"/>
        <pt x="40" y="158" on="0"/>
        <pt x="70" y="233" on="0"/>
        <pt x="123" y="301" on="0"/>
        <pt x="194" y="357" on="0"/>
        <pt x="236" y="376" on="1"/>
        <pt x="236" y="465" on="1"/>
        <pt x="236" y="481" on="0"/>
        <pt x="258" y="501" on="0"/>
        <pt x="281" y="501" on="1"/>
        <pt x="305" y="501" on="0"/>
        <pt x="326" y="481" on="0"/>
        <pt x="326" y="465" on="1"/>
      </contour>
    </TTGlyph>
    <TTGlyph name="circumflex" xMin="20" yMin="475" xMax="273" yMax="621">
      <contour>
        <pt x="211" y="476" on="1"/>
        <pt x="191" y="476" on="0"/>
        <pt x="191" y="491" on="1"/>
        <pt x="191" y="497" on="0"/>
        <pt x="192" y="500" on="1"/>
        <pt x="200" y="527" on="0"/>
        <pt x="206" y="550" on="0"/>
        <pt x="206" y="557" on="1"/>
        <pt x="206" y="565" on="0"/>
        <pt x="193" y="578" on="0"/>
        <pt x="172" y="578" on="1"/>
        <pt x="134" y="578" on="0"/>
        <pt x="96" y="550" on="0"/>
        <pt x="96" y="531" on="1"/>
        <pt x="96" y="517" on="0"/>
        <pt x="104" y="503" on="1"/>
        <pt x="107" y="498" on="0"/>
        <pt x="107" y="493" on="1"/>
        <pt x="107" y="485" on="0"/>
        <pt x="86" y="475" on="0"/>
        <pt x="72" y="475" on="1"/>
        <pt x="59" y="475" on="0"/>
        <pt x="36" y="482" on="0"/>
        <pt x="30" y="488" on="1"/>
        <pt x="20" y="498" on="0"/>
        <pt x="20" y="515" on="1"/>
        <pt x="20" y="532" on="0"/>
        <pt x="42" y="569" on="0"/>
        <pt x="84" y="601" on="0"/>
        <pt x="145" y="621" on="0"/>
        <pt x="185" y="621" on="1"/>
        <pt x="233" y="621" on="0"/>
        <pt x="273" y="594" on="0"/>
        <pt x="273" y="575" on="1"/>
        <pt x="273" y="561" on="0"/>
        <pt x="259" y="513" on="0"/>
        <pt x="249" y="495" on="1"/>
        <pt x="243" y="484" on="0"/>
        <pt x="228" y="476" on="0"/>
      </contour>
    </TTGlyph>
    <TTGlyph name="circumflex.cap" xMin="20" yMin="696" xMax="273" yMax="842">
      <contour>
        <pt x="211" y="697" on="1"/>
        <pt x="191" y="697" on="0"/>
        <pt x="191" y="712" on="1"/>
        <pt x="191" y="718" on="0"/>
        <pt x="192" y="721" on="1"/>
        <pt x="200" y="748" on="0"/>
        <pt x="206" y="771" on="0"/>
        <pt x="206" y="778" on="1"/>
        <pt x="206" y="786" on="0"/>
        <pt x="193" y="799" on="0"/>
        <pt x="172" y="799" on="1"/>
        <pt x="134" y="799" on="0"/>
        <pt x="96" y="771" on="0"/>
        <pt x="96" y="752" on="1"/>
        <pt x="96" y="738" on="0"/>
        <pt x="104" y="724" on="1"/>
        <pt x="107" y="719" on="0"/>
        <pt x="107" y="714" on="1"/>
        <pt x="107" y="706" on="0"/>
        <pt x="86" y="696" on="0"/>
        <pt x="72" y="696" on="1"/>
        <pt x="59" y="696" on="0"/>
        <pt x="36" y="703" on="0"/>
        <pt x="30" y="709" on="1"/>
        <pt x="20" y="719" on="0"/>
        <pt x="20" y="736" on="1"/>
        <pt x="20" y="753" on="0"/>
        <pt x="42" y="790" on="0"/>
        <pt x="84" y="822" on="0"/>
        <pt x="145" y="842" on="0"/>
        <pt x="185" y="842" on="1"/>
        <pt x="233" y="842" on="0"/>
        <pt x="273" y="815" on="0"/>
        <pt x="273" y="796" on="1"/>
        <pt x="273" y="782" on="0"/>
        <pt x="259" y="734" on="0"/>
        <pt x="249" y="716" on="1"/>
        <pt x="243" y="705" on="0"/>
        <pt x="228" y="697" on="0"/>
      </contour>
    </TTGlyph>
    <TTGlyph name="colon" xMin="60" yMin="-4" xMax="161" yMax="355">
      <contour>
        <pt x="111" y="249" on="1"/>
        <pt x="85" y="249" on="0"/>
        <pt x="60" y="270" on="0"/>
        <pt x="60" y="286" on="1"/>
        <pt x="60" y="318" on="1"/>
        <pt x="60" y="334" on="0"/>
        <pt x="85" y="355" on="0"/>
        <pt x="111" y="355" on="1"/>
        <pt x="137" y="355" on="0"/>
        <pt x="161" y="334" on="0"/>
        <pt x="161" y="318" on="1"/>
        <pt x="161" y="286" on="1"/>
        <pt x="161" y="270" on="0"/>
        <pt x="137" y="249" on="0"/>
      </contour>
      <contour>
        <pt x="111" y="-4" on="1"/>
        <pt x="85" y="-4" on="0"/>
        <pt x="60" y="17" on="0"/>
        <pt x="60" y="33" on="1"/>
        <pt x="60" y="65" on="1"/>
        <pt x="60" y="81" on="0"/>
        <pt x="85" y="102" on="0"/>
        <pt x="111" y="102" on="1"/>
        <pt x="137" y="102" on="0"/>
        <pt x="161" y="81" on="0"/>
        <pt x="161" y="65" on="1"/>
        <pt x="161" y="33" on="1"/>
        <pt x="161" y="17" on="0"/>
        <pt x="137" y="-4" on="0"/>
      </contour>
    </TTGlyph>
    <TTGlyph name="comma" xMin="43" yMin="-120" xMax="161" yMax="102">
      <contour>
        <pt x="161" y="37" on="1"/>
        <pt x="161" y="25" on="0"/>
        <pt x="151" y="-2" on="0"/>
        <pt x="137" y="-33" on="1"/>
        <pt x="104" y="-106" on="1"/>
        <pt x="98" y="-120" on="0"/>
        <pt x="83" y="-120" on="1"/>
        <pt x="75" y="-120" on="0"/>
        <pt x="66" y="-116" on="1"/>
        <pt x="43" y="-107" on="0"/>
        <pt x="43" y="-91" on="1"/>
        <pt x="43" y="-88" on="0"/>
        <pt x="45" y="-82" on="1"/>
        <pt x="81" y="1" on="1"/>
        <pt x="60" y="11" on="0"/>
        <pt x="60" y="33" on="1"/>
        <pt x="60" y="65" on="1"/>
        <pt x="60" y="81" on="0"/>
        <pt x="85" y="102" on="0"/>
        <pt x="111" y="102" on="1"/>
        <pt x="137" y="102" on="0"/>
        <pt x="161" y="81" on="0"/>
        <pt x="161" y="65" on="1"/>
      </contour>
    </TTGlyph>
    <TTGlyph name="commaaccent" xMin="20" yMin="-97" xMax="118" yMax="80">
      <contour>
        <pt x="118" y="20" on="1"/>
        <pt x="118" y="9" on="0"/>
        <pt x="109" y="-16" on="0"/>
        <pt x="96" y="-45" on="1"/>
        <pt x="77" y="-84" on="1"/>
        <pt x="73" y="-97" on="0"/>
        <pt x="58" y="-97" on="1"/>
        <pt x="51" y="-97" on="0"/>
        <pt x="42" y="-94" on="1"/>
        <pt x="20" y="-85" on="0"/>
        <pt x="20" y="-70" on="1"/>
        <pt x="20" y="-68" on="0"/>
        <pt x="22" y="-62" on="1"/>
        <pt x="44" y="-14" on="1"/>
        <pt x="24" y="-3" on="0"/>
        <pt x="24" y="16" on="1"/>
        <pt x="24" y="46" on="1"/>
        <pt x="24" y="60" on="0"/>
        <pt x="47" y="80" on="0"/>
        <pt x="72" y="80" on="1"/>
        <pt x="95" y="80" on="0"/>
        <pt x="118" y="60" on="0"/>
        <pt x="118" y="46" on="1"/>
      </contour>
    </TTGlyph>
    <TTGlyph name="copyright" xMin="41" yMin="-14" xMax="714" yMax="555">
      <contour>
        <pt x="267" y="243" on="1"/>
        <pt x="267" y="209" on="0"/>
        <pt x="306" y="171" on="0"/>
        <pt x="338" y="171" on="1"/>
        <pt x="406" y="171" on="0"/>
        <pt x="457" y="216" on="1"/>
        <pt x="466" y="225" on="0"/>
        <pt x="476" y="225" on="1"/>
        <pt x="485" y="225" on="0"/>
        <pt x="498" y="213" on="0"/>
        <pt x="498" y="205" on="1"/>
        <pt x="498" y="190" on="0"/>
        <pt x="461" y="160" on="0"/>
        <pt x="405" y="135" on="0"/>
        <pt x="339" y="119" on="0"/>
        <pt x="310" y="119" on="1"/>
        <pt x="250" y="119" on="0"/>
        <pt x="189" y="173" on="0"/>
        <pt x="189" y="218" on="1"/>
        <pt x="189" y="256" on="0"/>
        <pt x="231" y="331" on="0"/>
        <pt x="299" y="391" on="0"/>
        <pt x="387" y="428" on="0"/>
        <pt x="434" y="428" on="1"/>
        <pt x="497" y="428" on="0"/>
        <pt x="559" y="388" on="0"/>
        <pt x="559" y="359" on="1"/>
        <pt x="559" y="345" on="0"/>
        <pt x="544" y="325" on="0"/>
        <pt x="526" y="325" on="1"/>
        <pt x="504" y="325" on="0"/>
        <pt x="487" y="343" on="0"/>
        <pt x="471" y="365" on="0"/>
        <pt x="444" y="383" on="0"/>
        <pt x="412" y="383" on="1"/>
        <pt x="382" y="383" on="0"/>
        <pt x="329" y="359" on="0"/>
        <pt x="290" y="320" on="0"/>
        <pt x="267" y="270" on="0"/>
      </contour>
      <contour>
        <pt x="443" y="555" on="1"/>
        <pt x="504" y="555" on="0"/>
        <pt x="604" y="524" on="0"/>
        <pt x="675" y="467" on="0"/>
        <pt x="714" y="389" on="0"/>
        <pt x="714" y="342" on="1"/>
        <pt x="714" y="279" on="0"/>
        <pt x="655" y="152" on="0"/>
        <pt x="549" y="50" on="0"/>
        <pt x="400" y="-14" on="0"/>
        <pt x="310" y="-14" on="1"/>
        <pt x="245" y="-14" on="0"/>
        <pt x="145" y="17" on="0"/>
        <pt x="77" y="74" on="0"/>
        <pt x="41" y="154" on="0"/>
        <pt x="41" y="203" on="1"/>
        <pt x="41" y="273" on="0"/>
        <pt x="105" y="401" on="0"/>
        <pt x="214" y="498" on="0"/>
        <pt x="360" y="555" on="0"/>
      </contour>
      <contour>
        <pt x="411" y="502" on="1"/>
        <pt x="354" y="502" on="0"/>
        <pt x="250" y="459" on="0"/>
        <pt x="171" y="384" on="0"/>
        <pt x="124" y="283" on="0"/>
        <pt x="124" y="225" on="1"/>
        <pt x="124" y="134" on="0"/>
        <pt x="233" y="39" on="0"/>
        <pt x="335" y="39" on="1"/>
        <pt x="398" y="39" on="0"/>
        <pt x="506" y="87" on="0"/>
        <pt x="586" y="166" on="0"/>
        <pt x="632" y="266" on="0"/>
        <pt x="632" y="317" on="1"/>
        <pt x="632" y="405" on="0"/>
        <pt x="515" y="502" on="0"/>
      </contour>
    </TTGlyph>
    <TTGlyph name="currency" xMin="70" yMin="138" xMax="441" yMax="510">
      <contour>
        <pt x="103" y="218" on="1"/>
        <pt x="87" y="238" on="0"/>
        <pt x="87" y="268" on="1"/>
        <pt x="87" y="300" on="0"/>
        <pt x="117" y="363" on="0"/>
        <pt x="143" y="390" on="1"/>
        <pt x="99" y="434" on="1"/>
        <pt x="91" y="444" on="0"/>
        <pt x="91" y="453" on="1"/>
        <pt x="91" y="467" on="0"/>
        <pt x="103" y="479" on="1"/>
        <pt x="114" y="490" on="0"/>
        <pt x="128" y="490" on="1"/>
        <pt x="139" y="490" on="0"/>
        <pt x="147" y="482" on="1"/>
        <pt x="197" y="431" on="1"/>
        <pt x="223" y="445" on="0"/>
        <pt x="280" y="462" on="0"/>
        <pt x="312" y="462" on="1"/>
        <pt x="320" y="462" on="0"/>
        <pt x="336" y="461" on="0"/>
        <pt x="344" y="460" on="1"/>
        <pt x="385" y="501" on="1"/>
        <pt x="394" y="510" on="0"/>
        <pt x="405" y="510" on="1"/>
        <pt x="418" y="510" on="0"/>
        <pt x="430" y="498" on="1"/>
        <pt x="441" y="485" on="0"/>
        <pt x="441" y="473" on="1"/>
        <pt x="441" y="461" on="0"/>
        <pt x="433" y="454" on="1"/>
        <pt x="409" y="430" on="1"/>
        <pt x="425" y="411" on="0"/>
        <pt x="425" y="382" on="1"/>
        <pt x="425" y="350" on="0"/>
        <pt x="394" y="286" on="0"/>
        <pt x="368" y="259" on="1"/>
        <pt x="413" y="215" on="1"/>
        <pt x="422" y="206" on="0"/>
        <pt x="422" y="195" on="1"/>
        <pt x="422" y="184" on="0"/>
        <pt x="411" y="171" on="1"/>
        <pt x="399" y="159" on="0"/>
        <pt x="386" y="159" on="1"/>
        <pt x="375" y="159" on="0"/>
        <pt x="366" y="168" on="1"/>
        <pt x="315" y="218" on="1"/>
        <pt x="289" y="204" on="0"/>
        <pt x="231" y="187" on="0"/>
        <pt x="199" y="187" on="1"/>
        <pt x="182" y="187" on="1"/>
        <pt x="175" y="187" on="0"/>
        <pt x="168" y="189" on="1"/>
        <pt x="126" y="147" on="1"/>
        <pt x="117" y="138" on="0"/>
        <pt x="106" y="138" on="1"/>
        <pt x="94" y="138" on="0"/>
        <pt x="82" y="150" on="1"/>
        <pt x="70" y="162" on="0"/>
        <pt x="70" y="175" on="1"/>
        <pt x="70" y="186" on="0"/>
        <pt x="79" y="194" on="1"/>
      </contour>
      <contour>
        <pt x="280" y="407" on="1"/>
        <pt x="257" y="407" on="0"/>
        <pt x="215" y="389" on="0"/>
        <pt x="184" y="359" on="0"/>
        <pt x="166" y="320" on="0"/>
        <pt x="166" y="299" on="1"/>
        <pt x="166" y="271" on="0"/>
        <pt x="201" y="242" on="0"/>
        <pt x="230" y="242" on="1"/>
        <pt x="253" y="242" on="0"/>
        <pt x="295" y="260" on="0"/>
        <pt x="328" y="290" on="0"/>
        <pt x="347" y="330" on="0"/>
        <pt x="347" y="351" on="1"/>
        <pt x="347" y="379" on="0"/>
        <pt x="311" y="407" on="0"/>
      </contour>
    </TTGlyph>
    <TTGlyph name="d" xMin="40" yMin="-14" xMax="477" yMax="702">
      <contour>
        <pt x="375" y="352" on="1"/>
        <pt x="364" y="354" on="0"/>
        <pt x="344" y="356" on="0"/>
        <pt x="327" y="356" on="1"/>
        <pt x="291" y="356" on="0"/>
        <pt x="225" y="325" on="0"/>
        <pt x="173" y="270" on="0"/>
        <pt x="142" y="196" on="0"/>
        <pt x="142" y="153" on="1"/>
        <pt x="142" y="107" on="0"/>
        <pt x="192" y="54" on="0"/>
        <pt x="227" y="54" on="1"/>
        <pt x="259" y="54" on="0"/>
        <pt x="331" y="76" on="0"/>
        <pt x="372" y="102" on="1"/>
        <pt x="374" y="123" on="0"/>
        <pt x="375" y="168" on="0"/>
        <pt x="375" y="196" on="1"/>
      </contour>
      <contour>
        <pt x="473" y="148" on="1"/>
        <pt x="473" y="134" on="0"/>
        <pt x="477" y="117" on="0"/>
        <pt x="477" y="111" on="1"/>
        <pt x="477" y="103" on="0"/>
        <pt x="464" y="88" on="0"/>
        <pt x="444" y="73" on="1"/>
        <pt x="419" y="54" on="0"/>
        <pt x="359" y="22" on="0"/>
        <pt x="297" y="-1" on="0"/>
        <pt x="236" y="-14" on="0"/>
        <pt x="210" y="-14" on="1"/>
        <pt x="124" y="-14" on="0"/>
        <pt x="40" y="59" on="0"/>
        <pt x="40" y="122" on="1"/>
        <pt x="40" y="177" on="0"/>
        <pt x="91" y="280" on="0"/>
        <pt x="173" y="359" on="0"/>
        <pt x="276" y="407" on="0"/>
        <pt x="327" y="407" on="1"/>
        <pt x="341" y="407" on="0"/>
        <pt x="366" y="406" on="0"/>
        <pt x="374" y="405" on="1"/>
        <pt x="374" y="662" on="1"/>
        <pt x="374" y="679" on="0"/>
        <pt x="397" y="702" on="0"/>
        <pt x="423" y="702" on="1"/>
        <pt x="450" y="702" on="0"/>
        <pt x="473" y="679" on="0"/>
        <pt x="473" y="662" on="1"/>
      </contour>
    </TTGlyph>
    <TTGlyph name="degree" xMin="40" yMin="427" xMax="378" yMax="702">
      <contour>
        <pt x="265" y="702" on="1"/>
        <pt x="325" y="702" on="0"/>
        <pt x="378" y="658" on="0"/>
        <pt x="378" y="622" on="1"/>
        <pt x="378" y="588" on="0"/>
        <pt x="343" y="518" on="0"/>
        <pt x="281" y="462" on="0"/>
        <pt x="199" y="427" on="0"/>
        <pt x="152" y="427" on="1"/>
        <pt x="92" y="427" on="0"/>
        <pt x="40" y="472" on="0"/>
        <pt x="40" y="508" on="1"/>
        <pt x="40" y="543" on="0"/>
        <pt x="76" y="612" on="0"/>
        <pt x="137" y="668" on="0"/>
        <pt x="219" y="702" on="0"/>
      </contour>
      <contour>
        <pt x="233" y="647" on="1"/>
        <pt x="210" y="647" on="0"/>
        <pt x="170" y="629" on="0"/>
        <pt x="141" y="599" on="0"/>
        <pt x="124" y="560" on="0"/>
        <pt x="124" y="539" on="1"/>
        <pt x="124" y="513" on="0"/>
        <pt x="156" y="482" on="0"/>
        <pt x="183" y="482" on="1"/>
        <pt x="206" y="482" on="0"/>
        <pt x="247" y="500" on="0"/>
        <pt x="277" y="530" on="0"/>
        <pt x="295" y="570" on="0"/>
        <pt x="295" y="591" on="1"/>
        <pt x="295" y="617" on="0"/>
        <pt x="262" y="647" on="0"/>
      </contour>
    </TTGlyph>
    <TTGlyph name="dieresis" xMin="20" yMin="505" xMax="296" yMax="613">
      <contour>
        <pt x="71" y="505" on="1"/>
        <pt x="45" y="505" on="0"/>
        <pt x="20" y="527" on="0"/>
        <pt x="20" y="542" on="1"/>
        <pt x="20" y="575" on="1"/>
        <pt x="20" y="590" on="0"/>
        <pt x="45" y="612" on="0"/>
        <pt x="71" y="612" on="1"/>
        <pt x="97" y="612" on="0"/>
        <pt x="121" y="590" on="0"/>
        <pt x="121" y="575" on="1"/>
        <pt x="121" y="542" on="1"/>
        <pt x="121" y="527" on="0"/>
        <pt x="97" y="505" on="0"/>
      </contour>
      <contour>
        <pt x="245" y="506" on="1"/>
        <pt x="219" y="506" on="0"/>
        <pt x="195" y="528" on="0"/>
        <pt x="195" y="543" on="1"/>
        <pt x="195" y="576" on="1"/>
        <pt x="195" y="591" on="0"/>
        <pt x="219" y="613" on="0"/>
        <pt x="245" y="613" on="1"/>
        <pt x="271" y="613" on="0"/>
        <pt x="296" y="591" on="0"/>
        <pt x="296" y="576" on="1"/>
        <pt x="296" y="543" on="1"/>
        <pt x="296" y="528" on="0"/>
        <pt x="271" y="506" on="0"/>
      </contour>
    </TTGlyph>
    <TTGlyph name="dieresis.cap" xMin="20" yMin="715" xMax="296" yMax="823">
      <contour>
        <pt x="71" y="715" on="1"/>
        <pt x="45" y="715" on="0"/>
        <pt x="20" y="737" on="0"/>
        <pt x="20" y="752" on="1"/>
        <pt x="20" y="785" on="1"/>
        <pt x="20" y="800" on="0"/>
        <pt x="45" y="822" on="0"/>
        <pt x="71" y="822" on="1"/>
        <pt x="97" y="822" on="0"/>
        <pt x="121" y="800" on="0"/>
        <pt x="121" y="785" on="1"/>
        <pt x="121" y="752" on="1"/>
        <pt x="121" y="737" on="0"/>
        <pt x="97" y="715" on="0"/>
      </contour>
      <contour>
        <pt x="245" y="716" on="1"/>
        <pt x="219" y="716" on="0"/>
        <pt x="195" y="738" on="0"/>
        <pt x="195" y="753" on="1"/>
        <pt x="195" y="786" on="1"/>
        <pt x="195" y="801" on="0"/>
        <pt x="219" y="823" on="0"/>
        <pt x="245" y="823" on="1"/>
        <pt x="271" y="823" on="0"/>
        <pt x="296" y="801" on="0"/>
        <pt x="296" y="786" on="1"/>
        <pt x="296" y="753" on="1"/>
        <pt x="296" y="738" on="0"/>
        <pt x="271" y="716" on="0"/>
      </contour>
    </TTGlyph>
    <TTGlyph name="divide" xMin="30" yMin="112" xMax="317" yMax="399">
      <contour>
        <pt x="174" y="314" on="1"/>
        <pt x="154" y="314" on="0"/>
        <pt x="134" y="331" on="0"/>
        <pt x="134" y="344" on="1"/>
        <pt x="134" y="369" on="1"/>
        <pt x="134" y="383" on="0"/>
        <pt x="154" y="399" on="0"/>
        <pt x="174" y="399" on="1"/>
        <pt x="196" y="399" on="0"/>
        <pt x="215" y="383" on="0"/>
        <pt x="215" y="369" on="1"/>
        <pt x="215" y="344" on="1"/>
        <pt x="215" y="331" on="0"/>
        <pt x="196" y="314" on="0"/>
      </contour>
      <contour>
        <pt x="174" y="112" on="1"/>
        <pt x="154" y="112" on="0"/>
        <pt x="134" y="128" on="0"/>
        <pt x="134" y="142" on="1"/>
        <pt x="134" y="167" on="1"/>
        <pt x="134" y="179" on="0"/>
        <pt x="154" y="197" on="0"/>
        <pt x="174" y="197" on="1"/>
        <pt x="196" y="197" on="0"/>
        <pt x="215" y="179" on="0"/>
        <pt x="215" y="167" on="1"/>
        <pt x="215" y="142" on="1"/>
        <pt x="215" y="128" on="0"/>
        <pt x="196" y="112" on="0"/>
      </contour>
      <contour>
        <pt x="59" y="222" on="1"/>
        <pt x="45" y="222" on="0"/>
        <pt x="30" y="241" on="0"/>
        <pt x="30" y="256" on="1"/>
        <pt x="30" y="270" on="0"/>
        <pt x="45" y="289" on="0"/>
        <pt x="59" y="289" on="1"/>
        <pt x="288" y="289" on="1"/>
        <pt x="302" y="289" on="0"/>
        <pt x="317" y="270" on="0"/>
        <pt x="317" y="256" on="1"/>
        <pt x="317" y="241" on="0"/>
        <pt x="302" y="222" on="0"/>
        <pt x="288" y="222" on="1"/>
      </contour>
    </TTGlyph>
    <TTGlyph name="dollar" xMin="61" yMin="-100" xMax="624" yMax="722">
      <contour>
        <pt x="335" y="59" on="1"/>
        <pt x="372" y="59" on="0"/>
        <pt x="430" y="79" on="0"/>
        <pt x="471" y="112" on="0"/>
        <pt x="492" y="154" on="0"/>
        <pt x="492" y="175" on="1"/>
        <pt x="492" y="189" on="0"/>
        <pt x="485" y="211" on="0"/>
        <pt x="464" y="229" on="0"/>
        <pt x="426" y="246" on="0"/>
        <pt x="395" y="255" on="1"/>
        <pt x="262" y="293" on="1"/>
        <pt x="199" y="311" on="0"/>
        <pt x="130" y="385" on="0"/>
        <pt x="130" y="444" on="1"/>
        <pt x="130" y="472" on="0"/>
        <pt x="157" y="526" on="0"/>
        <pt x="207" y="571" on="0"/>
        <pt x="277" y="604" on="0"/>
        <pt x="319" y="612" on="1"/>
        <pt x="319" y="682" on="1"/>
        <pt x="319" y="699" on="0"/>
        <pt x="343" y="722" on="0"/>
        <pt x="369" y="722" on="1"/>
        <pt x="396" y="722" on="0"/>
        <pt x="420" y="699" on="0"/>
        <pt x="420" y="682" on="1"/>
        <pt x="420" y="618" on="1"/>
        <pt x="454" y="615" on="0"/>
        <pt x="527" y="597" on="0"/>
        <pt x="586" y="569" on="0"/>
        <pt x="624" y="531" on="0"/>
        <pt x="624" y="508" on="1"/>
        <pt x="624" y="488" on="0"/>
        <pt x="591" y="457" on="0"/>
        <pt x="561" y="457" on="1"/>
        <pt x="542" y="457" on="0"/>
        <pt x="513" y="471" on="0"/>
        <pt x="505" y="480" on="1"/>
        <pt x="485" y="502" on="0"/>
        <pt x="454" y="530" on="0"/>
        <pt x="423" y="547" on="0"/>
        <pt x="390" y="554" on="0"/>
        <pt x="369" y="554" on="1"/>
        <pt x="341" y="554" on="0"/>
        <pt x="294" y="537" on="0"/>
        <pt x="259" y="510" on="0"/>
        <pt x="240" y="475" on="0"/>
        <pt x="240" y="457" on="1"/>
        <pt x="240" y="431" on="0"/>
        <pt x="269" y="385" on="0"/>
        <pt x="310" y="374" on="1"/>
        <pt x="479" y="326" on="1"/>
        <pt x="550" y="306" on="0"/>
        <pt x="603" y="236" on="0"/>
        <pt x="603" y="190" on="1"/>
        <pt x="603" y="165" on="0"/>
        <pt x="575" y="109" on="0"/>
        <pt x="523" y="58" on="0"/>
        <pt x="451" y="16" on="0"/>
        <pt x="407" y="4" on="1"/>
        <pt x="407" y="-60" on="1"/>
        <pt x="407" y="-77" on="0"/>
        <pt x="383" y="-100" on="0"/>
        <pt x="356" y="-100" on="1"/>
        <pt x="330" y="-100" on="0"/>
        <pt x="306" y="-77" on="0"/>
        <pt x="306" y="-60" on="1"/>
        <pt x="306" y="-7" on="1"/>
        <pt x="257" y="-5" on="0"/>
        <pt x="170" y="21" on="0"/>
        <pt x="104" y="66" on="0"/>
        <pt x="64" y="128" on="0"/>
        <pt x="61" y="166" on="1"/>
        <pt x="61" y="189" on="0"/>
        <pt x="89" y="227" on="0"/>
        <pt x="115" y="227" on="1"/>
        <pt x="138" y="227" on="0"/>
        <pt x="164" y="206" on="0"/>
        <pt x="175" y="173" on="1"/>
        <pt x="194" y="117" on="0"/>
        <pt x="283" y="59" on="0"/>
      </contour>
    </TTGlyph>
    <TTGlyph name="dotaccentcmb" xMin="20" yMin="505" xMax="121" yMax="611">
      <contour>
        <pt x="71" y="505" on="1"/>
        <pt x="45" y="505" on="0"/>
        <pt x="20" y="526" on="0"/>
        <pt x="20" y="542" on="1"/>
        <pt x="20" y="574" on="1"/>
        <pt x="20" y="590" on="0"/>
        <pt x="45" y="611" on="0"/>
        <pt x="71" y="611" on="1"/>
        <pt x="97" y="611" on="0"/>
        <pt x="121" y="590" on="0"/>
        <pt x="121" y="574" on="1"/>
        <pt x="121" y="542" on="1"/>
        <pt x="121" y="526" on="0"/>
        <pt x="97" y="505" on="0"/>
      </contour>
    </TTGlyph>
    <TTGlyph name="dotaccentcmb.cap" xMin="20" yMin="705" xMax="121" yMax="811">
      <contour>
        <pt x="71" y="705" on="1"/>
        <pt x="45" y="705" on="0"/>
        <pt x="20" y="726" on="0"/>
        <pt x="20" y="742" on="1"/>
        <pt x="20" y="774" on="1"/>
        <pt x="20" y="790" on="0"/>
        <pt x="45" y="811" on="0"/>
        <pt x="71" y="811" on="1"/>
        <pt x="97" y="811" on="0"/>
        <pt x="121" y="790" on="0"/>
        <pt x="121" y="774" on="1"/>
        <pt x="121" y="742" on="1"/>
        <pt x="121" y="726" on="0"/>
        <pt x="97" y="705" on="0"/>
      </contour>
    </TTGlyph>
    <TTGlyph name="dotlessi" xMin="70" yMin="-10" xMax="171" yMax="403">
      <contour>
        <pt x="121" y="403" on="1"/>
        <pt x="147" y="403" on="0"/>
        <pt x="171" y="382" on="0"/>
        <pt x="171" y="366" on="1"/>
        <pt x="171" y="27" on="1"/>
        <pt x="171" y="12" on="0"/>
        <pt x="147" y="-10" on="0"/>
        <pt x="121" y="-10" on="1"/>
        <pt x="95" y="-10" on="0"/>
        <pt x="70" y="12" on="0"/>
        <pt x="70" y="27" on="1"/>
        <pt x="70" y="366" on="1"/>
        <pt x="70" y="382" on="0"/>
        <pt x="95" y="403" on="0"/>
      </contour>
    </TTGlyph>
    <TTGlyph name="dotlessj" xMin="-79" yMin="-309" xMax="189" yMax="403">
      <contour>
        <pt x="70" y="363" on="1"/>
        <pt x="70" y="380" on="0"/>
        <pt x="93" y="403" on="0"/>
        <pt x="119" y="403" on="1"/>
        <pt x="146" y="403" on="0"/>
        <pt x="169" y="380" on="0"/>
        <pt x="169" y="363" on="1"/>
        <pt x="169" y="44" on="1"/>
        <pt x="169" y="20" on="0"/>
        <pt x="175" y="-28" on="0"/>
        <pt x="183" y="-73" on="0"/>
        <pt x="189" y="-113" on="0"/>
        <pt x="189" y="-129" on="1"/>
        <pt x="189" y="-166" on="0"/>
        <pt x="171" y="-231" on="0"/>
        <pt x="133" y="-280" on="0"/>
        <pt x="74" y="-309" on="0"/>
        <pt x="34" y="-309" on="1"/>
        <pt x="12" y="-309" on="0"/>
        <pt x="-29" y="-295" on="0"/>
        <pt x="-60" y="-270" on="0"/>
        <pt x="-79" y="-234" on="0"/>
        <pt x="-79" y="-212" on="1"/>
        <pt x="-79" y="-183" on="0"/>
        <pt x="-53" y="-152" on="0"/>
        <pt x="-33" y="-152" on="1"/>
        <pt x="-7" y="-152" on="0"/>
        <pt x="10" y="-180" on="0"/>
        <pt x="17" y="-213" on="0"/>
        <pt x="28" y="-241" on="0"/>
        <pt x="49" y="-241" on="1"/>
        <pt x="68" y="-241" on="0"/>
        <pt x="88" y="-214" on="0"/>
        <pt x="88" y="-179" on="1"/>
        <pt x="88" y="-150" on="0"/>
        <pt x="82" y="-98" on="0"/>
        <pt x="76" y="-44" on="0"/>
        <pt x="70" y="14" on="0"/>
        <pt x="70" y="50" on="1"/>
      </contour>
    </TTGlyph>
    <TTGlyph name="e" xMin="40" yMin="-14" xMax="550" yMax="407">
      <contour>
        <pt x="386" y="407" on="1"/>
        <pt x="471" y="407" on="0"/>
        <pt x="550" y="349" on="0"/>
        <pt x="550" y="307" on="1"/>
        <pt x="550" y="258" on="0"/>
        <pt x="481" y="189" on="0"/>
        <pt x="398" y="175" on="1"/>
        <pt x="149" y="133" on="1"/>
        <pt x="149" y="96" on="0"/>
        <pt x="190" y="53" on="0"/>
        <pt x="245" y="53" on="1"/>
        <pt x="295" y="53" on="0"/>
        <pt x="380" y="77" on="0"/>
        <pt x="419" y="96" on="1"/>
        <pt x="437" y="105" on="0"/>
        <pt x="447" y="105" on="1"/>
        <pt x="470" y="105" on="0"/>
        <pt x="470" y="77" on="1"/>
        <pt x="470" y="60" on="0"/>
        <pt x="449" y="49" on="1"/>
        <pt x="333" y="-14" on="0"/>
        <pt x="216" y="-14" on="1"/>
        <pt x="169" y="-14" on="0"/>
        <pt x="102" y="6" on="0"/>
        <pt x="60" y="41" on="0"/>
        <pt x="40" y="89" on="0"/>
        <pt x="40" y="117" on="1"/>
        <pt x="40" y="169" on="0"/>
        <pt x="96" y="273" on="0"/>
        <pt x="191" y="355" on="0"/>
        <pt x="316" y="407" on="0"/>
      </contour>
      <contour>
        <pt x="353" y="350" on="1"/>
        <pt x="318" y="350" on="0"/>
        <pt x="250" y="324" on="0"/>
        <pt x="195" y="280" on="0"/>
        <pt x="156" y="223" on="0"/>
        <pt x="150" y="193" on="1"/>
        <pt x="368" y="228" on="1"/>
        <pt x="418" y="236" on="0"/>
        <pt x="449" y="266" on="0"/>
        <pt x="449" y="289" on="1"/>
        <pt x="449" y="313" on="0"/>
        <pt x="401" y="350" on="0"/>
      </contour>
    </TTGlyph>
    <TTGlyph name="eacute" xMin="40" yMin="-14" xMax="550" yMax="621">
      <component glyphName="e" x="0" y="0" flags="0x204"/>
      <component glyphName="acute" x="214" y="0" flags="0x4"/>
    </TTGlyph>
    <TTGlyph name="ecircumflex" xMin="40" yMin="-14" xMax="550" yMax="621">
      <component glyphName="e" x="0" y="0" flags="0x204"/>
      <component glyphName="circumflex" x="153" y="0" flags="0x4"/>
    </TTGlyph>
    <TTGlyph name="edieresis" xMin="40" yMin="-14" xMax="550" yMax="613">
      <component glyphName="e" x="0" y="0" flags="0x204"/>
      <component glyphName="dieresis" x="143" y="0" flags="0x4"/>
    </TTGlyph>
    <TTGlyph name="egrave" xMin="40" yMin="-14" xMax="550" yMax="621">
      <component glyphName="e" x="0" y="0" flags="0x204"/>
      <component glyphName="grave" x="205" y="0" flags="0x4"/>
    </TTGlyph>
    <TTGlyph name="eight" xMin="40" yMin="-15" xMax="544" yMax="626">
      <contour>
        <pt x="399" y="626" on="1"/>
        <pt x="478" y="626" on="0"/>
        <pt x="544" y="574" on="0"/>
        <pt x="544" y="532" on="1"/>
        <pt x="544" y="489" on="0"/>
        <pt x="488" y="395" on="0"/>
        <pt x="443" y="363" on="1"/>
        <pt x="485" y="352" on="0"/>
        <pt x="536" y="300" on="0"/>
        <pt x="536" y="265" on="1"/>
        <pt x="536" y="215" on="0"/>
        <pt x="489" y="115" on="0"/>
        <pt x="404" y="35" on="0"/>
        <pt x="286" y="-15" on="0"/>
        <pt x="215" y="-15" on="1"/>
        <pt x="121" y="-15" on="0"/>
        <pt x="40" y="50" on="0"/>
        <pt x="40" y="101" on="1"/>
        <pt x="40" y="129" on="0"/>
        <pt x="61" y="191" on="0"/>
        <pt x="99" y="249" on="0"/>
        <pt x="149" y="303" on="0"/>
        <pt x="178" y="324" on="1"/>
        <pt x="153" y="335" on="0"/>
        <pt x="121" y="371" on="0"/>
        <pt x="121" y="397" on="1"/>
        <pt x="121" y="438" on="0"/>
        <pt x="164" y="520" on="0"/>
        <pt x="239" y="585" on="0"/>
        <pt x="340" y="626" on="0"/>
      </contour>
      <contour>
        <pt x="325" y="321" on="1"/>
        <pt x="286" y="321" on="0"/>
        <pt x="220" y="291" on="0"/>
        <pt x="172" y="240" on="0"/>
        <pt x="145" y="175" on="0"/>
        <pt x="145" y="140" on="1"/>
        <pt x="145" y="95" on="0"/>
        <pt x="197" y="44" on="0"/>
        <pt x="248" y="44" on="1"/>
        <pt x="287" y="44" on="0"/>
        <pt x="354" y="74" on="0"/>
        <pt x="403" y="125" on="0"/>
        <pt x="432" y="191" on="0"/>
        <pt x="432" y="227" on="1"/>
        <pt x="432" y="269" on="0"/>
        <pt x="376" y="321" on="0"/>
      </contour>
      <contour>
        <pt x="361" y="561" on="1"/>
        <pt x="329" y="561" on="0"/>
        <pt x="277" y="540" on="0"/>
        <pt x="240" y="504" on="0"/>
        <pt x="219" y="458" on="0"/>
        <pt x="219" y="433" on="1"/>
        <pt x="219" y="402" on="0"/>
        <pt x="261" y="366" on="0"/>
        <pt x="302" y="366" on="1"/>
        <pt x="330" y="366" on="0"/>
        <pt x="383" y="387" on="0"/>
        <pt x="423" y="423" on="0"/>
        <pt x="447" y="470" on="0"/>
        <pt x="447" y="495" on="1"/>
        <pt x="447" y="526" on="0"/>
        <pt x="403" y="561" on="0"/>
      </contour>
    </TTGlyph>
    <TTGlyph name="emdash" xMin="50" yMin="179" xMax="591" yMax="242">
      <contour>
        <pt x="79" y="179" on="1"/>
        <pt x="50" y="179" on="0"/>
        <pt x="50" y="211" on="1"/>
        <pt x="50" y="242" on="0"/>
        <pt x="79" y="242" on="1"/>
        <pt x="562" y="242" on="1"/>
        <pt x="591" y="242" on="0"/>
        <pt x="591" y="211" on="1"/>
        <pt x="591" y="179" on="0"/>
        <pt x="562" y="179" on="1"/>
      </contour>
    </TTGlyph>
    <TTGlyph name="endash" xMin="70" yMin="179" xMax="341" yMax="242">
      <contour>
        <pt x="99" y="179" on="1"/>
        <pt x="70" y="179" on="0"/>
        <pt x="70" y="211" on="1"/>
        <pt x="70" y="242" on="0"/>
        <pt x="99" y="242" on="1"/>
        <pt x="312" y="242" on="1"/>
        <pt x="341" y="242" on="0"/>
        <pt x="341" y="211" on="1"/>
        <pt x="341" y="179" on="0"/>
        <pt x="312" y="179" on="1"/>
      </contour>
    </TTGlyph>
    <TTGlyph name="equal" xMin="30" yMin="162" xMax="317" yMax="379">
      <contour>
        <pt x="59" y="162" on="1"/>
        <pt x="45" y="162" on="0"/>
        <pt x="30" y="181" on="0"/>
        <pt x="30" y="196" on="1"/>
        <pt x="30" y="210" on="0"/>
        <pt x="45" y="229" on="0"/>
        <pt x="59" y="229" on="1"/>
        <pt x="288" y="229" on="1"/>
        <pt x="302" y="229" on="0"/>
        <pt x="317" y="210" on="0"/>
        <pt x="317" y="196" on="1"/>
        <pt x="317" y="181" on="0"/>
        <pt x="302" y="162" on="0"/>
        <pt x="288" y="162" on="1"/>
      </contour>
      <contour>
        <pt x="59" y="312" on="1"/>
        <pt x="45" y="312" on="0"/>
        <pt x="30" y="331" on="0"/>
        <pt x="30" y="346" on="1"/>
        <pt x="30" y="360" on="0"/>
        <pt x="45" y="379" on="0"/>
        <pt x="59" y="379" on="1"/>
        <pt x="288" y="379" on="1"/>
        <pt x="302" y="379" on="0"/>
        <pt x="317" y="360" on="0"/>
        <pt x="317" y="346" on="1"/>
        <pt x="317" y="331" on="0"/>
        <pt x="302" y="312" on="0"/>
        <pt x="288" y="312" on="1"/>
      </contour>
    </TTGlyph>
    <TTGlyph name="eth" xMin="40" yMin="-14" xMax="604" yMax="702">
      <contour>
        <pt x="520" y="533" on="1"/>
        <pt x="534" y="503" on="0"/>
        <pt x="537" y="474" on="1"/>
        <pt x="542" y="416" on="0"/>
        <pt x="560" y="322" on="0"/>
        <pt x="560" y="274" on="1"/>
        <pt x="560" y="243" on="0"/>
        <pt x="535" y="176" on="0"/>
        <pt x="489" y="112" on="0"/>
        <pt x="425" y="54" on="0"/>
        <pt x="348" y="11" on="0"/>
        <pt x="261" y="-14" on="0"/>
        <pt x="214" y="-14" on="1"/>
        <pt x="123" y="-14" on="0"/>
        <pt x="42" y="55" on="0"/>
        <pt x="42" y="110" on="1"/>
        <pt x="42" y="161" on="0"/>
        <pt x="99" y="265" on="0"/>
        <pt x="190" y="347" on="0"/>
        <pt x="303" y="399" on="0"/>
        <pt x="359" y="399" on="1"/>
        <pt x="373" y="399" on="0"/>
        <pt x="405" y="395" on="0"/>
        <pt x="437" y="388" on="0"/>
        <pt x="465" y="379" on="0"/>
        <pt x="475" y="373" on="1"/>
        <pt x="471" y="447" on="0"/>
        <pt x="444" y="503" on="1"/>
        <pt x="342" y="463" on="1"/>
        <pt x="334" y="461" on="0"/>
        <pt x="332" y="461" on="1"/>
        <pt x="324" y="461" on="0"/>
        <pt x="309" y="471" on="0"/>
        <pt x="305" y="482" on="1"/>
        <pt x="302" y="489" on="0"/>
        <pt x="302" y="496" on="1"/>
        <pt x="302" y="512" on="0"/>
        <pt x="321" y="520" on="1"/>
        <pt x="411" y="555" on="1"/>
        <pt x="379" y="595" on="0"/>
        <pt x="292" y="634" on="0"/>
        <pt x="241" y="634" on="1"/>
        <pt x="210" y="634" on="0"/>
        <pt x="173" y="619" on="0"/>
        <pt x="151" y="597" on="0"/>
        <pt x="139" y="572" on="0"/>
        <pt x="127" y="550" on="0"/>
        <pt x="108" y="535" on="0"/>
        <pt x="90" y="535" on="1"/>
        <pt x="69" y="535" on="0"/>
        <pt x="40" y="568" on="0"/>
        <pt x="40" y="595" on="1"/>
        <pt x="40" y="639" on="0"/>
        <pt x="123" y="702" on="0"/>
        <pt x="205" y="702" on="1"/>
        <pt x="245" y="702" on="0"/>
        <pt x="325" y="685" on="0"/>
        <pt x="398" y="654" on="0"/>
        <pt x="461" y="610" on="0"/>
        <pt x="485" y="584" on="1"/>
        <pt x="564" y="616" on="1"/>
        <pt x="568" y="618" on="0"/>
        <pt x="576" y="618" on="1"/>
        <pt x="595" y="618" on="0"/>
        <pt x="601" y="600" on="1"/>
        <pt x="604" y="591" on="0"/>
        <pt x="604" y="585" on="1"/>
        <pt x="604" y="567" on="0"/>
        <pt x="585" y="559" on="1"/>
      </contour>
      <contour>
        <pt x="345" y="338" on="1"/>
        <pt x="303" y="338" on="0"/>
        <pt x="232" y="306" on="0"/>
        <pt x="180" y="253" on="0"/>
        <pt x="150" y="186" on="0"/>
        <pt x="150" y="151" on="1"/>
        <pt x="150" y="103" on="0"/>
        <pt x="206" y="49" on="0"/>
        <pt x="254" y="49" on="1"/>
        <pt x="295" y="49" on="0"/>
        <pt x="367" y="82" on="0"/>
        <pt x="421" y="136" on="0"/>
        <pt x="453" y="206" on="0"/>
        <pt x="453" y="244" on="1"/>
        <pt x="453" y="289" on="0"/>
        <pt x="396" y="338" on="0"/>
      </contour>
    </TTGlyph>
    <TTGlyph name="exclam" xMin="70" yMin="-4" xMax="171" yMax="745">
      <contour>
        <pt x="121" y="177" on="1"/>
        <pt x="96" y="177" on="0"/>
        <pt x="79" y="196" on="0"/>
        <pt x="79" y="210" on="1"/>
        <pt x="73" y="709" on="1"/>
        <pt x="73" y="723" on="0"/>
        <pt x="96" y="745" on="0"/>
        <pt x="121" y="745" on="1"/>
        <pt x="146" y="745" on="0"/>
        <pt x="169" y="723" on="0"/>
        <pt x="169" y="709" on="1"/>
        <pt x="163" y="210" on="1"/>
        <pt x="163" y="196" on="0"/>
        <pt x="146" y="177" on="0"/>
      </contour>
      <contour>
        <pt x="121" y="-4" on="1"/>
        <pt x="95" y="-4" on="0"/>
        <pt x="70" y="17" on="0"/>
        <pt x="70" y="33" on="1"/>
        <pt x="70" y="65" on="1"/>
        <pt x="70" y="81" on="0"/>
        <pt x="95" y="102" on="0"/>
        <pt x="121" y="102" on="1"/>
        <pt x="147" y="102" on="0"/>
        <pt x="171" y="81" on="0"/>
        <pt x="171" y="65" on="1"/>
        <pt x="171" y="33" on="1"/>
        <pt x="171" y="17" on="0"/>
        <pt x="147" y="-4" on="0"/>
      </contour>
    </TTGlyph>
    <TTGlyph name="exclamdown" xMin="70" yMin="-309" xMax="171" yMax="405">
      <contour>
        <pt x="121" y="224" on="1"/>
        <pt x="146" y="224" on="0"/>
        <pt x="163" y="205" on="0"/>
        <pt x="163" y="191" on="1"/>
        <pt x="169" y="-273" on="1"/>
        <pt x="169" y="-287" on="0"/>
        <pt x="146" y="-309" on="0"/>
        <pt x="121" y="-309" on="1"/>
        <pt x="96" y="-309" on="0"/>
        <pt x="73" y="-287" on="0"/>
        <pt x="73" y="-273" on="1"/>
        <pt x="79" y="191" on="1"/>
        <pt x="79" y="205" on="0"/>
        <pt x="96" y="224" on="0"/>
      </contour>
      <contour>
        <pt x="121" y="405" on="1"/>
        <pt x="147" y="405" on="0"/>
        <pt x="171" y="384" on="0"/>
        <pt x="171" y="368" on="1"/>
        <pt x="171" y="336" on="1"/>
        <pt x="171" y="320" on="0"/>
        <pt x="147" y="299" on="0"/>
        <pt x="121" y="299" on="1"/>
        <pt x="95" y="299" on="0"/>
        <pt x="70" y="320" on="0"/>
        <pt x="70" y="336" on="1"/>
        <pt x="70" y="368" on="1"/>
        <pt x="70" y="384" on="0"/>
        <pt x="95" y="405" on="0"/>
      </contour>
    </TTGlyph>
    <TTGlyph name="f" xMin="0" yMin="-10" xMax="453" yMax="702">
      <contour>
        <pt x="173" y="30" on="1"/>
        <pt x="173" y="13" on="0"/>
        <pt x="150" y="-10" on="0"/>
        <pt x="123" y="-10" on="1"/>
        <pt x="97" y="-10" on="0"/>
        <pt x="74" y="13" on="0"/>
        <pt x="74" y="30" on="1"/>
        <pt x="74" y="331" on="1"/>
        <pt x="29" y="331" on="1"/>
        <pt x="0" y="331" on="0"/>
        <pt x="0" y="363" on="1"/>
        <pt x="0" y="394" on="0"/>
        <pt x="29" y="394" on="1"/>
        <pt x="74" y="394" on="1"/>
        <pt x="74" y="404" on="1"/>
        <pt x="74" y="416" on="0"/>
        <pt x="67" y="438" on="0"/>
        <pt x="67" y="451" on="1"/>
        <pt x="67" y="489" on="0"/>
        <pt x="123" y="577" on="0"/>
        <pt x="213" y="652" on="0"/>
        <pt x="325" y="702" on="0"/>
        <pt x="382" y="702" on="1"/>
        <pt x="417" y="702" on="0"/>
        <pt x="453" y="673" on="0"/>
        <pt x="453" y="648" on="1"/>
        <pt x="453" y="611" on="0"/>
        <pt x="422" y="574" on="0"/>
        <pt x="400" y="574" on="1"/>
        <pt x="380" y="574" on="0"/>
        <pt x="355" y="592" on="0"/>
        <pt x="355" y="609" on="1"/>
        <pt x="355" y="626" on="0"/>
        <pt x="339" y="642" on="0"/>
        <pt x="319" y="642" on="1"/>
        <pt x="294" y="642" on="0"/>
        <pt x="242" y="610" on="0"/>
        <pt x="200" y="556" on="0"/>
        <pt x="173" y="484" on="0"/>
        <pt x="173" y="445" on="1"/>
        <pt x="173" y="394" on="1"/>
        <pt x="300" y="394" on="1"/>
        <pt x="329" y="394" on="0"/>
        <pt x="329" y="363" on="1"/>
        <pt x="329" y="331" on="0"/>
        <pt x="300" y="331" on="1"/>
        <pt x="173" y="331" on="1"/>
      </contour>
    </TTGlyph>
    <TTGlyph name="five" xMin="15" yMin="-13" xMax="563" yMax="611">
      <contour>
        <pt x="439" y="611" on="1"/>
        <pt x="505" y="611" on="0"/>
        <pt x="563" y="567" on="0"/>
        <pt x="563" y="529" on="1"/>
        <pt x="563" y="503" on="0"/>
        <pt x="544" y="475" on="0"/>
        <pt x="518" y="475" on="1"/>
        <pt x="501" y="475" on="0"/>
        <pt x="486" y="485" on="0"/>
        <pt x="480" y="501" on="0"/>
        <pt x="474" y="519" on="0"/>
        <pt x="457" y="535" on="0"/>
        <pt x="422" y="545" on="0"/>
        <pt x="389" y="545" on="1"/>
        <pt x="304" y="545" on="1"/>
        <pt x="268" y="545" on="0"/>
        <pt x="236" y="523" on="0"/>
        <pt x="228" y="498" on="1"/>
        <pt x="217" y="459" on="1"/>
        <pt x="212" y="442" on="0"/>
        <pt x="204" y="405" on="0"/>
        <pt x="199" y="365" on="0"/>
        <pt x="196" y="340" on="1"/>
        <pt x="237" y="366" on="0"/>
        <pt x="325" y="390" on="0"/>
        <pt x="370" y="390" on="1"/>
        <pt x="452" y="390" on="0"/>
        <pt x="533" y="322" on="0"/>
        <pt x="533" y="259" on="1"/>
        <pt x="533" y="214" on="0"/>
        <pt x="477" y="117" on="0"/>
        <pt x="380" y="38" on="0"/>
        <pt x="252" y="-13" on="0"/>
        <pt x="180" y="-13" on="1"/>
        <pt x="98" y="-13" on="0"/>
        <pt x="15" y="50" on="0"/>
        <pt x="15" y="94" on="1"/>
        <pt x="15" y="121" on="0"/>
        <pt x="44" y="154" on="0"/>
        <pt x="65" y="154" on="1"/>
        <pt x="83" y="154" on="0"/>
        <pt x="102" y="139" on="0"/>
        <pt x="114" y="117" on="0"/>
        <pt x="126" y="92" on="0"/>
        <pt x="148" y="70" on="0"/>
        <pt x="185" y="55" on="0"/>
        <pt x="216" y="55" on="1"/>
        <pt x="262" y="55" on="0"/>
        <pt x="338" y="84" on="0"/>
        <pt x="392" y="133" on="0"/>
        <pt x="422" y="198" on="0"/>
        <pt x="422" y="233" on="1"/>
        <pt x="422" y="278" on="0"/>
        <pt x="371" y="328" on="0"/>
        <pt x="331" y="328" on="1"/>
        <pt x="290" y="328" on="0"/>
        <pt x="213" y="294" on="0"/>
        <pt x="184" y="269" on="1"/>
        <pt x="158" y="248" on="0"/>
        <pt x="139" y="248" on="1"/>
        <pt x="128" y="248" on="0"/>
        <pt x="119" y="254" on="1"/>
        <pt x="101" y="266" on="0"/>
        <pt x="101" y="283" on="1"/>
        <pt x="101" y="288" on="0"/>
        <pt x="103" y="301" on="0"/>
        <pt x="105" y="309" on="1"/>
        <pt x="141" y="471" on="1"/>
        <pt x="161" y="542" on="0"/>
        <pt x="243" y="611" on="0"/>
        <pt x="296" y="611" on="1"/>
      </contour>
    </TTGlyph>
    <TTGlyph name="foundryicon" xMin="144" yMin="0" xMax="720" yMax="576">
      <contour>
        <pt x="144" y="0" on="1"/>
        <pt x="144" y="576" on="1"/>
        <pt x="432" y="576" on="1"/>
        <pt x="432" y="288" on="1"/>
        <pt x="720" y="288" on="1"/>
        <pt x="720" y="0" on="1"/>
      </contour>
      <contour>
        <pt x="576" y="432" on="1"/>
        <pt x="576" y="576" on="1"/>
        <pt x="720" y="576" on="1"/>
        <pt x="720" y="432" on="1"/>
      </contour>
    </TTGlyph>
    <TTGlyph name="four" xMin="30" yMin="-11" xMax="539" yMax="625">
      <contour>
        <pt x="444" y="337" on="1"/>
        <pt x="403" y="270" on="0"/>
        <pt x="286" y="203" on="0"/>
        <pt x="212" y="203" on="1"/>
        <pt x="121" y="203" on="0"/>
        <pt x="30" y="279" on="0"/>
        <pt x="30" y="336" on="1"/>
        <pt x="30" y="366" on="0"/>
        <pt x="52" y="437" on="0"/>
        <pt x="91" y="509" on="0"/>
        <pt x="147" y="579" on="0"/>
        <pt x="180" y="608" on="1"/>
        <pt x="191" y="619" on="0"/>
        <pt x="208" y="625" on="0"/>
        <pt x="218" y="625" on="1"/>
        <pt x="231" y="625" on="0"/>
        <pt x="250" y="606" on="0"/>
        <pt x="250" y="596" on="1"/>
        <pt x="250" y="591" on="0"/>
        <pt x="246" y="580" on="0"/>
        <pt x="238" y="572" on="1"/>
        <pt x="214" y="546" on="0"/>
        <pt x="177" y="491" on="0"/>
        <pt x="152" y="436" on="0"/>
        <pt x="138" y="386" on="0"/>
        <pt x="138" y="366" on="1"/>
        <pt x="138" y="315" on="0"/>
        <pt x="191" y="264" on="0"/>
        <pt x="239" y="264" on="1"/>
        <pt x="278" y="264" on="0"/>
        <pt x="351" y="297" on="0"/>
        <pt x="406" y="357" on="0"/>
        <pt x="440" y="439" on="0"/>
        <pt x="440" y="488" on="1"/>
        <pt x="440" y="576" on="1"/>
        <pt x="440" y="593" on="0"/>
        <pt x="463" y="616" on="0"/>
        <pt x="490" y="616" on="1"/>
        <pt x="516" y="616" on="0"/>
        <pt x="539" y="593" on="0"/>
        <pt x="539" y="576" on="1"/>
        <pt x="539" y="29" on="1"/>
        <pt x="539" y="12" on="0"/>
        <pt x="517" y="-11" on="0"/>
        <pt x="492" y="-11" on="1"/>
        <pt x="466" y="-11" on="0"/>
        <pt x="444" y="12" on="0"/>
        <pt x="444" y="29" on="1"/>
      </contour>
    </TTGlyph>
    <TTGlyph name="g" xMin="40" yMin="-309" xMax="559" yMax="407">
      <contour>
        <pt x="548" y="27" on="1"/>
        <pt x="548" y="11" on="0"/>
        <pt x="554" y="-11" on="0"/>
        <pt x="554" y="-23" on="1"/>
        <pt x="554" y="-74" on="0"/>
        <pt x="499" y="-176" on="0"/>
        <pt x="405" y="-258" on="0"/>
        <pt x="278" y="-309" on="0"/>
        <pt x="205" y="-309" on="1"/>
        <pt x="123" y="-309" on="0"/>
        <pt x="40" y="-246" on="0"/>
        <pt x="40" y="-202" on="1"/>
        <pt x="40" y="-175" on="0"/>
        <pt x="69" y="-142" on="0"/>
        <pt x="90" y="-142" on="1"/>
        <pt x="108" y="-142" on="0"/>
        <pt x="127" y="-157" on="0"/>
        <pt x="139" y="-179" on="0"/>
        <pt x="151" y="-204" on="0"/>
        <pt x="173" y="-226" on="0"/>
        <pt x="210" y="-241" on="0"/>
        <pt x="241" y="-241" on="1"/>
        <pt x="287" y="-241" on="0"/>
        <pt x="363" y="-211" on="0"/>
        <pt x="418" y="-158" on="0"/>
        <pt x="449" y="-83" on="0"/>
        <pt x="449" y="-38" on="1"/>
        <pt x="449" y="97" on="1"/>
        <pt x="404" y="46" on="0"/>
        <pt x="282" y="-14" on="0"/>
        <pt x="213" y="-14" on="1"/>
        <pt x="122" y="-14" on="0"/>
        <pt x="41" y="57" on="0"/>
        <pt x="41" y="118" on="1"/>
        <pt x="41" y="170" on="0"/>
        <pt x="97" y="273" on="0"/>
        <pt x="193" y="356" on="0"/>
        <pt x="318" y="407" on="0"/>
        <pt x="387" y="407" on="1"/>
        <pt x="477" y="407" on="0"/>
        <pt x="559" y="339" on="0"/>
        <pt x="559" y="284" on="1"/>
        <pt x="559" y="267" on="0"/>
        <pt x="548" y="233" on="0"/>
        <pt x="548" y="219" on="1"/>
      </contour>
      <contour>
        <pt x="352" y="348" on="1"/>
        <pt x="308" y="348" on="0"/>
        <pt x="234" y="315" on="0"/>
        <pt x="179" y="261" on="0"/>
        <pt x="148" y="191" on="0"/>
        <pt x="148" y="154" on="1"/>
        <pt x="148" y="107" on="0"/>
        <pt x="201" y="56" on="0"/>
        <pt x="250" y="56" on="1"/>
        <pt x="292" y="56" on="0"/>
        <pt x="366" y="89" on="0"/>
        <pt x="421" y="143" on="0"/>
        <pt x="454" y="213" on="0"/>
        <pt x="454" y="251" on="1"/>
        <pt x="454" y="295" on="0"/>
        <pt x="399" y="348" on="0"/>
      </contour>
    </TTGlyph>
    <TTGlyph name="germandbls" xMin="0" yMin="-14" xMax="551" yMax="702">
      <contour>
        <pt x="387" y="540" on="1"/>
        <pt x="354" y="502" on="0"/>
        <pt x="324" y="425" on="0"/>
        <pt x="324" y="389" on="1"/>
        <pt x="324" y="363" on="0"/>
        <pt x="346" y="331" on="0"/>
        <pt x="378" y="313" on="1"/>
        <pt x="465" y="262" on="1"/>
        <pt x="515" y="233" on="0"/>
        <pt x="551" y="181" on="0"/>
        <pt x="551" y="150" on="1"/>
        <pt x="551" y="120" on="0"/>
        <pt x="520" y="61" on="0"/>
        <pt x="466" y="14" on="0"/>
        <pt x="395" y="-14" on="0"/>
        <pt x="355" y="-14" on="1"/>
        <pt x="326" y="-14" on="0"/>
        <pt x="272" y="4" on="0"/>
        <pt x="231" y="34" on="0"/>
        <pt x="206" y="70" on="0"/>
        <pt x="206" y="88" on="1"/>
        <pt x="206" y="110" on="0"/>
        <pt x="227" y="136" on="0"/>
        <pt x="247" y="136" on="1"/>
        <pt x="262" y="136" on="0"/>
        <pt x="283" y="118" on="0"/>
        <pt x="297" y="93" on="1"/>
        <pt x="322" y="49" on="0"/>
        <pt x="369" y="49" on="1"/>
        <pt x="408" y="49" on="0"/>
        <pt x="453" y="94" on="0"/>
        <pt x="453" y="128" on="1"/>
        <pt x="453" y="150" on="0"/>
        <pt x="432" y="181" on="0"/>
        <pt x="397" y="201" on="1"/>
        <pt x="296" y="260" on="1"/>
        <pt x="259" y="281" on="0"/>
        <pt x="228" y="330" on="0"/>
        <pt x="228" y="365" on="1"/>
        <pt x="228" y="417" on="0"/>
        <pt x="287" y="532" on="0"/>
        <pt x="355" y="609" on="1"/>
        <pt x="355" y="626" on="0"/>
        <pt x="339" y="642" on="0"/>
        <pt x="319" y="642" on="1"/>
        <pt x="294" y="642" on="0"/>
        <pt x="242" y="610" on="0"/>
        <pt x="200" y="556" on="0"/>
        <pt x="173" y="484" on="0"/>
        <pt x="173" y="445" on="1"/>
        <pt x="173" y="30" on="1"/>
        <pt x="173" y="13" on="0"/>
        <pt x="150" y="-10" on="0"/>
        <pt x="123" y="-10" on="1"/>
        <pt x="97" y="-10" on="0"/>
        <pt x="74" y="13" on="0"/>
        <pt x="74" y="30" on="1"/>
        <pt x="74" y="331" on="1"/>
        <pt x="29" y="331" on="1"/>
        <pt x="0" y="331" on="0"/>
        <pt x="0" y="363" on="1"/>
        <pt x="0" y="394" on="0"/>
        <pt x="29" y="394" on="1"/>
        <pt x="74" y="394" on="1"/>
        <pt x="74" y="404" on="1"/>
        <pt x="74" y="416" on="0"/>
        <pt x="67" y="438" on="0"/>
        <pt x="67" y="451" on="1"/>
        <pt x="67" y="489" on="0"/>
        <pt x="123" y="577" on="0"/>
        <pt x="213" y="652" on="0"/>
        <pt x="325" y="702" on="0"/>
        <pt x="382" y="702" on="1"/>
        <pt x="417" y="702" on="0"/>
        <pt x="453" y="673" on="0"/>
        <pt x="453" y="653" on="1"/>
        <pt x="453" y="633" on="0"/>
        <pt x="445" y="608" on="0"/>
        <pt x="429" y="585" on="0"/>
        <pt x="404" y="560" on="0"/>
      </contour>
    </TTGlyph>
    <TTGlyph name="grave" xMin="20" yMin="468" xMax="155" yMax="621">
      <contour>
        <pt x="26" y="568" on="1"/>
        <pt x="20" y="575" on="0"/>
        <pt x="20" y="585" on="1"/>
        <pt x="20" y="599" on="0"/>
        <pt x="46" y="621" on="0"/>
        <pt x="64" y="621" on="1"/>
        <pt x="78" y="621" on="0"/>
        <pt x="95" y="611" on="0"/>
        <pt x="103" y="598" on="1"/>
        <pt x="148" y="517" on="1"/>
        <pt x="153" y="508" on="0"/>
        <pt x="155" y="500" on="0"/>
        <pt x="155" y="497" on="1"/>
        <pt x="155" y="485" on="0"/>
        <pt x="132" y="468" on="0"/>
        <pt x="117" y="468" on="1"/>
        <pt x="95" y="468" on="0"/>
        <pt x="79" y="492" on="1"/>
      </contour>
    </TTGlyph>
    <TTGlyph name="grave.cap" xMin="20" yMin="696" xMax="155" yMax="849">
      <contour>
        <pt x="26" y="796" on="1"/>
        <pt x="20" y="803" on="0"/>
        <pt x="20" y="813" on="1"/>
        <pt x="20" y="827" on="0"/>
        <pt x="46" y="849" on="0"/>
        <pt x="64" y="849" on="1"/>
        <pt x="78" y="849" on="0"/>
        <pt x="95" y="839" on="0"/>
        <pt x="103" y="826" on="1"/>
        <pt x="148" y="745" on="1"/>
        <pt x="153" y="736" on="0"/>
        <pt x="155" y="728" on="0"/>
        <pt x="155" y="725" on="1"/>
        <pt x="155" y="713" on="0"/>
        <pt x="132" y="696" on="0"/>
        <pt x="117" y="696" on="1"/>
        <pt x="95" y="696" on="0"/>
        <pt x="79" y="720" on="1"/>
      </contour>
    </TTGlyph>
    <TTGlyph name="greater" xMin="30" yMin="95" xMax="403" yMax="434">
      <contour>
        <pt x="385" y="295" on="1"/>
        <pt x="403" y="287" on="0"/>
        <pt x="403" y="265" on="1"/>
        <pt x="403" y="242" on="0"/>
        <pt x="385" y="234" on="1"/>
        <pt x="75" y="98" on="1"/>
        <pt x="69" y="95" on="0"/>
        <pt x="63" y="95" on="1"/>
        <pt x="44" y="95" on="0"/>
        <pt x="34" y="118" on="1"/>
        <pt x="30" y="126" on="0"/>
        <pt x="30" y="135" on="1"/>
        <pt x="30" y="153" on="0"/>
        <pt x="47" y="161" on="1"/>
        <pt x="299" y="264" on="1"/>
        <pt x="47" y="368" on="1"/>
        <pt x="30" y="376" on="0"/>
        <pt x="30" y="394" on="1"/>
        <pt x="30" y="403" on="0"/>
        <pt x="34" y="411" on="1"/>
        <pt x="44" y="434" on="0"/>
        <pt x="63" y="434" on="1"/>
        <pt x="69" y="434" on="0"/>
        <pt x="75" y="431" on="1"/>
      </contour>
    </TTGlyph>
    <TTGlyph name="guillemotleft" xMin="50" yMin="74" xMax="399" yMax="387">
      <contour>
        <pt x="128" y="230" on="1"/>
        <pt x="224" y="129" on="1"/>
        <pt x="231" y="122" on="0"/>
        <pt x="231" y="112" on="1"/>
        <pt x="231" y="98" on="0"/>
        <pt x="218" y="85" on="1"/>
        <pt x="207" y="74" on="0"/>
        <pt x="194" y="74" on="1"/>
        <pt x="182" y="74" on="0"/>
        <pt x="173" y="84" on="1"/>
        <pt x="65" y="204" on="1"/>
        <pt x="50" y="220" on="0"/>
        <pt x="50" y="231" on="1"/>
        <pt x="50" y="237" on="0"/>
        <pt x="57" y="249" on="0"/>
        <pt x="65" y="257" on="1"/>
        <pt x="174" y="377" on="1"/>
        <pt x="183" y="387" on="0"/>
        <pt x="195" y="387" on="1"/>
        <pt x="208" y="387" on="0"/>
        <pt x="219" y="376" on="1"/>
        <pt x="232" y="363" on="0"/>
        <pt x="232" y="350" on="1"/>
        <pt x="232" y="339" on="0"/>
        <pt x="225" y="332" on="1"/>
      </contour>
      <contour>
        <pt x="295" y="230" on="1"/>
        <pt x="391" y="129" on="1"/>
        <pt x="398" y="122" on="0"/>
        <pt x="398" y="112" on="1"/>
        <pt x="398" y="98" on="0"/>
        <pt x="385" y="85" on="1"/>
        <pt x="374" y="74" on="0"/>
        <pt x="361" y="74" on="1"/>
        <pt x="349" y="74" on="0"/>
        <pt x="340" y="84" on="1"/>
        <pt x="232" y="204" on="1"/>
        <pt x="217" y="220" on="0"/>
        <pt x="217" y="231" on="1"/>
        <pt x="217" y="237" on="0"/>
        <pt x="224" y="249" on="0"/>
        <pt x="232" y="257" on="1"/>
        <pt x="341" y="377" on="1"/>
        <pt x="350" y="387" on="0"/>
        <pt x="362" y="387" on="1"/>
        <pt x="375" y="387" on="0"/>
        <pt x="386" y="376" on="1"/>
        <pt x="399" y="363" on="0"/>
        <pt x="399" y="350" on="1"/>
        <pt x="399" y="339" on="0"/>
        <pt x="392" y="332" on="1"/>
      </contour>
    </TTGlyph>
    <TTGlyph name="guillemotright" xMin="51" yMin="74" xMax="400" yMax="387">
      <contour>
        <pt x="225" y="332" on="1"/>
        <pt x="218" y="339" on="0"/>
        <pt x="218" y="350" on="1"/>
        <pt x="218" y="363" on="0"/>
        <pt x="231" y="376" on="1"/>
        <pt x="242" y="387" on="0"/>
        <pt x="255" y="387" on="1"/>
        <pt x="267" y="387" on="0"/>
        <pt x="276" y="377" on="1"/>
        <pt x="385" y="257" on="1"/>
        <pt x="393" y="249" on="0"/>
        <pt x="400" y="237" on="0"/>
        <pt x="400" y="231" on="1"/>
        <pt x="400" y="220" on="0"/>
        <pt x="385" y="204" on="1"/>
        <pt x="277" y="84" on="1"/>
        <pt x="268" y="74" on="0"/>
        <pt x="256" y="74" on="1"/>
        <pt x="243" y="74" on="0"/>
        <pt x="232" y="85" on="1"/>
        <pt x="219" y="98" on="0"/>
        <pt x="219" y="112" on="1"/>
        <pt x="219" y="122" on="0"/>
        <pt x="226" y="129" on="1"/>
        <pt x="322" y="230" on="1"/>
      </contour>
      <contour>
        <pt x="58" y="332" on="1"/>
        <pt x="51" y="339" on="0"/>
        <pt x="51" y="350" on="1"/>
        <pt x="51" y="363" on="0"/>
        <pt x="64" y="376" on="1"/>
        <pt x="75" y="387" on="0"/>
        <pt x="88" y="387" on="1"/>
        <pt x="100" y="387" on="0"/>
        <pt x="109" y="377" on="1"/>
        <pt x="218" y="257" on="1"/>
        <pt x="226" y="249" on="0"/>
        <pt x="233" y="237" on="0"/>
        <pt x="233" y="231" on="1"/>
        <pt x="233" y="220" on="0"/>
        <pt x="218" y="204" on="1"/>
        <pt x="110" y="84" on="1"/>
        <pt x="101" y="74" on="0"/>
        <pt x="89" y="74" on="1"/>
        <pt x="76" y="74" on="0"/>
        <pt x="65" y="85" on="1"/>
        <pt x="52" y="98" on="0"/>
        <pt x="52" y="112" on="1"/>
        <pt x="52" y="122" on="0"/>
        <pt x="59" y="129" on="1"/>
        <pt x="155" y="230" on="1"/>
      </contour>
    </TTGlyph>
    <TTGlyph name="guilsinglleft" xMin="50" yMin="74" xMax="232" yMax="387">
      <contour>
        <pt x="128" y="230" on="1"/>
        <pt x="224" y="129" on="1"/>
        <pt x="231" y="122" on="0"/>
        <pt x="231" y="112" on="1"/>
        <pt x="231" y="98" on="0"/>
        <pt x="218" y="85" on="1"/>
        <pt x="207" y="74" on="0"/>
        <pt x="194" y="74" on="1"/>
        <pt x="182" y="74" on="0"/>
        <pt x="173" y="84" on="1"/>
        <pt x="65" y="204" on="1"/>
        <pt x="50" y="220" on="0"/>
        <pt x="50" y="231" on="1"/>
        <pt x="50" y="237" on="0"/>
        <pt x="57" y="249" on="0"/>
        <pt x="65" y="257" on="1"/>
        <pt x="174" y="377" on="1"/>
        <pt x="183" y="387" on="0"/>
        <pt x="195" y="387" on="1"/>
        <pt x="208" y="387" on="0"/>
        <pt x="219" y="376" on="1"/>
        <pt x="232" y="363" on="0"/>
        <pt x="232" y="350" on="1"/>
        <pt x="232" y="339" on="0"/>
        <pt x="225" y="332" on="1"/>
      </contour>
    </TTGlyph>
    <TTGlyph name="guilsinglright" xMin="51" yMin="74" xMax="233" yMax="387">
      <contour>
        <pt x="58" y="332" on="1"/>
        <pt x="51" y="339" on="0"/>
        <pt x="51" y="350" on="1"/>
        <pt x="51" y="363" on="0"/>
        <pt x="64" y="376" on="1"/>
        <pt x="75" y="387" on="0"/>
        <pt x="88" y="387" on="1"/>
        <pt x="100" y="387" on="0"/>
        <pt x="109" y="377" on="1"/>
        <pt x="218" y="257" on="1"/>
        <pt x="226" y="249" on="0"/>
        <pt x="233" y="237" on="0"/>
        <pt x="233" y="231" on="1"/>
        <pt x="233" y="220" on="0"/>
        <pt x="218" y="204" on="1"/>
        <pt x="110" y="84" on="1"/>
        <pt x="101" y="74" on="0"/>
        <pt x="89" y="74" on="1"/>
        <pt x="76" y="74" on="0"/>
        <pt x="65" y="85" on="1"/>
        <pt x="52" y="98" on="0"/>
        <pt x="52" y="112" on="1"/>
        <pt x="52" y="122" on="0"/>
        <pt x="59" y="129" on="1"/>
        <pt x="155" y="230" on="1"/>
      </contour>
    </TTGlyph>
    <TTGlyph name="h" xMin="70" yMin="-14" xMax="579" yMax="702">
      <contour>
        <pt x="167" y="277" on="1"/>
        <pt x="207" y="340" on="0"/>
        <pt x="326" y="407" on="0"/>
        <pt x="407" y="407" on="1"/>
        <pt x="495" y="407" on="0"/>
        <pt x="579" y="337" on="0"/>
        <pt x="579" y="280" on="1"/>
        <pt x="579" y="249" on="0"/>
        <pt x="557" y="177" on="0"/>
        <pt x="518" y="103" on="0"/>
        <pt x="462" y="32" on="0"/>
        <pt x="429" y="3" on="1"/>
        <pt x="418" y="-8" on="0"/>
        <pt x="401" y="-14" on="0"/>
        <pt x="391" y="-14" on="1"/>
        <pt x="378" y="-14" on="0"/>
        <pt x="359" y="5" on="0"/>
        <pt x="359" y="15" on="1"/>
        <pt x="359" y="20" on="0"/>
        <pt x="363" y="31" on="0"/>
        <pt x="371" y="39" on="1"/>
        <pt x="395" y="64" on="0"/>
        <pt x="432" y="121" on="0"/>
        <pt x="457" y="176" on="0"/>
        <pt x="471" y="226" on="0"/>
        <pt x="471" y="246" on="1"/>
        <pt x="471" y="298" on="0"/>
        <pt x="418" y="348" on="0"/>
        <pt x="370" y="348" on="1"/>
        <pt x="332" y="348" on="0"/>
        <pt x="259" y="314" on="0"/>
        <pt x="203" y="253" on="0"/>
        <pt x="169" y="170" on="0"/>
        <pt x="169" y="121" on="1"/>
        <pt x="169" y="28" on="1"/>
        <pt x="169" y="11" on="0"/>
        <pt x="146" y="-12" on="0"/>
        <pt x="119" y="-12" on="1"/>
        <pt x="93" y="-12" on="0"/>
        <pt x="70" y="11" on="0"/>
        <pt x="70" y="28" on="1"/>
        <pt x="70" y="662" on="1"/>
        <pt x="70" y="679" on="0"/>
        <pt x="93" y="702" on="0"/>
        <pt x="118" y="702" on="1"/>
        <pt x="167" y="702" on="0"/>
        <pt x="167" y="665" on="1"/>
      </contour>
    </TTGlyph>
    <TTGlyph name="hbar" xMin="-2" yMin="-14" xMax="579" yMax="702">
      <contour>
        <pt x="167" y="544" on="1"/>
        <pt x="298" y="544" on="1"/>
        <pt x="312" y="544" on="0"/>
        <pt x="327" y="525" on="0"/>
        <pt x="327" y="513" on="1"/>
        <pt x="327" y="500" on="0"/>
        <pt x="312" y="481" on="0"/>
        <pt x="298" y="481" on="1"/>
        <pt x="167" y="481" on="1"/>
        <pt x="167" y="277" on="1"/>
        <pt x="207" y="340" on="0"/>
        <pt x="326" y="407" on="0"/>
        <pt x="407" y="407" on="1"/>
        <pt x="495" y="407" on="0"/>
        <pt x="579" y="337" on="0"/>
        <pt x="579" y="280" on="1"/>
        <pt x="579" y="249" on="0"/>
        <pt x="557" y="177" on="0"/>
        <pt x="518" y="103" on="0"/>
        <pt x="462" y="32" on="0"/>
        <pt x="429" y="3" on="1"/>
        <pt x="418" y="-8" on="0"/>
        <pt x="401" y="-14" on="0"/>
        <pt x="391" y="-14" on="1"/>
        <pt x="378" y="-14" on="0"/>
        <pt x="359" y="5" on="0"/>
        <pt x="359" y="15" on="1"/>
        <pt x="359" y="20" on="0"/>
        <pt x="363" y="31" on="0"/>
        <pt x="371" y="39" on="1"/>
        <pt x="395" y="64" on="0"/>
        <pt x="432" y="121" on="0"/>
        <pt x="457" y="176" on="0"/>
        <pt x="471" y="226" on="0"/>
        <pt x="471" y="246" on="1"/>
        <pt x="471" y="298" on="0"/>
        <pt x="418" y="348" on="0"/>
        <pt x="370" y="348" on="1"/>
        <pt x="332" y="348" on="0"/>
        <pt x="259" y="314" on="0"/>
        <pt x="203" y="253" on="0"/>
        <pt x="169" y="170" on="0"/>
        <pt x="169" y="121" on="1"/>
        <pt x="169" y="28" on="1"/>
        <pt x="169" y="11" on="0"/>
        <pt x="146" y="-12" on="0"/>
        <pt x="119" y="-12" on="1"/>
        <pt x="93" y="-12" on="0"/>
        <pt x="70" y="11" on="0"/>
        <pt x="70" y="28" on="1"/>
        <pt x="70" y="481" on="1"/>
        <pt x="27" y="481" on="1"/>
        <pt x="13" y="481" on="0"/>
        <pt x="-2" y="500" on="0"/>
        <pt x="-2" y="512" on="1"/>
        <pt x="-2" y="524" on="0"/>
        <pt x="13" y="544" on="0"/>
        <pt x="27" y="544" on="1"/>
        <pt x="70" y="544" on="1"/>
        <pt x="70" y="662" on="1"/>
        <pt x="70" y="679" on="0"/>
        <pt x="93" y="702" on="0"/>
        <pt x="118" y="702" on="1"/>
        <pt x="167" y="702" on="0"/>
        <pt x="167" y="665" on="1"/>
      </contour>
    </TTGlyph>
    <TTGlyph name="hyphen" xMin="30" yMin="222" xMax="317" yMax="289">
      <contour>
        <pt x="59" y="222" on="1"/>
        <pt x="45" y="222" on="0"/>
        <pt x="30" y="241" on="0"/>
        <pt x="30" y="256" on="1"/>
        <pt x="30" y="270" on="0"/>
        <pt x="45" y="289" on="0"/>
        <pt x="59" y="289" on="1"/>
        <pt x="288" y="289" on="1"/>
        <pt x="302" y="289" on="0"/>
        <pt x="317" y="270" on="0"/>
        <pt x="317" y="256" on="1"/>
        <pt x="317" y="241" on="0"/>
        <pt x="302" y="222" on="0"/>
        <pt x="288" y="222" on="1"/>
      </contour>
    </TTGlyph>
    <TTGlyph name="i" xMin="62" yMin="-10" xMax="178" yMax="616">
      <contour>
        <pt x="171" y="30" on="1"/>
        <pt x="171" y="13" on="0"/>
        <pt x="147" y="-10" on="0"/>
        <pt x="120" y="-10" on="1"/>
        <pt x="94" y="-10" on="0"/>
        <pt x="70" y="13" on="0"/>
        <pt x="70" y="30" on="1"/>
        <pt x="70" y="363" on="1"/>
        <pt x="70" y="380" on="0"/>
        <pt x="94" y="403" on="0"/>
        <pt x="120" y="403" on="1"/>
        <pt x="147" y="403" on="0"/>
        <pt x="171" y="380" on="0"/>
        <pt x="171" y="363" on="1"/>
      </contour>
      <contour>
        <pt x="120" y="494" on="1"/>
        <pt x="90" y="494" on="0"/>
        <pt x="62" y="519" on="0"/>
        <pt x="62" y="536" on="1"/>
        <pt x="62" y="574" on="1"/>
        <pt x="62" y="591" on="0"/>
        <pt x="90" y="616" on="0"/>
        <pt x="120" y="616" on="1"/>
        <pt x="149" y="616" on="0"/>
        <pt x="178" y="591" on="0"/>
        <pt x="178" y="574" on="1"/>
        <pt x="178" y="536" on="1"/>
        <pt x="178" y="519" on="0"/>
        <pt x="149" y="494" on="0"/>
      </contour>
    </TTGlyph>
    <TTGlyph name="iacute" xMin="54" yMin="-10" xMax="189" yMax="621">
      <component glyphName="dotlessi" x="0" y="0" flags="0x204"/>
      <component glyphName="acute" x="34" y="0" flags="0x4"/>
    </TTGlyph>
    <TTGlyph name="icircumflex" xMin="-3" yMin="-10" xMax="250" yMax="621">
      <component glyphName="dotlessi" x="0" y="0" flags="0x204"/>
      <component glyphName="circumflex" x="-23" y="0" flags="0x4"/>
    </TTGlyph>
    <TTGlyph name="idieresis" xMin="-16" yMin="-10" xMax="260" yMax="613">
      <component glyphName="dotlessi" x="0" y="0" flags="0x204"/>
      <component glyphName="dieresis" x="-36" y="0" flags="0x4"/>
    </TTGlyph>
    <TTGlyph name="igrave" xMin="54" yMin="-10" xMax="189" yMax="621">
      <component glyphName="dotlessi" x="0" y="0" flags="0x204"/>
      <component glyphName="grave" x="34" y="0" flags="0x4"/>
    </TTGlyph>
    <TTGlyph name="ij" xMin="62" yMin="-309" xMax="430" yMax="616">
      <component glyphName="i" x="0" y="0" flags="0x4"/>
      <component glyphName="j" x="241" y="0" flags="0x4"/>
    </TTGlyph>
    <TTGlyph name="itilde" xMin="-20" yMin="-10" xMax="265" yMax="612">
      <component glyphName="dotlessi" x="0" y="0" flags="0x204"/>
      <component glyphName="tilde" x="-40" y="0" flags="0x4"/>
    </TTGlyph>
    <TTGlyph name="j" xMin="-79" yMin="-309" xMax="189" yMax="616">
      <contour>
        <pt x="119" y="494" on="1"/>
        <pt x="89" y="494" on="0"/>
        <pt x="61" y="519" on="0"/>
        <pt x="61" y="536" on="1"/>
        <pt x="61" y="574" on="1"/>
        <pt x="61" y="591" on="0"/>
        <pt x="89" y="616" on="0"/>
        <pt x="119" y="616" on="1"/>
        <pt x="148" y="616" on="0"/>
        <pt x="177" y="591" on="0"/>
        <pt x="177" y="574" on="1"/>
        <pt x="177" y="536" on="1"/>
        <pt x="177" y="519" on="0"/>
        <pt x="148" y="494" on="0"/>
      </contour>
      <contour>
        <pt x="70" y="363" on="1"/>
        <pt x="70" y="380" on="0"/>
        <pt x="93" y="403" on="0"/>
        <pt x="119" y="403" on="1"/>
        <pt x="146" y="403" on="0"/>
        <pt x="169" y="380" on="0"/>
        <pt x="169" y="363" on="1"/>
        <pt x="169" y="44" on="1"/>
        <pt x="169" y="20" on="0"/>
        <pt x="175" y="-28" on="0"/>
        <pt x="183" y="-73" on="0"/>
        <pt x="189" y="-113" on="0"/>
        <pt x="189" y="-129" on="1"/>
        <pt x="189" y="-166" on="0"/>
        <pt x="171" y="-231" on="0"/>
        <pt x="133" y="-280" on="0"/>
        <pt x="74" y="-309" on="0"/>
        <pt x="34" y="-309" on="1"/>
        <pt x="12" y="-309" on="0"/>
        <pt x="-29" y="-295" on="0"/>
        <pt x="-60" y="-270" on="0"/>
        <pt x="-79" y="-234" on="0"/>
        <pt x="-79" y="-212" on="1"/>
        <pt x="-79" y="-183" on="0"/>
        <pt x="-53" y="-152" on="0"/>
        <pt x="-33" y="-152" on="1"/>
        <pt x="-7" y="-152" on="0"/>
        <pt x="10" y="-180" on="0"/>
        <pt x="17" y="-213" on="0"/>
        <pt x="28" y="-241" on="0"/>
        <pt x="49" y="-241" on="1"/>
        <pt x="68" y="-241" on="0"/>
        <pt x="88" y="-214" on="0"/>
        <pt x="88" y="-179" on="1"/>
        <pt x="88" y="-150" on="0"/>
        <pt x="82" y="-98" on="0"/>
        <pt x="76" y="-44" on="0"/>
        <pt x="70" y="14" on="0"/>
        <pt x="70" y="50" on="1"/>
      </contour>
    </TTGlyph>
    <TTGlyph name="jcircumflex" xMin="-79" yMin="-309" xMax="249" yMax="621">
      <component glyphName="circumflex" x="-24" y="0" flags="0x4"/>
      <component glyphName="dotlessj" x="0" y="0" flags="0x4"/>
    </TTGlyph>
    <TTGlyph name="k" xMin="70" yMin="-14" xMax="445" yMax="702">
      <contour>
        <pt x="169" y="30" on="1"/>
        <pt x="169" y="13" on="0"/>
        <pt x="146" y="-10" on="0"/>
        <pt x="119" y="-10" on="1"/>
        <pt x="93" y="-10" on="0"/>
        <pt x="70" y="13" on="0"/>
        <pt x="70" y="30" on="1"/>
        <pt x="70" y="662" on="1"/>
        <pt x="70" y="679" on="0"/>
        <pt x="93" y="702" on="0"/>
        <pt x="119" y="702" on="1"/>
        <pt x="146" y="702" on="0"/>
        <pt x="169" y="679" on="0"/>
        <pt x="169" y="662" on="1"/>
        <pt x="166" y="261" on="1"/>
        <pt x="176" y="288" on="0"/>
        <pt x="219" y="340" on="0"/>
        <pt x="276" y="381" on="0"/>
        <pt x="344" y="405" on="0"/>
        <pt x="379" y="405" on="1"/>
        <pt x="415" y="405" on="0"/>
        <pt x="445" y="380" on="0"/>
        <pt x="445" y="360" on="1"/>
        <pt x="445" y="315" on="0"/>
        <pt x="411" y="315" on="1"/>
        <pt x="401" y="315" on="0"/>
        <pt x="384" y="320" on="0"/>
        <pt x="366" y="327" on="0"/>
        <pt x="345" y="332" on="0"/>
        <pt x="331" y="332" on="1"/>
        <pt x="307" y="332" on="0"/>
        <pt x="265" y="315" on="0"/>
        <pt x="234" y="288" on="0"/>
        <pt x="217" y="252" on="0"/>
        <pt x="217" y="233" on="1"/>
        <pt x="217" y="207" on="0"/>
        <pt x="251" y="157" on="0"/>
        <pt x="304" y="115" on="0"/>
        <pt x="367" y="85" on="0"/>
        <pt x="397" y="80" on="1"/>
        <pt x="423" y="75" on="0"/>
        <pt x="441" y="56" on="0"/>
        <pt x="441" y="33" on="1"/>
        <pt x="441" y="14" on="0"/>
        <pt x="417" y="-14" on="0"/>
        <pt x="393" y="-14" on="1"/>
        <pt x="356" y="-14" on="0"/>
        <pt x="279" y="24" on="0"/>
        <pt x="215" y="90" on="0"/>
        <pt x="192" y="134" on="1"/>
        <pt x="170" y="177" on="0"/>
        <pt x="166" y="226" on="1"/>
      </contour>
    </TTGlyph>
    <TTGlyph name="kcommaaccent" xMin="70" yMin="-308" xMax="445" yMax="702">
      <component glyphName="k" x="0" y="0" flags="0x204"/>
      <component glyphName="commaaccent" x="170" y="-211" flags="0x4"/>
    </TTGlyph>
    <TTGlyph name="kgreenlandic" xMin="70" yMin="-14" xMax="445" yMax="405">
      <contour>
        <pt x="169" y="30" on="1"/>
        <pt x="169" y="13" on="0"/>
        <pt x="146" y="-10" on="0"/>
        <pt x="119" y="-10" on="1"/>
        <pt x="93" y="-10" on="0"/>
        <pt x="70" y="13" on="0"/>
        <pt x="70" y="30" on="1"/>
        <pt x="70" y="358" on="1"/>
        <pt x="70" y="375" on="0"/>
        <pt x="93" y="398" on="0"/>
        <pt x="119" y="398" on="1"/>
        <pt x="146" y="398" on="0"/>
        <pt x="169" y="375" on="0"/>
        <pt x="169" y="358" on="1"/>
        <pt x="166" y="235" on="1"/>
        <pt x="176" y="267" on="0"/>
        <pt x="217" y="328" on="0"/>
        <pt x="274" y="376" on="0"/>
        <pt x="345" y="405" on="0"/>
        <pt x="384" y="405" on="1"/>
        <pt x="420" y="405" on="0"/>
        <pt x="445" y="380" on="0"/>
        <pt x="445" y="360" on="1"/>
        <pt x="445" y="315" on="0"/>
        <pt x="411" y="315" on="1"/>
        <pt x="401" y="315" on="0"/>
        <pt x="384" y="320" on="0"/>
        <pt x="366" y="327" on="0"/>
        <pt x="345" y="332" on="0"/>
        <pt x="331" y="332" on="1"/>
        <pt x="307" y="332" on="0"/>
        <pt x="266" y="310" on="0"/>
        <pt x="235" y="276" on="0"/>
        <pt x="217" y="234" on="0"/>
        <pt x="217" y="213" on="1"/>
        <pt x="217" y="187" on="0"/>
        <pt x="251" y="142" on="0"/>
        <pt x="303" y="107" on="0"/>
        <pt x="368" y="84" on="0"/>
        <pt x="398" y="80" on="1"/>
        <pt x="422" y="77" on="0"/>
        <pt x="441" y="56" on="0"/>
        <pt x="441" y="33" on="1"/>
        <pt x="441" y="14" on="0"/>
        <pt x="418" y="-14" on="0"/>
        <pt x="394" y="-14" on="1"/>
        <pt x="358" y="-14" on="0"/>
        <pt x="281" y="21" on="0"/>
        <pt x="216" y="80" on="0"/>
        <pt x="193" y="119" on="1"/>
        <pt x="171" y="158" on="0"/>
        <pt x="166" y="200" on="1"/>
      </contour>
    </TTGlyph>
    <TTGlyph name="l" xMin="70" yMin="-10" xMax="171" yMax="702">
      <contour>
        <pt x="171" y="30" on="1"/>
        <pt x="171" y="13" on="0"/>
        <pt x="147" y="-10" on="0"/>
        <pt x="120" y="-10" on="1"/>
        <pt x="94" y="-10" on="0"/>
        <pt x="70" y="13" on="0"/>
        <pt x="70" y="30" on="1"/>
        <pt x="70" y="662" on="1"/>
        <pt x="70" y="679" on="0"/>
        <pt x="94" y="702" on="0"/>
        <pt x="120" y="702" on="1"/>
        <pt x="147" y="702" on="0"/>
        <pt x="171" y="679" on="0"/>
        <pt x="171" y="662" on="1"/>
      </contour>
    </TTGlyph>
    <TTGlyph name="ldot" xMin="70" yMin="-10" xMax="312" yMax="702">
      <component glyphName="l" x="0" y="0" flags="0x4"/>
      <component glyphName="periodcentered" x="151" y="359" flags="0x4"/>
    </TTGlyph>
    <TTGlyph name="less" xMin="30" yMin="95" xMax="403" yMax="434">
      <contour>
        <pt x="358" y="431" on="1"/>
        <pt x="364" y="434" on="0"/>
        <pt x="370" y="434" on="1"/>
        <pt x="389" y="434" on="0"/>
        <pt x="399" y="411" on="1"/>
        <pt x="403" y="403" on="0"/>
        <pt x="403" y="394" on="1"/>
        <pt x="403" y="376" on="0"/>
        <pt x="386" y="368" on="1"/>
        <pt x="134" y="264" on="1"/>
        <pt x="386" y="161" on="1"/>
        <pt x="403" y="153" on="0"/>
        <pt x="403" y="135" on="1"/>
        <pt x="403" y="126" on="0"/>
        <pt x="399" y="118" on="1"/>
        <pt x="389" y="95" on="0"/>
        <pt x="370" y="95" on="1"/>
        <pt x="364" y="95" on="0"/>
        <pt x="358" y="98" on="1"/>
        <pt x="48" y="234" on="1"/>
        <pt x="30" y="242" on="0"/>
        <pt x="30" y="265" on="1"/>
        <pt x="30" y="287" on="0"/>
        <pt x="48" y="295" on="1"/>
      </contour>
    </TTGlyph>
</ttFont>
